<svg width="128" height="128" viewBox="0 0 128 128" fill="none" xmlns="http://www.w3.org/2000/svg">
<path d="M50.3999 78.3398C45.2699 78.4398 32.5399 79.2298 32.1099 78.9198C31.9299 78.7898 30.8999 77.9798 29.6499 76.5098C28.9999 75.7498 29.0999 72.2698 28.7199 71.5698C28.3399 70.8698 27.0099 71.0698 26.2999 72.3198C25.3899 73.9498 25.8899 77.0898 25.8899 77.0898C25.8899 77.0898 21.6399 76.7898 20.5799 77.3098C19.5199 77.8298 18.6899 79.2598 18.5999 80.6898C18.5199 81.9698 19.0399 84.1298 19.8599 85.4398C20.9399 87.1798 22.3999 88.6098 23.1599 88.8898C24.4899 89.3798 26.4399 89.3498 27.8899 88.9898C29.3399 88.6298 30.7199 87.7198 30.7199 87.7198C30.7199 87.7198 49.2899 85.5298 51.6699 85.2198C54.0499 84.9098 54.0499 81.6398 54.0499 81.6398C54.0499 81.6398 53.1899 78.3098 50.3899 78.3598L50.3999 78.3398Z" fill="#F15B22"/>
<path d="M50.3997 78.3398C48.5097 78.3798 45.5897 78.5098 42.6397 78.6398C44.2097 79.8598 45.8997 80.9698 47.6297 81.1398L47.3997 83.2498C47.3997 83.2498 35.2797 84.9398 34.1897 84.6998C33.1097 84.4598 32.9097 83.1199 31.6597 82.6199C31.9897 84.1899 31.4397 86.0398 30.3297 86.5098C29.2097 86.9798 26.9097 87.1298 25.8097 87.4198C24.9797 87.6398 23.5997 88.4098 22.9697 88.7798C23.0397 88.8198 23.1097 88.8598 23.1697 88.8798C24.4997 89.3698 26.4497 89.3399 27.8997 88.9799C29.3497 88.6199 30.7297 87.7098 30.7297 87.7098C30.7297 87.7098 49.2997 85.5198 51.6797 85.2098C54.0597 84.8998 54.0597 81.6298 54.0597 81.6298C54.0597 81.6298 53.1997 78.2998 50.3997 78.3498V78.3398Z" fill="#C84527"/>
<path d="M38.1004 86.8301C38.6404 85.5101 38.5604 83.0401 38.1004 81.0601C37.9604 80.4501 37.6904 79.5401 37.2804 78.8701C37.0804 78.8701 36.8804 78.8901 36.6904 78.8901C37.0504 79.3401 37.3704 80.1401 37.6204 81.1701C38.1504 83.4501 38.0904 85.9501 37.5104 86.9001C37.7104 86.8801 37.9104 86.8501 38.1104 86.8301H38.1004Z" fill="#91241D"/>
<path d="M61.9082 78.1264C82.9333 76.8442 99.0958 61.3479 98.0082 43.5147C96.9206 25.6814 78.9947 12.2642 57.9697 13.5464C36.9446 14.8287 20.7821 30.3249 21.8697 48.1582C22.9573 65.9914 40.8832 79.4087 61.9082 78.1264Z" fill="#264F5C"/>
<path opacity="0.2" d="M61 126C78.6731 126 93 123.761 93 121C93 118.239 78.6731 116 61 116C43.3269 116 29 118.239 29 121C29 123.761 43.3269 126 61 126Z" fill="#0E2F3D"/>
<path d="M53.0302 110.81C53.9702 106.67 55.5402 105.54 56.4802 103.39C57.4202 101.24 57.1302 97.9901 54.8702 96.3901C52.8902 94.9801 49.8102 95.2301 48.5302 96.8901C47.1502 98.6901 44.6302 102.48 43.2002 107.1C42.0602 110.78 42.1602 115.3 42.2102 116.48C41.8002 116.73 41.1602 117.23 40.6702 118.12C40.0702 119.21 40.0902 121.23 40.3902 121.73C40.6902 122.23 41.6102 123.01 43.9502 123.27C46.2902 123.53 47.8402 123.21 48.4302 123C49.0202 122.79 50.2202 121.96 50.2202 121.96C50.2202 121.96 51.8602 121.88 52.5602 121.58C53.2602 121.28 53.4202 119.62 53.4202 118.9C53.4202 118.18 52.7102 115.98 52.7102 115.98C52.7102 115.98 52.6402 115.85 52.5102 115.65C52.4902 114.45 52.5802 112.71 53.0102 110.8L53.0302 110.81Z" fill="#F15B22"/>
<path d="M45.9171 108.485C46.2662 107.12 45.8118 105.825 44.9022 105.593C43.9926 105.36 42.9723 106.277 42.6232 107.642C42.2742 109.006 42.7286 110.301 43.6382 110.534C44.5478 110.766 45.5681 109.849 45.9171 108.485Z" fill="#D9EBF3"/>
<path d="M52.5804 121.58C53.2804 121.28 53.4404 119.62 53.4404 118.9C53.4404 118.18 52.7304 115.98 52.7304 115.98C52.7304 115.98 52.6604 115.85 52.5304 115.65C52.5104 114.45 52.6004 112.71 53.0304 110.8C53.9704 106.66 55.5404 105.53 56.4804 103.38C57.1704 101.8 57.1904 99.6302 56.2604 97.9502L52.7304 102.62C52.7304 102.62 51.0404 105.62 50.3704 108.25C49.7004 110.88 49.6904 114.64 49.6904 115.56C49.6904 116.48 50.3204 118.1 50.2504 118.77C50.1804 119.44 49.9504 119.86 49.4004 120.2C48.8504 120.54 47.9904 121.3 45.4604 121.43C41.7804 121.61 40.2104 120.12 40.2104 120.12C40.1704 120.84 40.2504 121.48 40.4004 121.73C40.7004 122.23 41.6204 123.01 43.9604 123.27C46.3004 123.53 47.8504 123.21 48.4404 123C49.0304 122.79 50.2304 121.96 50.2304 121.96C50.2304 121.96 51.8704 121.88 52.5704 121.58H52.5804Z" fill="#C84527"/>
<path d="M72.2403 88.46C72.0003 84.69 71.6703 80.6 70.8703 78.82C70.0803 77.04 67.1903 74.04 60.9203 73.76C54.0203 73.44 51.7203 76.5 50.4503 79.17C49.6103 80.93 48.4303 84.94 48.0103 88.69C47.6203 92.1 47.3903 95.2 48.1503 97.37C49.2103 99.52 51.7703 102.89 55.9803 104.36C57.0703 104.63 58.1003 104.75 59.4803 104.75C65.7803 104.75 69.1703 102.31 71.1803 100.25C72.9203 98.47 72.4703 92.07 72.2403 88.46Z" fill="#D9EBF3"/>
<path d="M56.1903 101.6C53.1603 102.19 52.7304 102.63 52.7304 102.63C53.6804 103.31 54.7604 103.91 55.9904 104.35C57.0804 104.62 58.1104 104.74 59.4904 104.74C65.7904 104.74 69.1804 102.3 71.1904 100.24C72.9304 98.4602 72.4804 92.0602 72.2504 88.4502C72.0104 84.6802 71.6803 80.5902 70.8803 78.8102C70.0903 77.0302 67.2004 74.0302 60.9304 73.7502C54.0304 73.4302 51.7304 76.4902 50.4604 79.1602C50.4304 79.2302 50.3904 79.3202 50.3604 79.3902C54.8804 81.5902 60.9104 82.9202 68.6404 83.2602C68.6404 83.2602 69.7603 92.2402 69.3103 95.5402C68.7503 99.6202 66.8503 100.73 64.7403 101.57C62.2403 102.56 58.3703 102.59 56.1903 101.6Z" fill="#AFD7EA"/>
<path d="M87.4796 98.28C86.7796 93.72 83.5696 87.87 79.2696 83.01C76.5296 79.92 74.2096 78.4 72.3296 77.72C71.0196 77.24 68.7796 77.05 67.8096 79.01C67.0296 80.59 67.9596 82.14 69.1496 83.35C70.3396 84.56 71.6096 85.73 73.9496 88.87C76.2696 91.97 77.1296 96.45 77.1296 96.45C77.1296 96.45 76.3196 97.08 75.8696 98.04C75.4196 99.01 76.2996 100.31 76.2996 100.31C76.2996 100.31 75.7696 101.22 75.9296 102.23C76.0596 103 78.0996 104.47 79.3196 105.06C80.5396 105.65 85.2596 104.16 86.3196 103.11C87.3796 102.06 87.7696 100.22 87.4696 98.28H87.4796Z" fill="#F15B22"/>
<path d="M79.2696 83.01C76.5296 79.92 74.2096 78.4 72.3296 77.72C71.0196 77.24 68.7796 77.05 67.8096 79.01C67.0296 80.59 67.9596 82.14 69.1496 83.35C69.7196 83.93 70.3096 84.51 71.0296 85.29C71.0296 85.29 71.3796 84.16 73.1996 83.43C75.4396 82.54 77.8096 83.66 77.8096 83.66C77.8096 83.66 79.3096 84.59 82.3796 89.22C85.3896 93.77 86.8096 99.71 85.6796 101.6C84.5496 103.49 79.9696 105.17 79.9696 105.17C81.7196 105.24 85.3996 104.01 86.3296 103.09C87.3996 102.04 87.7796 100.2 87.4796 98.26C86.7796 93.7 83.5696 87.85 79.2696 82.99V83.01Z" fill="#C84527"/>
<path d="M84 89.4801C82.87 88.9901 81.34 88.9701 80 89.4501C78.3 90.0601 76.69 91.3701 76.1 92.6301C76.08 92.6801 76.06 92.7301 76.04 92.7901C76.14 93.0401 76.23 93.2901 76.31 93.5301C76.33 93.3101 76.39 93.0701 76.5 92.8201C77.04 91.6601 78.54 90.4401 80.14 89.8701C81.43 89.4101 82.99 89.4501 84.01 89.9701H84.02C84.19 90.0601 84.32 90.1601 84.45 90.2701C84.3 90.0101 84.15 89.7401 83.99 89.4801H84Z" fill="#91241D"/>
<path d="M69.05 78.8298C69.98 77.3498 71.63 77.5298 71.63 77.5298C70.27 77.1398 68.34 77.1698 67.53 78.8198C66.84 80.2198 67.6 81.7798 68.77 82.9398C68.77 82.9398 67.74 80.8998 69.05 78.8298Z" fill="#AFD7EA"/>
<path d="M82.7896 117.78C82.3996 116.63 81.4596 115.71 80.7896 115.18C80.1496 113.02 78.9996 110.43 77.8496 108.17C75.9296 104.41 74.4696 102.37 72.6196 99.88C70.7896 97.42 67.8496 96.6 65.9596 97.6C63.5196 98.9 62.7896 101.47 64.0696 104.24C64.5296 105.23 66.5696 108.11 68.5396 111.93C69.4796 113.76 70.1296 115.32 70.6696 116.67C70.5196 117.34 70.5196 117.91 70.5196 118.18C70.5196 118.97 70.8996 120.37 71.5096 120.81C72.1196 121.25 72.9496 121.27 72.9496 121.27C72.9496 121.27 73.8496 122.15 75.1096 122.67C76.3696 123.19 78.3696 123.27 79.4996 123.19C81.0296 123.08 82.4996 122.49 82.8596 121.96C83.2196 121.43 83.3296 119.38 82.7796 117.76L82.7896 117.78Z" fill="#F15B22"/>
<path d="M80.7896 115.18C80.1496 113.02 78.9996 110.43 77.8496 108.17C75.9296 104.41 74.4697 102.37 72.6197 99.8802C71.4097 98.2502 69.7097 97.3602 68.1497 97.2202C68.1497 97.2202 70.1896 98.2302 71.5196 99.9502C72.8496 101.67 74.8796 104.54 75.3596 106.04C76.1796 108.57 76.5296 110.55 75.1296 111.38C70.6896 114.01 67.1396 109.36 67.1396 109.36C67.5996 110.16 68.0797 111.02 68.5497 111.94C69.4897 113.77 70.1396 115.33 70.6796 116.68C70.5296 117.35 70.5296 117.92 70.5296 118.19C70.5296 118.98 70.9096 120.38 71.5196 120.82C72.1296 121.26 72.9596 121.28 72.9596 121.28C72.9596 121.28 73.8597 122.16 75.1197 122.68C76.3797 123.2 78.3797 123.28 79.5097 123.2C81.0397 123.09 82.5097 122.5 82.8697 121.97C83.0597 121.69 83.1796 120.97 83.1696 120.11C78.7696 122.66 74.8196 119.99 74.8196 119.99C74.8196 119.99 74.9397 114.91 80.7896 115.17V115.18Z" fill="#C84527"/>
<path d="M51.1801 84.0002C54.3801 83.0702 61.1501 82.9502 65.4601 83.8702C66.0201 83.9902 66.4401 84.4502 66.4901 85.0102C66.6501 86.5502 66.7801 88.8102 66.8301 90.7502C66.8501 91.5502 66.1601 92.1702 65.3701 92.0702C60.9901 91.4802 55.4801 91.4602 51.1901 92.2002C50.3801 92.3402 49.6601 91.7002 49.6801 90.8902C49.7301 89.0002 49.8901 86.5902 50.2701 84.9502C50.3701 84.5002 50.7101 84.1302 51.1601 84.0002H51.1801Z" fill="#28758F"/>
<path d="M47.7402 95.3201C47.7602 95.5001 47.7802 95.6701 47.8102 95.8401C51.6502 93.9701 67.4002 93.7701 72.3402 96.7001C72.3602 96.5201 72.3702 96.3301 72.3902 96.1401C66.9002 93.1101 51.7502 93.6001 47.7402 95.3101V95.3201Z" fill="#81B4CC"/>
<path d="M93.7897 46.3899C93.6997 65.5999 79.4797 78.2399 61.6597 78.5099C48.6797 78.7099 39.4197 74.2599 35.4997 66.9999C32.0397 60.5999 31.0697 52.7499 32.0097 44.0899C34.3097 22.9499 46.9697 12.7399 64.0297 13.3799C81.0897 14.0199 93.8797 27.9999 93.7897 46.3899Z" fill="#FDC99A"/>
<path d="M64.03 13.3702C50.33 12.8602 39.48 19.3502 34.54 32.8602C40.08 38.9902 55.73 41.8702 74.13 43.8602C74.13 43.8602 79.49 50.6102 79.34 60.9102C79.14 75.1902 68.71 77.7102 68.71 77.7102C83.09 74.6602 93.71 62.9702 93.79 46.3802C93.88 27.9902 81.09 14.0002 64.03 13.3702Z" fill="#EBAC7A"/>
<path d="M49.8705 59.0501C49.7205 63.0101 46.8205 65.0401 43.3505 64.9101C39.8705 64.7801 37.7105 62.2601 37.6705 58.5301C37.6405 55.3101 38.8705 50.6501 42.7105 50.1901C47.5905 49.6001 49.9905 55.9001 49.8705 59.0501Z" fill="#FBF6F1"/>
<path d="M75.2797 57.33C75.3797 61.29 72.6197 63.49 69.1397 63.58C65.6597 63.67 63.3297 61.82 62.9497 57.88C62.6697 54.98 63.9797 49.07 69.0297 48.42C74.4497 47.72 75.2497 56.19 75.2797 57.33Z" fill="#FBF6F1"/>
<path d="M31.7496 47.32C32.5496 40.96 33.2596 38.73 35.4696 33.77C35.4696 33.77 41.5096 37.12 52.6896 37.58C63.8696 38.04 79.1796 32.91 79.1796 32.91C79.2196 36.43 80.2496 40.42 82.2296 43.14C82.2296 43.14 81.2396 46.86 81.3496 49.91C81.4596 52.96 82.3596 55.67 82.3596 55.67C82.3596 55.67 84.1796 45.12 89.5896 48.1C94.3096 50.7 90.0696 61.95 90.0696 61.95C90.0696 61.95 95.1496 56.42 96.5296 44.12C98.0796 30.27 89.7996 25.74 89.7996 25.74C89.7996 25.74 87.4196 11.76 67.8096 9.10998C55.9896 7.50998 46.0096 12.95 46.0096 12.95C46.0096 12.95 42.4496 14.44 45.0496 6.72998C34.6496 8.06998 29.5296 14.62 29.3496 20.98C29.1496 28.03 32.4296 31.64 32.4296 31.64C32.4296 31.64 30.8196 34.67 30.3396 37.4C29.3996 42.7 31.7496 47.31 31.7496 47.31V47.32Z" fill="#D07128"/>
<path d="M42.7026 63.2C44.6393 62.9323 45.9389 60.7594 45.6054 58.3468C45.2719 55.9342 43.4316 54.1953 41.4949 54.463C39.5583 54.7307 38.2586 56.9036 38.5921 59.3162C38.9256 61.7289 40.7659 63.4677 42.7026 63.2Z" fill="#462C25"/>
<path d="M44.0429 57.3668C44.5218 57.0205 44.5925 56.3008 44.201 55.7593C43.8094 55.2178 43.1038 55.0595 42.6249 55.4057C42.146 55.752 42.0752 56.4717 42.4668 57.0132C42.8584 57.5548 43.564 57.7131 44.0429 57.3668Z" fill="white"/>
<path d="M67.6352 62.1141C69.5812 61.9257 70.9685 59.8077 70.7337 57.3835C70.499 54.9592 68.7312 53.1467 66.7852 53.3351C64.8393 53.5235 63.452 55.6415 63.6867 58.0657C63.9214 60.49 65.6892 62.3025 67.6352 62.1141Z" fill="#462C25"/>
<path d="M69.1709 56.3384C69.6589 56.015 69.7602 55.3087 69.3972 54.7609C69.0342 54.213 68.3443 54.0311 67.8563 54.3544C67.3683 54.6778 67.2669 55.3841 67.63 55.9319C67.993 56.4798 68.6829 56.6618 69.1709 56.3384Z" fill="white"/>
<path d="M48.9597 44.8298C49.0797 45.9098 47.8897 47.5898 46.9797 47.6898C46.5897 47.7298 45.2897 46.3398 43.7397 45.5398C41.6897 44.4998 39.4297 43.9598 39.4297 43.6298C39.4297 43.0498 42.3597 42.4998 44.7297 42.7398C47.0597 42.9698 48.9097 44.2898 48.9697 44.8198L48.9597 44.8298Z" fill="#D07128"/>
<path d="M62.4596 46.1901C62.1996 47.2501 63.1496 49.0701 64.0396 49.2901C64.4196 49.3901 65.8896 48.1701 67.5396 47.5901C69.7096 46.8301 72.0296 46.6001 72.0696 46.2701C72.1396 45.6901 69.3196 44.7601 66.9396 44.6801C64.5996 44.6001 62.5896 45.6501 62.4596 46.1801V46.1901Z" fill="#D07128"/>
<path d="M58.1696 64.2099C58.1796 64.6799 57.2897 65.5899 56.1497 65.6199C55.0097 65.6499 54.0697 64.7799 54.0597 64.3099C54.0497 63.8399 54.9596 63.5899 56.0996 63.5599C57.2396 63.5299 58.1596 63.7399 58.1696 64.2099Z" fill="#EBB68D"/>
<path d="M96.5196 44.1302C98.0696 30.2802 89.7896 25.7502 89.7896 25.7502C89.7896 25.7502 87.6596 13.3302 70.9896 9.68018C70.9896 9.68018 81.3496 13.5002 79.5796 20.6402C77.8096 27.7802 59.6196 38.0402 38.8296 30.9202C32.6996 28.8202 29.3496 22.1202 29.3496 22.1202C29.5096 28.4202 32.4296 31.6402 32.4296 31.6402C32.4296 31.6402 30.8196 34.6702 30.3396 37.4002C29.3996 42.7002 31.7496 47.3102 31.7496 47.3102C32.5496 40.9502 33.2596 38.7202 35.4696 33.7602C35.4696 33.7602 41.5096 37.1102 52.6896 37.5702C63.8696 38.0302 79.1796 32.9002 79.1796 32.9002C79.2296 36.4202 80.2496 40.4102 82.2296 43.1302C82.2296 43.1302 81.2396 46.8502 81.3496 49.9002C81.4596 52.9502 82.3596 55.6602 82.3596 55.6602C82.3596 55.6602 84.1796 45.1102 89.5896 48.0902C94.3096 50.6902 90.0696 61.9402 90.0696 61.9402C90.0696 61.9402 95.1496 56.4102 96.5296 44.1102L96.5196 44.1302Z" fill="#9D4A23"/>
<path d="M96.141 55.6712C96.8941 51.643 94.8201 47.8756 91.5085 47.2565C88.197 46.6373 84.9019 49.4009 84.1488 53.429C83.3957 57.4572 85.4697 61.2246 88.7813 61.8437C92.0928 62.4629 95.3879 59.6993 96.141 55.6712Z" fill="#EBAC7A"/>
<path d="M93.0802 55.2601C92.6202 57.7501 90.5802 59.4501 88.5402 59.0701C87.1502 58.8101 86.3102 58.2701 85.9402 56.7701C85.7602 56.0701 86.8302 55.7501 87.0002 54.4101C87.1702 53.0801 86.1102 52.5801 86.2102 52.2301C86.5802 50.8601 88.4903 49.7501 90.2303 50.0701C92.2703 50.4501 93.5502 52.7801 93.0902 55.2601H93.0802Z" fill="#D8976E"/>
<path d="M71.6727 66.8588C73.0951 66.6622 74.1746 65.9706 74.0839 65.3141C73.9931 64.6576 72.7665 64.2848 71.3441 64.4814C69.9216 64.678 68.8421 65.3696 68.9329 66.0261C69.0236 66.6826 70.2503 67.0554 71.6727 66.8588Z" fill="#F59573"/>
<path d="M45.2241 67.6133C45.2727 66.9523 44.1511 66.3312 42.719 66.2261C41.2869 66.1209 40.0866 66.5715 40.0381 67.2324C39.9895 67.8934 41.1111 68.5145 42.5432 68.6196C43.9753 68.7248 45.1756 68.2742 45.2241 67.6133Z" fill="#F59573"/>
<path d="M65.7999 69.3602C65.9299 70.4302 62.8899 73.8002 56.7099 73.9402C50.5299 74.0802 47.4999 71.4702 48.0799 70.0002C48.4799 68.9902 51.0899 69.1902 55.9799 68.8902C60.8699 68.5902 65.6399 67.9902 65.8099 69.3602H65.7999Z" fill="#6B282A"/>
<path d="M49.9805 69.2201L50.2705 70.8801C50.2705 70.8801 51.9605 71.8901 56.7005 71.6001C61.4405 71.3101 64.4005 69.8101 64.4005 69.8101L64.3205 68.5801C62.5105 68.3601 59.2705 68.6901 55.9705 68.8901C53.2805 69.0501 51.3005 69.0701 49.9805 69.2201Z" fill="#FBF6F1"/>
<path d="M63.4597 71.1802C59.4197 72.3002 55.2497 72.3802 50.9897 72.0902L50.9297 73.0602C52.3597 73.6102 54.2897 73.9902 56.7097 73.9302C60.0397 73.8602 62.4497 72.8502 63.9497 71.7602L63.4597 71.1802Z" fill="#FBF6F1"/>
<path d="M56.9396 2.22006C34.0896 4.20006 17.5296 20.7801 19.5496 43.5001C21.9096 70.0001 40.2896 81.0001 61.8696 79.2201C84.7296 77.3301 104.52 64.8101 101.48 38.2701C98.8796 15.4901 83.4196 -0.0799365 56.9396 2.22006ZM81.1596 72.0401C75.7896 75.2501 72.5496 76.5001 61.1496 77.4701C47.8796 78.5901 38.6695 73.9201 33.0296 68.4601C28.6396 64.2101 25.1196 55.8801 24.2696 48.4801C23.4196 41.0801 24.5896 36.0401 27.1496 31.7201C29.8296 27.1901 38.3796 20.2701 56.1296 19.3401C74.4196 18.3801 82.4396 23.6001 86.3596 28.3701C89.4895 32.1701 93.5496 38.8101 92.9995 50.4001C92.4296 62.2701 85.4496 69.4801 81.1696 72.0401H81.1596Z" fill="#D9EBF3"/>
<path d="M41.7897 25.6898C42.3397 27.0598 38.3397 29.5998 35.1697 32.9198C31.9997 36.2398 30.7197 39.1198 28.2297 37.6698C26.3997 36.6098 28.4297 31.8998 32.0397 28.7198C36.1197 25.1298 41.1497 24.0798 41.7897 25.6898Z" fill="white"/>
<path d="M29.8704 43.6332C30.0075 41.766 29.1096 40.1782 27.8647 40.0868C26.6199 39.9954 25.4997 41.435 25.3625 43.3022C25.2254 45.1694 26.1234 46.7572 27.3682 46.8486C28.613 46.94 29.7333 45.5005 29.8704 43.6332Z" fill="white"/>
<path d="M48.1802 7.01977C49.5902 8.81977 47.2802 10.6298 43.3302 12.0898C39.0302 13.6898 33.1902 15.1398 32.6802 14.1398C32.1702 13.1398 35.0702 10.6398 39.1502 8.55977C43.2302 6.47977 47.2202 5.79977 48.1802 7.01977Z" fill="white"/>
<path d="M77.7604 4.70996C77.7604 4.70996 80.7204 6.37996 81.8304 10.96C83.3604 17.26 78.0804 22.31 78.0804 22.31C82.0304 24.03 84.6004 26.25 86.3604 28.38C89.4904 32.18 93.5504 38.82 93.0004 50.41C92.4304 62.28 85.4504 69.49 81.1704 72.05C75.8004 75.26 72.5604 76.51 61.1604 77.48C47.8904 78.6 38.6804 73.93 33.0404 68.47C32.2304 67.69 31.4604 66.77 30.7204 65.74L25.6904 63.27C33.2704 75.46 46.7904 80.47 61.8804 79.23C84.7404 77.34 104.53 64.82 101.49 38.28C99.6704 22.33 91.5404 9.93996 77.7604 4.70996Z" fill="#99CAE0"/>
<path d="M75.9171 110.889C77.0779 110.43 77.5991 108.996 77.0814 107.687C76.5636 106.377 75.2029 105.687 74.0422 106.146C72.8814 106.605 72.3602 108.039 72.8779 109.348C73.3957 110.658 74.7564 111.348 75.9171 110.889Z" fill="#D9EBF3"/>
<path d="M78.2702 109.03C78.2702 109.46 78.1302 111.14 76.0202 112.25C72.4002 114.16 69.6602 112.87 68.7002 112.27C68.8302 112.53 68.9502 112.78 69.0702 113.02C69.8102 113.37 70.9102 113.74 72.2702 113.74C73.4302 113.74 74.7802 113.47 76.2502 112.7C77.8802 111.84 78.4602 110.66 78.6602 109.84C78.5302 109.57 78.4002 109.31 78.2702 109.04V109.03Z" fill="#91241D"/>
<path d="M48.6901 112.79C46.5501 112.85 43.7001 112.48 42.3901 111.26C42.3701 111.47 42.3501 111.67 42.3301 111.87C43.7201 112.91 46.1301 113.3 48.2101 113.3C48.3801 113.3 48.5401 113.3 48.7001 113.3C50.0901 113.26 51.7101 113.03 52.7301 112.52C52.7601 112.31 52.7901 112.1 52.8301 111.89C52.1101 112.39 50.5301 112.75 48.6901 112.8V112.79Z" fill="#91241D"/>
<path d="M53.19 120.68C53.25 120.47 53.31 120.25 53.34 120.03C52.42 120.53 51.42 120.74 50.12 120.68H50L49.92 120.76C49.61 121.11 48.89 121.62 47.86 121.93C47.86 120.69 47.46 119.02 46.34 118.01C45.33 117.1 43.34 116.62 41.54 117.02C41.34 117.21 41.14 117.44 40.95 117.72C42.82 116.99 45.08 117.56 46.01 118.39C46.99 119.27 47.39 120.83 47.37 122.06C47.06 122.12 46.74 122.17 46.39 122.18C42.71 122.32 40.68 121.03 40.21 120.69C40.21 120.92 40.24 121.11 40.27 121.29C40.99 121.76 42.78 122.7 45.85 122.7C46.03 122.7 46.22 122.7 46.41 122.7C48.62 122.62 49.88 121.55 50.22 121.21C51.37 121.25 52.34 121.09 53.2 120.71L53.19 120.68Z" fill="#91241D"/>
<path d="M83.1704 120.43C82.0104 121.69 79.2204 122.23 77.0704 121.86C76.6604 121.79 76.3104 121.69 75.9704 121.59C75.9804 120.96 76.1304 118.59 77.7104 117.41C78.8304 116.58 80.3504 116.51 81.3904 116.73C81.8004 116.82 82.1704 116.95 82.4704 117.11C82.3204 116.85 82.1604 116.61 81.9804 116.38C81.8204 116.33 81.6604 116.28 81.4904 116.24C80.0004 115.93 78.4704 116.22 77.4104 117.01C75.5704 118.38 75.4904 120.87 75.4904 121.44C74.1404 120.95 73.4804 120.31 73.4704 120.3L73.3904 120.22H73.2804C73.2804 120.22 72.1304 120.29 70.6904 119.29C70.7604 119.55 70.8504 119.81 70.9504 120.05C72.0404 120.66 72.9004 120.73 73.2004 120.73C73.5204 121.01 74.7404 121.96 76.9804 122.35C77.4604 122.43 77.9604 122.47 78.4804 122.47C80.2004 122.47 82.0004 122.01 83.1204 121.14C83.1504 120.92 83.1704 120.69 83.1704 120.42V120.43Z" fill="#91241D"/>
<path d="M55.12 96.1699C53.14 94.7599 49.74 94.8699 48.47 96.5299C47.8 97.4099 46.96 98.7599 45.96 100.82C50.29 100.54 54.1 104.2 55.3 105.49C55.77 104.92 56.43 104.1 56.76 103.33C57.7 101.18 57.39 97.7799 55.13 96.1699H55.12Z" fill="#D9EBF3"/>
<path d="M54.6598 100.67C53.2998 101.68 52.5098 103.04 52.5098 103.04C53.7998 103.96 54.7898 104.93 55.2898 105.48C55.7598 104.91 56.4198 104.09 56.7498 103.32C56.9298 102.9 57.0598 102.43 57.1398 101.94C56.3798 101.74 55.3598 101.29 54.6498 100.66L54.6598 100.67Z" fill="#AFD7EA"/>
<path d="M73.1104 100.55C72.8804 100.06 69.8004 95.5898 65.8704 97.4398C61.1504 99.6598 64.1604 104.66 64.6204 105.22C65.0204 104.12 65.8904 102.51 67.7704 101.39C69.9504 100.09 71.9804 100.28 73.1104 100.55Z" fill="#D9EBF3"/>
<path d="M71.86 100.38C72.34 100.41 72.77 100.48 73.11 100.56C72.95 100.22 71.43 97.9802 69.21 97.2402C70.21 98.2302 71.11 99.2702 71.86 100.38Z" fill="#AFD7EA"/>
</svg>
