<svg width="128" height="128" viewBox="0 0 128 128" fill="none" xmlns="http://www.w3.org/2000/svg">
<path d="M67.6098 79.6099C65.0398 79.6299 61.9298 90.8099 60.6398 91.1899C58.2898 91.8699 54.3898 91.2099 53.2398 89.4299C54.2898 87.8099 54.2198 86.7699 53.8298 86.0899C53.4898 85.5099 52.5098 85.1899 52.5098 85.1899C52.5098 85.1899 52.6698 84.2899 52.3098 83.6999C51.4698 82.2999 48.3298 81.8699 47.2698 81.7999C46.2098 81.7299 41.8598 86.2199 41.5698 87.7999C41.4198 88.6099 41.2098 90.4199 42.2798 92.1099C43.1898 93.5499 44.6698 95.4499 47.7998 97.2499C51.3198 99.2699 58.2298 101.23 64.1898 98.9599C67.0798 97.8599 70.3298 89.7099 70.3298 89.7099C70.3298 89.7099 70.1798 79.5699 67.6098 79.5899V79.6099Z" fill="#F15B22"/>
<path d="M43.2405 93.4699C43.2405 93.4699 45.3905 95.2499 47.2405 94.5999C48.7405 94.0699 49.2305 93.2699 49.8805 92.3399C50.2805 93.2099 48.9705 95.0499 49.4605 95.6899C49.9505 96.3299 57.1505 100.4 63.6305 97.2099C67.4405 95.3399 68.7305 88.6699 68.7305 88.6699L70.3205 89.7399C70.3205 89.7399 67.0605 97.8899 64.1805 98.9899C58.2305 101.26 51.3105 99.2999 47.7905 97.2799C45.5705 95.9999 44.1805 94.6699 43.2305 93.4899L43.2405 93.4699Z" fill="#C84527"/>
<path d="M86.5001 78.91C83.8101 75.67 81.5501 74.18 77.8601 74.19C75.6101 74.19 71.2901 74.85 68.5801 77.71C66.4501 79.97 65.1501 83.53 64.8701 89.25C64.6101 94.61 65.4001 103.06 68.0301 104.63C70.6601 106.2 73.8401 108.44 82.9301 106.57C91.7201 104.76 94.4401 100.34 94.6601 97.76C95.0101 93.63 89.5901 82.61 86.5101 78.91H86.5001Z" fill="#D9EBF3"/>
<path d="M80.8003 101.5C78.7703 101.9 78.0703 101.5 78.0703 101.5L71.8003 105.05L71.1803 106.3C73.5703 107.26 76.9803 107.79 82.9203 106.57C91.7103 104.76 94.4303 100.34 94.6503 97.76C95.0003 93.63 89.5803 82.61 86.5003 78.91C83.8103 75.67 81.5503 74.18 77.8603 74.19C75.6103 74.19 71.2903 74.85 68.5803 77.71C67.6703 78.68 66.9103 79.91 66.3203 81.43C66.3203 81.43 68.9303 81.25 72.8203 80.08C76.7103 78.91 79.5903 77.86 79.5903 77.86C79.5903 77.86 81.4903 79.08 84.0503 83.43C86.6103 87.78 87.9203 93.16 87.9203 93.16C87.9203 93.16 89.0503 95.61 86.7503 98.04C84.4503 100.47 82.8303 101.1 80.8103 101.5H80.8003Z" fill="#AFD7EA"/>
<path d="M92.8902 90.6102C92.7702 90.3002 92.6402 89.9902 92.5102 89.6702C87.8502 86.3602 79.7202 86.9802 73.6102 89.1702C69.2402 90.7402 66.1302 92.9702 64.9902 95.2602C65.0202 95.6502 65.0602 96.0302 65.1002 96.4102C65.6602 93.9402 68.9002 91.3902 73.7802 89.6502C80.0902 87.3902 88.5502 86.8102 92.9002 90.6102H92.8902Z" fill="#81B4CC"/>
<path d="M71.7504 95.2498C69.5904 94.7498 63.8004 95.0698 61.8104 95.8098C59.9904 96.4898 59.0104 97.5898 58.5804 98.6398C56.9704 102.48 60.4204 109.68 60.4204 109.68C63.6904 108.04 66.0504 108.37 69.8304 109.43L69.0904 106.68C69.0904 106.68 72.5504 107.48 75.3604 106.25C78.3204 104.95 78.1904 101.69 77.3004 99.6998C76.0004 96.7698 74.1904 95.8098 71.7404 95.2398L71.7504 95.2498Z" fill="#F15B22"/>
<path d="M75.36 106.25C77.45 105.33 77.99 103.44 77.82 101.7C77.82 101.7 75.93 102.59 71.79 102.34C67.65 102.09 64.5 100.65 64.5 100.65C65.19 101.81 65.7 103.31 66.12 105.54L65.74 108.59C66.97 108.7 68.27 109 69.82 109.43L69.08 106.68C69.08 106.68 72.54 107.48 75.35 106.25H75.36Z" fill="#C84527"/>
<path d="M56.0098 105.66C56.0098 105.66 57.5798 103.55 60.2298 103.73C64.3198 104.01 66.6998 105.78 68.2098 107.08C69.2998 108.02 70.1298 109.12 70.5998 110.47C71.0698 111.82 71.0898 113.3 70.8798 114.59L62.2698 112.2L56.0198 105.66H56.0098Z" fill="#F15B22"/>
<path d="M68.1996 107.08C67.6396 106.6 66.9596 106.05 66.1296 105.54C66.1296 105.54 66.4997 107.67 66.2297 109.77C65.9597 111.87 64.8896 112.93 64.8896 112.93L70.8697 114.59C71.0797 113.3 71.0396 111.76 70.5896 110.47C70.1196 109.12 69.2896 108.02 68.1996 107.08Z" fill="#C84527"/>
<path d="M55.9403 105.74C55.3003 106.55 54.8003 108.57 56.0103 110.32C57.4603 112.42 60.5503 114.23 62.5203 115.16C64.7903 116.23 67.1403 116.5 68.5303 116.31C70.1403 116.08 71.1003 115.18 70.8903 113.82C70.5803 111.71 67.6903 110.76 67.2703 110.36C66.8503 109.96 66.3003 108.7 64.9803 107.16C63.8503 105.85 62.9203 105.28 61.3003 104.79C59.3403 104.19 56.9503 104.47 55.9403 105.75V105.74Z" fill="#932E1E"/>
<path d="M91.73 112.12C89.52 113.2 89.23 115.36 89.66 116.73C90.05 117.95 90.88 119.16 92.1 120.5C92.1 120.5 92.75 123.53 94.27 125.06C95.18 125.97 97.59 126.1 99.27 125.32C100.59 124.71 101.26 123.76 101.31 122.28C101.36 120.8 101.09 119.33 100.23 117.04C99.5 115.07 97.24 112.84 96.44 112.3C95.64 111.76 94.3 110.85 91.72 112.11L91.73 112.12Z" fill="#F15B22"/>
<path d="M99.2096 115.21L97.5996 117.45C97.5996 117.45 99.1896 119.92 99.2796 122.55C99.3596 124.76 98.0896 125.51 97.6296 125.76C98.1996 125.69 98.7696 125.54 99.2696 125.31C100.59 124.7 101.26 123.75 101.31 122.27C101.37 120.79 101.09 119.32 100.23 117.03C99.9996 116.42 99.6296 115.79 99.1996 115.19L99.2096 115.21Z" fill="#C84527"/>
<path d="M83.6601 104.42C84.6901 106.55 87.2401 107.99 89.1901 111.42C91.1401 114.85 90.7601 115.98 92.1601 117.92C92.9401 119.01 94.4901 120.44 97.1701 119.74C100.14 118.97 101.17 116.1 101.28 114.89C101.39 113.68 101.29 109.25 99.8301 105.51C97.6001 99.7898 96.0801 98.0198 94.3701 96.0298C92.0701 93.3498 87.0001 93.2798 84.8301 95.6198C81.9101 98.7698 82.6101 102.28 83.6401 104.41L83.6601 104.42Z" fill="#F15B22"/>
<path d="M99.4197 104.46C97.4197 99.5598 95.9797 97.8898 94.3797 96.0298C92.9997 94.4198 90.6197 93.7598 88.4697 93.9898C93.1297 96.4798 96.0397 99.2798 99.4197 104.45V104.46Z" fill="#C84527"/>
<path d="M82.7803 101.18C82.8603 102.41 83.2303 103.54 83.6503 104.42C84.6003 106.38 86.8203 107.77 88.6903 110.63C88.3103 109.39 87.6403 107.49 86.6003 105.55C85.4203 103.34 83.7503 101.89 82.7803 101.18Z" fill="#C84527"/>
<path d="M101.28 114.89C101.31 114.56 101.33 113.99 101.3 113.26C100.5 115.55 98.32 117.07 96.76 117.27C93.49 117.68 91.6 115.78 90.5 114.15C91.1 115.7 91.2 116.59 92.15 117.91C92.93 119 94.48 120.43 97.16 119.73C100.13 118.96 101.16 116.09 101.27 114.88L101.28 114.89Z" fill="#C84527"/>
<path d="M88.7096 99.8999C93.6696 96.5799 97.5796 100.52 97.5796 100.52C96.4396 98.4299 95.4196 96.9999 94.3596 95.7599C92.0596 93.0799 86.8496 93.0899 84.6896 95.4299C81.7696 98.5799 82.3696 102.24 83.3996 104.37C83.8796 105.37 84.9696 106.27 85.8996 107.24C85.8996 107.24 84.5796 102.66 88.7096 99.8999Z" fill="#D9EBF3"/>
<path d="M77.5898 99.6502C76.2898 96.7202 74.0298 95.4102 71.7398 95.0902C71.2298 95.0202 70.6398 94.9802 69.7598 95.0302C69.7598 95.0302 72.9698 95.9002 74.5798 98.9602C76.4498 102.52 75.4798 104.66 74.2898 106.08C73.5098 107.01 72.1898 106.97 72.1898 106.97C73.1598 106.91 74.3998 106.99 75.4798 106.52C78.4398 105.22 78.4798 101.64 77.5898 99.6502Z" fill="#D9EBF3"/>
<path d="M100.58 115.78C100.69 116.29 99.7096 117.35 98.1496 117.8C96.5896 118.25 95.2496 117.64 95.1196 117.29C94.7496 116.23 96.0696 115.69 97.5496 115.3C99.2196 114.86 100.4 114.95 100.58 115.78Z" fill="#D9EBF3"/>
<path d="M62.8999 96.0399C63.3499 96.6499 62.7299 97.7299 61.5899 98.5799C60.4499 99.4299 59.2299 99.7099 58.7799 99.0999C58.3299 98.4899 58.6699 97.2099 59.8099 96.3599C60.9499 95.5099 62.4399 95.4299 62.8899 96.0399H62.8999Z" fill="#D9EBF3"/>
<path d="M66.54 84.1C66.31 85.57 66.1799 87.62 66.2699 89.36C66.2899 89.71 66.7 89.9 66.97 89.68C67.91 88.94 69.93 87.58 73.36 86.42C77.04 85.17 79.81 84.95 81.04 84.92C81.36 84.92 81.56 84.57 81.4 84.28L79.1699 80.1C79.0199 79.82 78.7399 79.64 78.4199 79.63C77.3599 79.6 74.74 79.69 71.62 80.84C68.5 81.99 67.19 83.16 66.76 83.64C66.64 83.77 66.57 83.92 66.54 84.1Z" fill="#28758F"/>
<path d="M68.3203 104.24C68.3603 104.34 68.4503 104.4 68.5603 104.4C68.5903 104.4 68.6203 104.4 68.6503 104.38C68.7803 104.33 68.8403 104.18 68.8003 104.05C68.0003 101.97 65.5703 99.9798 62.4803 100.23C60.0803 100.42 58.8303 101.6 58.2803 102.7C58.3303 103.04 58.3803 103.38 58.4503 103.72C58.6203 102.66 59.6903 100.95 62.5203 100.73C65.3603 100.52 67.5903 102.33 68.3303 104.23L68.3203 104.24Z" fill="#91241D"/>
<path d="M78.0604 101.5C77.6204 101.68 76.7804 101.96 75.6004 102.16C75.7504 103.91 75.0604 105.15 74.2804 106.09C73.7004 106.79 72.8104 106.94 72.4004 106.97C73.3404 106.93 74.4704 106.97 75.4704 106.52C77.6404 105.57 78.2404 103.38 78.0504 101.5H78.0604Z" fill="#AFD7EA"/>
<path d="M82.55 101.01C82.6 102.3 82.95 103.47 83.39 104.37C83.87 105.37 84.96 106.27 85.89 107.24C85.89 107.24 85.52 105.92 85.8 104.26C84.63 102.6 83.28 101.52 82.54 101.01H82.55Z" fill="#AFD7EA"/>
<path d="M88.0996 93.7998C90.9896 95.3098 93.2096 96.9098 95.2596 99.0698C96.6996 99.6498 97.5796 100.52 97.5796 100.52C96.4396 98.4298 95.4196 96.9998 94.3596 95.7598C92.9296 94.0898 90.3596 93.4698 88.0996 93.7998Z" fill="#AFD7EA"/>
<path d="M55.2998 96.4799C54.4798 98.0499 53.3098 98.9799 52.0898 99.0499C52.4198 99.1499 52.7698 99.2399 53.1198 99.3299C54.1398 98.9299 55.0698 98.0299 55.7498 96.7099C56.6398 94.9899 56.9898 92.6699 56.1298 91.1499C55.8498 91.0799 55.5798 90.9999 55.3198 90.8999C56.5298 92.1599 56.2098 94.7099 55.2898 96.4799H55.2998Z" fill="#91241D"/>
<path d="M100.45 124.22C100.73 123.96 100.94 123.66 101.14 123.35C101.24 123.03 101.3 122.68 101.32 122.28C101.32 122.23 101.32 122.17 101.32 122.12C101.04 122.79 100.69 123.42 100.16 123.89C98.8899 124.88 96.8398 125.16 95.3898 124.47C94.7498 124.02 94.3198 123.37 93.9998 122.64C94.9198 121.58 97.3898 120.63 99.5098 120.55C100.25 120.52 100.83 120.61 101.25 120.79C101.23 120.61 101.2 120.43 101.17 120.24C100.63 120.07 100.02 120.03 99.4998 120.05C97.5998 120.12 95.0099 120.93 93.7999 122.14C93.5299 121.43 93.3399 120.67 93.1599 119.98C91.6199 118.25 89.9498 116.09 90.0298 113.66C89.7998 114.04 89.6698 114.44 89.5898 114.83C89.9798 116.97 91.5498 119.2 92.6498 120.09C93.1098 121.82 93.5598 123.83 95.1498 124.92C96.8198 125.72 99.0698 125.42 100.47 124.23L100.45 124.22Z" fill="#91241D"/>
<path d="M93.4099 31.3502C101.42 47.9802 94.9499 66.9202 73.1499 77.4102C51.3499 87.9102 32.5099 81.1502 24.5099 64.5202C16.4999 47.8902 25.4399 26.9802 44.4699 17.8202C63.4999 8.66023 85.4099 14.7102 93.4199 31.3402L93.4099 31.3502Z" fill="#264F5C"/>
<path d="M39.8197 66.9402C42.6297 69.5602 44.4297 72.7902 42.8297 74.5702C41.2197 76.3502 37.6197 75.7002 34.7697 73.1302C31.9197 70.5602 30.9197 67.0302 32.5197 65.2602C34.1197 63.4902 36.8797 64.2202 39.8197 66.9502V66.9402Z" fill="#FDC99A"/>
<path d="M36.29 71.22C37.83 72.83 39.59 73.65 40.21 73.05C40.44 72.83 40.49 72.43 40.37 71.95C40.25 71.47 39.85 71.75 39.02 70.72C38.48 70.06 38.92 69.43 38.56 69.05C37.02 67.44 35.26 66.62 34.64 67.22C34.02 67.82 34.76 69.61 36.3 71.22H36.29Z" fill="#EFB082"/>
<path d="M84.2395 45.5598C84.5295 49.3898 85.9395 52.8198 88.3295 52.6698C90.7195 52.5198 92.4595 49.2998 92.2295 45.4698C91.9895 41.6398 89.8595 38.6498 87.4795 38.7998C85.0995 38.9498 83.9395 41.5598 84.2495 45.5598H84.2395Z" fill="#EBAC7A"/>
<path d="M89.7898 45.4698C90.0898 47.6798 89.6298 49.5598 88.7798 49.6798C88.4598 49.7198 88.1298 49.5098 87.8198 49.1098C87.5098 48.7098 87.9898 48.5698 87.6998 47.2898C87.5198 46.4598 86.7498 46.4098 86.6798 45.8898C86.3798 43.6798 86.8398 41.7998 87.6898 41.6798C88.5398 41.5598 89.4798 43.2598 89.7798 45.4698H89.7898Z" fill="#D8976E"/>
<path d="M71.0997 18.3299C63.7397 13.0399 54.6397 13.0299 43.7497 18.2699C32.8597 23.5099 27.1997 30.6299 26.7397 39.6899C25.9997 54.2199 40.2097 71.9699 47.2897 76.4599C55.9897 81.9899 63.9597 80.4499 71.8597 76.6499C79.7597 72.8499 85.9297 67.5799 87.0397 57.3299C87.9397 48.9999 82.9197 26.8199 71.1097 18.3299H71.0997Z" fill="#FDC99A"/>
<path d="M87.32 57.1902C88.22 48.8602 83.2 26.6802 71.39 18.1902C64.03 12.9002 54.93 12.8902 44.04 18.1302C33.15 23.3702 27.49 30.4902 27.03 39.5502C26.89 42.3202 27.3 45.2002 28.09 48.0902C35.3 50.8902 53.71 47.3802 72.11 36.7202C72.11 36.7202 82.38 47.2202 83.69 58.8402C84.94 69.9602 74.18 75.4702 74.18 75.4702C81.09 71.7402 86.32 66.5502 87.32 57.1902Z" fill="#EBAC7A"/>
<path d="M54.81 41.1199C42.84 46.8799 34.34 46.8799 34.34 46.8799C35.12 49.6799 34.76 52.8499 33.93 54.3999C36.06 58.7599 37.4 63.1099 37.49 66.6299C35.3 65.7399 31.96 61.8499 29.66 57.7399C27.36 53.6299 25.59 45.8999 25.59 45.8999C25.59 45.8999 21.91 43.0699 20.91 35.4999C19.69 26.2699 30.55 13.5399 37.68 10.1099C37.92 11.9899 41.19 13.2699 43.85 13.9399C46.51 14.6099 58.66 11.1899 63.91 12.8799C69.79 14.7799 70.98 17.2899 70.98 17.2899C70.98 17.2899 74.91 17.8299 78.09 21.3199C81.26 24.8099 83.13 28.9999 84.59 33.4499C86.05 37.9099 85.55 43.4899 85.55 43.4899C83.61 42.0199 80.18 37.4099 78.72 32.8299C76.19 32.2699 73.71 30.1499 72.8 28.3499C72.8 28.3499 66.77 35.3499 54.8 41.1099L54.81 41.1199Z" fill="#D07128"/>
<path d="M71.0004 17.29C71.0004 17.29 69.8104 14.77 63.9304 12.88C61.7504 12.18 58.3804 12.36 55.0004 12.76C55.0004 12.76 61.7204 13.23 64.4204 18.58C66.6304 22.96 64.9304 27.98 60.2604 32.22C56.7804 35.38 43.9404 44.02 33.9504 43.28C25.9404 42.68 21.4004 38.05 21.4004 38.05C22.7704 43.72 25.6104 45.91 25.6104 45.91C25.6104 45.91 27.3804 53.64 29.6804 57.75C31.9804 61.86 35.3204 65.75 37.5104 66.64C37.4204 63.12 36.0804 58.77 33.9504 54.41C34.7704 52.85 35.1304 49.69 34.3604 46.89C34.3604 46.89 42.8604 46.89 54.8304 41.13C66.8004 35.37 72.8304 28.37 72.8304 28.37C73.7404 30.17 76.2204 32.29 78.7504 32.85C80.2204 37.43 83.6404 42.04 85.5804 43.51C85.5804 43.51 86.0804 37.92 84.6204 33.47C83.1604 29.01 81.3004 24.83 78.1204 21.34C74.9404 17.85 71.0104 17.31 71.0104 17.31L71.0004 17.29Z" fill="#9D4A23"/>
<path d="M39.2602 8.20982C14.7502 20.0098 8.70024 42.1398 20.8102 64.2698C31.7202 84.2098 52.6102 88.0798 72.9902 78.2698C93.3602 68.4598 103.36 49.7098 94.5802 28.7498C84.8402 5.48982 63.7702 -3.59018 39.2602 8.20982ZM90.7202 32.6698C99.8502 52.7198 90.2102 68.5098 72.4102 77.0798C54.6102 85.6498 36.2602 83.3298 26.2802 63.6898C17.3602 46.1198 23.8302 30.9498 45.2402 20.6398C66.6502 10.3298 82.5502 14.7398 90.7202 32.6698Z" fill="#D9EBF3"/>
<path d="M57.7299 60.67C59.9999 65.46 58.6299 67.69 55.5699 69.17C52.5099 70.65 48.8899 71.11 46.8699 66.82C46.2499 65.5 45.0199 58.5 48.8799 56.64C52.7399 54.78 56.4499 57.97 57.7399 60.67H57.7299Z" fill="#FBF6F1"/>
<path d="M53.9402 67.1613C55.6222 66.3514 56.234 64.1338 55.3067 62.2081C54.3795 60.2823 52.2644 59.3777 50.5825 60.1875C48.9006 60.9973 48.2888 63.2149 49.216 65.1407C50.1432 67.0664 52.2583 67.9711 53.9402 67.1613Z" fill="#462C25"/>
<path d="M44.05 55.4498C43.73 55.0598 45.05 53.2998 47.76 52.0998C48.72 51.6798 50.94 51.3098 51.33 51.5798C52.44 52.3498 52.52 54.2798 52.09 54.4198C51.66 54.5598 50.39 54.2098 48.82 54.3898C46.55 54.6498 44.35 55.8198 44.04 55.4398L44.05 55.4498Z" fill="#D07128"/>
<path d="M51.8562 62.7112C51.8978 62.011 51.422 61.4132 50.7935 61.3758C50.165 61.3385 49.6218 61.8758 49.5802 62.576C49.5386 63.2762 50.0144 63.874 50.6429 63.9114C51.2714 63.9487 51.8146 63.4114 51.8562 62.7112Z" fill="#F7F8F8"/>
<path d="M67.47 55.7C69.65 60.53 72.25 60.92 75.35 59.54C78.46 58.15 81.14 55.69 79.18 51.38C78.58 50.05 74.02 44.59 70.11 46.34C66.2 48.09 66.23 52.98 67.47 55.71V55.7Z" fill="#FBF6F1"/>
<path d="M74.8747 57.0002C76.5794 56.2394 77.2552 54.0405 76.3841 52.0887C75.5131 50.1369 73.425 49.1714 71.7204 49.9321C70.0157 50.6929 69.3399 52.8918 70.2109 54.8436C71.082 56.7954 73.17 57.761 74.8747 57.0002Z" fill="#462C25"/>
<path d="M70.8101 42.5398C70.7201 42.0398 68.4601 42.1498 66.2401 43.1698C65.2901 43.6098 63.8001 44.7898 63.7501 45.2698C63.6201 46.6098 65.3601 47.9398 65.7401 47.7098C66.1201 47.4798 66.3701 46.2698 67.5201 45.1798C69.1801 43.6098 70.8901 43.0298 70.8101 42.5498V42.5398Z" fill="#D07128"/>
<path d="M72.7756 52.8921C72.9189 52.2055 72.5354 51.5446 71.9191 51.416C71.3028 51.2873 70.687 51.7396 70.5437 52.4262C70.4004 53.1128 70.7838 53.7737 71.4001 53.9024C72.0165 54.031 72.6323 53.5787 72.7756 52.8921Z" fill="#F7F8F8"/>
<path d="M67.4499 63.6001C67.6299 63.9701 67.2399 65.1201 66.2999 65.5801C65.3599 66.0401 64.2199 65.6201 64.0399 65.2501C63.8599 64.8801 64.4799 64.2101 65.4199 63.7601C66.3599 63.3101 67.2699 63.2401 67.4499 63.6101V63.6001Z" fill="#EBB68D"/>
<path d="M34.2697 33.81C35.6397 34.58 34.1197 37.99 32.5297 42.98C30.9397 47.97 29.2197 51.09 27.6497 50.96C24.3797 50.67 24.3497 44.46 26.9297 39.87C29.5097 35.28 32.8997 33.04 34.2697 33.82V33.81Z" fill="white"/>
<path d="M29.9723 61.7523C31.3486 61.3628 31.9829 59.3454 31.3889 57.2463C30.7949 55.1472 29.1976 53.7613 27.8212 54.1508C26.4449 54.5402 25.8106 56.5576 26.4046 58.6567C26.9986 60.7558 28.5959 62.1417 29.9723 61.7523Z" fill="white"/>
<path d="M54.5081 73.9039C55.7372 73.3121 56.5219 72.3927 56.2607 71.8503C55.9996 71.3079 54.7915 71.3479 53.5624 71.9397C52.3333 72.5315 51.5486 73.4509 51.8098 73.9933C52.0709 74.5357 53.279 74.4957 54.5081 73.9039Z" fill="#F59573"/>
<path d="M81.0931 61.0958C82.3222 60.504 83.1068 59.5846 82.8457 59.0422C82.5845 58.4998 81.3764 58.5398 80.1473 59.1316C78.9183 59.7234 78.1336 60.6428 78.3947 61.1852C78.6559 61.7276 79.864 61.6876 81.0931 61.0958Z" fill="#F59573"/>
<path d="M65.64 3.5C65.64 3.5 68.5 4.97 69.53 8.18C70.88 12.39 67.89 15.25 67.89 15.25C78 15.93 85.78 21.82 90.72 32.67C99.85 52.72 90.21 68.51 72.41 77.08C62.42 81.89 52.24 83.27 43.48 80.07C42.31 80.53 40.82 80.85 39 81.02C49.13 85.03 61.15 83.97 72.99 78.27C93.36 68.46 103.36 49.71 94.58 28.75C88.6 14.46 78.34 5.54 65.64 3.5Z" fill="#99CAE0"/>
<path d="M35.6211 16.7565C39.0242 14.6678 41.2865 12.1656 40.6741 11.1677C40.0616 10.1698 36.8063 11.0541 33.4032 13.1428C30 15.2316 27.7377 17.7337 28.3502 18.7316C28.9626 19.7295 32.2179 18.8452 35.6211 16.7565Z" fill="white"/>
<path d="M77.2696 64.8002C77.9396 66.2002 77.0896 70.9302 71.3096 73.7102C65.5296 76.4902 61.6996 74.0102 61.0296 72.6202C60.3596 71.2302 63.6296 68.7202 68.1196 66.5602C72.6096 64.4002 76.5996 63.4002 77.2696 64.8002Z" fill="#911A1E"/>
<path d="M89.1904 75.9401C99.2004 67.0401 101.49 58.7901 101.49 58.7901C101.49 58.7901 102.98 57.7201 103.73 56.2101C104.76 54.1201 104.67 51.5101 104.3 50.5801C103.93 49.6501 98.9104 45.3601 96.5504 44.4401C95.3104 43.9601 93.1203 44.2401 92.0203 44.7901C90.9203 45.3401 90.3904 46.8601 90.2304 47.7801C90.0704 48.7001 90.3403 50.3901 90.3403 50.3901C90.3403 50.3901 89.0703 50.8901 88.8803 52.1701C88.6903 53.4501 91.1804 56.0801 91.1804 56.0801C91.1804 56.0801 90.0404 61.6701 82.4704 71.1501C80.5004 73.6101 79.5504 75.4501 80.9404 77.6201C82.3204 79.7901 85.5004 79.2301 89.1904 75.9501V75.9401Z" fill="#F15B22"/>
<path d="M100.42 55.8401C99.2201 56.0901 96.0501 53.3001 94.6601 51.9801C94.1701 52.4301 93.0701 52.6701 92.0501 53.3301C92.0501 53.3301 93.2901 53.3701 94.2201 54.1101C95.1501 54.8501 95.7401 56.2101 95.7401 56.2101C95.7401 56.2101 96.8101 55.7401 97.9601 56.4801C99.1101 57.2201 99.3701 58.2701 98.9501 59.6001C95.9401 69.1201 87.4201 74.0701 87.4201 74.0701C84.1901 74.6301 82.1501 73.0701 84.0601 69.0901C83.5601 69.7501 83.0501 70.4301 82.4801 71.1401C80.5101 73.6001 79.5601 75.4401 80.9501 77.6101C82.3301 79.7801 85.5101 79.2201 89.2001 75.9401C99.2101 67.0401 101.5 58.7901 101.5 58.7901C101.5 58.7901 102.99 57.7201 103.74 56.2101C104.77 54.1201 104.68 51.5101 104.31 50.5801C104.31 50.5801 102.74 51.0901 101.96 52.5701C101.18 54.0501 101.63 55.6001 100.43 55.8401H100.42Z" fill="#C84527"/>
<path d="M91.5996 65.6102C89.6796 64.3602 88.8596 62.9202 89.0896 61.2202C88.9196 61.5402 88.7496 61.8702 88.5596 62.2202C88.7096 63.6702 89.6196 64.9302 91.3296 66.0402C92.2896 66.6602 93.6396 67.0002 94.9796 67.0002C95.8896 67.0002 96.7896 66.8402 97.5596 66.5102C97.7896 66.1702 97.9996 65.8402 98.1996 65.5202C96.6196 66.8302 93.3696 66.7602 91.6096 65.6202L91.5996 65.6102Z" fill="#91241D"/>
<path d="M71.3096 73.72C73.1396 72.84 74.4696 71.76 75.4196 70.66C73.9796 69.99 71.9696 70.08 70.1196 71.06C68.3696 71.99 67.1996 73.47 66.8496 74.95C68.1596 74.87 69.6496 74.51 71.3096 73.71V73.72Z" fill="#F38083"/>
</svg>
