<svg width="134" height="134" viewBox="0 0 134 134" fill="none" xmlns="http://www.w3.org/2000/svg">
<path opacity="0.2" d="M63.8594 131.906C82.3609 131.906 97.3594 129.563 97.3594 126.672C97.3594 123.781 82.3609 121.438 63.8594 121.438C45.3578 121.438 30.3594 123.781 30.3594 126.672C30.3594 129.563 45.3578 131.906 63.8594 131.906Z" fill="#0E2F3D"/>
<path d="M55.5161 116.004C56.5002 111.67 58.1438 110.487 59.1278 108.236C60.1119 105.986 59.8083 102.583 57.4424 100.908C55.3695 99.4321 52.1452 99.6938 50.8052 101.432C49.3605 103.316 46.7224 107.284 45.2253 112.12C44.0319 115.973 44.1366 120.705 44.1889 121.94C43.7597 122.202 43.0897 122.725 42.5767 123.657C41.9486 124.798 41.9695 126.913 42.2836 127.436C42.5977 127.959 43.5608 128.776 46.0105 129.048C48.4602 129.32 50.0828 128.985 50.7005 128.766C51.3181 128.546 52.5744 127.677 52.5744 127.677C52.5744 127.677 54.2913 127.593 55.0241 127.279C55.7569 126.965 55.9244 125.227 55.9244 124.473C55.9244 123.72 55.1811 121.416 55.1811 121.416C55.1811 121.416 55.1078 121.28 54.9717 121.071C54.9822 119.815 55.066 118.004 55.5161 116.004Z" fill="#F26A21"/>
<path d="M48.0717 113.566C48.4371 112.137 47.9613 110.782 47.0091 110.539C46.0569 110.295 44.9888 111.255 44.6234 112.684C44.2581 114.112 44.7338 115.467 45.6861 115.711C46.6383 115.955 47.7064 114.994 48.0717 113.566Z" fill="#D9EBF3"/>
<path d="M55.0446 127.279C55.7774 126.965 55.9449 125.227 55.9449 124.473C55.9449 123.719 55.2016 121.416 55.2016 121.416C55.2016 121.416 55.1283 121.28 54.9922 121.071C54.9713 119.814 55.0655 117.993 55.5156 115.993C56.4997 111.659 58.1433 110.476 59.1274 108.226C59.8497 106.571 59.8706 104.3 58.8971 102.541L55.2016 107.43C55.2016 107.43 53.4324 110.571 52.731 113.324C52.0191 116.077 52.0191 120.013 52.0191 120.976C52.0191 121.929 52.6786 123.636 52.6053 124.337C52.5321 125.038 52.2913 125.478 51.7155 125.834C51.1397 126.19 50.2394 126.986 47.5908 127.122C43.7383 127.31 42.0947 125.75 42.0947 125.75C42.0528 126.504 42.1366 127.174 42.2936 127.436C42.6077 127.959 43.5708 128.776 46.0205 129.048C48.4702 129.32 50.0928 128.985 50.7105 128.765C51.3281 128.545 52.5844 127.676 52.5844 127.676C52.5844 127.676 54.3013 127.593 55.0446 127.279Z" fill="#C85627"/>
<path d="M75.6265 92.6062C75.3752 88.6594 75.0298 84.3777 74.1923 82.5143C73.3652 80.6508 70.3398 77.5102 63.7759 77.2171C56.5524 76.8821 54.1446 80.0855 52.8151 82.8807C51.9357 84.7232 50.7004 88.9212 50.2607 92.8469C49.8524 96.4168 49.6116 99.6621 50.4073 101.934C51.517 104.185 54.197 107.713 58.6043 109.251C59.7454 109.534 60.8237 109.66 62.2684 109.66C68.8637 109.649 72.4126 107.105 74.5168 104.949C76.3384 103.085 75.8673 96.3749 75.6265 92.6062Z" fill="#D9EBF3"/>
<path d="M58.824 106.362C55.652 106.98 55.2018 107.441 55.2018 107.441C56.1963 108.152 57.327 108.781 58.6146 109.241C59.7557 109.524 60.834 109.649 62.2787 109.649C68.874 109.639 72.4229 107.095 74.5271 104.939C76.3487 103.075 75.8776 96.3751 75.6368 92.5959C75.3855 88.6492 75.0401 84.3675 74.2026 82.504C73.3755 80.6406 70.3501 77.5 63.7862 77.2068C56.5627 76.8718 54.1549 80.0753 52.8254 82.8704C52.794 82.9437 52.7521 83.0379 52.7207 83.1112C57.4526 85.4143 63.7652 86.8067 71.8576 87.1626C71.8576 87.1626 73.0301 96.5636 72.559 100.018C71.9727 104.289 69.9837 105.452 67.7748 106.331C65.168 107.367 61.1062 107.409 58.824 106.362Z" fill="#AFD7EA"/>
<path d="M91.5802 102.887C90.8474 98.1129 87.4869 91.9887 82.9853 86.9008C80.1169 83.666 77.6881 82.0747 75.72 81.3629C74.3486 80.8604 72.0036 80.6615 70.9881 82.7133C70.1716 84.3674 71.1452 85.9901 72.3909 87.2568C73.6367 88.5235 74.9663 89.7483 77.4159 93.0355C79.8447 96.2808 80.745 100.971 80.745 100.971C80.745 100.971 79.897 101.63 79.4259 102.635C78.9549 103.651 79.8761 105.012 79.8761 105.012C79.8761 105.012 79.3213 105.964 79.4888 107.022C79.6248 107.828 81.7605 109.367 83.0377 109.984C84.3148 110.602 89.2561 109.042 90.3658 107.943C91.4964 106.833 91.8942 104.918 91.5802 102.887Z" fill="#F26A21"/>
<path d="M82.9853 86.9008C80.1169 83.666 77.6881 82.0747 75.72 81.3629C74.3486 80.8604 72.0036 80.6615 70.9881 82.7133C70.1716 84.3674 71.1452 85.9901 72.3909 87.2568C72.9877 87.864 73.6053 88.4712 74.3591 89.2877C74.3591 89.2877 74.7255 88.1047 76.6308 87.3405C78.9758 86.4088 81.4569 87.5813 81.4569 87.5813C81.4569 87.5813 83.0272 88.5549 86.2411 93.4019C89.3922 98.1652 90.8788 104.384 89.6958 106.362C88.5128 108.341 83.7181 110.1 83.7181 110.1C85.5502 110.173 89.4027 108.885 90.3763 107.922C91.4964 106.823 91.8942 104.897 91.5802 102.866C90.8578 98.1129 87.4869 91.9887 82.9853 86.9008Z" fill="#C85627"/>
<path d="M87.9366 93.6741C86.7537 93.1611 85.152 93.1402 83.7491 93.6427C81.9695 94.2813 80.284 95.6527 79.6663 96.9718C79.6454 97.0241 79.6245 97.0764 79.6035 97.1393C79.7082 97.401 79.8024 97.6627 79.8862 97.9139C79.9071 97.6836 79.9699 97.4324 80.0851 97.1707C80.6504 95.9563 82.2207 94.6791 83.8957 94.0824C85.2462 93.6008 86.8793 93.6427 87.9471 94.1871L87.9576 94.1975C88.1355 94.2918 88.2716 94.3964 88.4077 94.5011C88.2612 94.2289 88.1041 93.9463 87.9366 93.6741Z" fill="#B53D26"/>
<path d="M86.6709 123.301C86.2626 122.097 85.2785 121.134 84.5771 120.579C83.9071 118.317 82.7032 115.606 81.4993 113.24C79.4893 109.304 77.9609 107.168 76.0242 104.562C74.1084 101.986 71.0306 101.128 69.052 102.175C66.4976 103.536 65.7334 106.226 67.0734 109.126C67.5549 110.162 69.6906 113.177 71.7529 117.176C72.737 119.092 73.4174 120.725 73.9827 122.139C73.8257 122.84 73.8257 123.437 73.8257 123.719C73.8257 124.546 74.2235 126.012 74.8621 126.473C75.5007 126.933 76.3696 126.954 76.3696 126.954C76.3696 126.954 77.3118 127.875 78.6309 128.42C79.9499 128.964 82.0437 129.048 83.2267 128.964C84.8284 128.849 86.3673 128.231 86.7442 127.677C87.121 127.122 87.2467 124.997 86.6709 123.301Z" fill="#F26A21"/>
<path d="M84.577 120.579C83.907 118.317 82.703 115.606 81.4991 113.24C79.4891 109.304 77.9607 107.168 76.024 104.562C74.7573 102.855 72.9776 101.923 71.3445 101.777C71.3445 101.777 73.4801 102.834 74.8724 104.635C76.2648 106.435 78.3899 109.44 78.8924 111.01C79.7509 113.659 80.1173 115.732 78.6516 116.601C74.0035 119.354 70.2871 114.486 70.2871 114.486C70.7687 115.323 71.2712 116.224 71.7632 117.187C72.7473 119.103 73.4277 120.736 73.993 122.149C73.836 122.85 73.836 123.447 73.836 123.73C73.836 124.557 74.2338 126.022 74.8724 126.483C75.511 126.944 76.3799 126.965 76.3799 126.965C76.3799 126.965 77.3221 127.886 78.6412 128.43C79.9602 128.975 82.054 129.058 83.237 128.975C84.8387 128.86 86.3776 128.242 86.7545 127.687C86.9534 127.394 87.079 126.64 87.0685 125.74C82.4623 128.409 78.3271 125.614 78.3271 125.614C78.3271 125.614 78.4527 120.307 84.577 120.579Z" fill="#C85627"/>
<path d="M53.5786 88.4295C56.9286 87.4559 64.0159 87.3302 68.5279 88.2934C69.1142 88.419 69.5539 88.9006 69.6062 89.4868C69.7737 91.099 69.9098 93.4649 69.9621 95.4959C69.9831 96.3334 69.2607 96.9824 68.4337 96.8777C63.8484 96.2601 58.0801 96.2391 53.589 97.0138C52.741 97.1604 51.9873 96.4904 52.0082 95.6424C52.0606 93.6638 52.2281 91.1409 52.6259 89.424C52.762 88.9529 53.1075 88.5656 53.5786 88.4295Z" fill="#28758F"/>
<path d="M49.9775 99.7879C49.9985 99.9763 50.0194 100.154 50.0508 100.332C54.0708 98.3746 70.5591 98.1652 75.7307 101.233C75.7516 101.044 75.7621 100.845 75.783 100.646C70.0252 97.4743 54.1755 97.9873 49.9775 99.7879Z" fill="#81B4CC"/>
<path d="M97.2028 50.6057C95.8838 70.6743 80.2225 82.975 61.5882 82.1271C48.0102 81.5094 38.6197 76.2646 34.9766 68.434C31.7731 61.5246 31.2497 53.2647 32.7886 44.2721C36.5364 22.3296 50.418 12.468 68.2044 14.2163C85.9908 15.9646 98.4696 31.3955 97.2028 50.6057Z" fill="#FDC99A"/>
<path d="M68.2038 14.2165C53.9244 12.8137 42.168 18.896 36.1484 32.7043C41.5398 39.4567 57.7245 43.4662 76.8195 46.722C76.8195 46.722 81.9911 54.1129 81.185 64.8748C80.0648 79.7823 68.9994 81.7504 68.9994 81.7504C84.2105 79.4787 96.0611 67.9421 97.2022 50.6059C98.4689 31.3957 85.9902 15.9648 68.2038 14.2165Z" fill="#EBAC7A"/>
<path d="M50.5011 61.0433C50.0928 65.168 46.9417 67.1047 43.3091 66.7487C39.6764 66.3928 37.5827 63.6186 37.7816 59.7242C37.9595 56.3533 39.5298 51.5691 43.5812 51.3283C48.7109 51.0247 50.8256 57.7666 50.5011 61.0433Z" fill="#FBF6F1"/>
<path d="M77.165 60.8757C77.0185 65.0213 73.993 67.1465 70.3499 67.0209C66.7068 66.8952 64.3827 64.812 64.2466 60.6663C64.1419 57.6095 65.8797 51.5271 71.2083 51.1607C76.9033 50.7734 77.2069 59.6718 77.165 60.8757Z" fill="#FBF6F1"/>
<path d="M32.3067 47.6327C33.5525 41.0374 34.4319 38.7447 37.0595 33.7093C37.0595 33.7093 43.1523 37.5932 54.804 38.7866C66.4558 39.9801 82.7765 35.5937 82.7765 35.5937C82.5986 39.2787 83.4151 43.508 85.31 46.4707C85.31 46.4707 84.0433 50.3022 83.9595 53.4952C83.8758 56.6882 84.6505 59.588 84.6505 59.588C84.6505 59.588 87.2153 48.6796 92.68 52.1447C97.4433 55.1702 92.3031 66.644 92.3031 66.644C92.3031 66.644 97.9667 61.1897 100.186 48.4283C102.688 34.0547 94.3236 28.789 94.3236 28.789C94.3236 28.789 92.7219 14.028 72.402 10.008C60.1431 7.57928 49.3708 12.6357 49.3708 12.6357C49.3708 12.6357 45.5497 13.9652 48.7636 6.07178C37.8133 6.81506 32.045 13.3266 31.4483 19.9638C30.8201 27.3233 34.0236 31.3015 34.0236 31.3015C34.0236 31.3015 32.1497 34.3688 31.4692 37.1849C30.1501 42.6601 32.3067 47.6327 32.3067 47.6327Z" fill="#C27637"/>
<path d="M46.4582 65.8571C48.499 65.7008 49.9955 63.513 49.8007 60.9707C49.6059 58.4283 47.7936 56.4941 45.7528 56.6505C43.712 56.8068 42.2155 58.9946 42.4103 61.5369C42.6051 64.0793 44.4174 66.0135 46.4582 65.8571Z" fill="#462C25"/>
<path d="M48.2189 59.8491C48.7413 59.5178 48.8611 58.7702 48.4864 58.1794C48.1117 57.5886 47.3844 57.3783 46.862 57.7096C46.3395 58.041 46.2198 58.7885 46.5945 59.3793C46.9692 59.9701 47.6965 60.1805 48.2189 59.8491Z" fill="white"/>
<path d="M72.3312 66.3153C74.3767 66.2423 75.9611 64.1173 75.8701 61.5691C75.7791 59.0209 74.0471 57.0144 72.0016 57.0874C69.9561 57.1605 68.3716 59.2855 68.4627 61.8337C68.5537 64.3819 70.2857 66.3884 72.3312 66.3153Z" fill="#462C25"/>
<path d="M74.2911 60.3677C74.8216 60.0608 74.9724 59.3293 74.6279 58.7337C74.2834 58.1382 73.5741 57.9041 73.0436 58.211C72.5131 58.5178 72.3623 59.2494 72.7068 59.8449C73.0513 60.4405 73.7606 60.6745 74.2911 60.3677Z" fill="white"/>
<path d="M49.8312 48.7948C50.1976 49.8731 49.381 51.8621 48.4703 52.1762C48.0829 52.3123 46.4393 51.1817 44.6596 50.7315C42.3251 50.1452 39.8859 50.1138 39.8126 49.7788C39.687 49.1821 42.5449 47.9468 45.0156 47.6432C47.4443 47.3501 49.6427 48.2609 49.8312 48.7948Z" fill="#845D25"/>
<path d="M65.0845 47.9784C64.7495 49.0672 65.6289 51.0353 66.5397 51.3179C66.9375 51.4436 68.5497 50.2711 70.3084 49.7686C72.6325 49.109 75.0612 49.0148 75.124 48.6798C75.2392 48.0831 72.3393 46.9315 69.8687 46.6908C67.419 46.4709 65.252 47.434 65.0845 47.9784Z" fill="#845D25"/>
<path d="M58.8453 66.9685C58.8243 67.4606 57.8298 68.3609 56.6468 68.319C55.4639 68.2771 54.5321 67.314 54.5531 66.822C54.574 66.3299 55.5371 66.1206 56.7306 66.1624C57.9135 66.2043 58.8662 66.487 58.8453 66.9685Z" fill="#EBB68D"/>
<path d="M100.196 48.4284C102.698 34.0548 94.3336 28.789 94.3336 28.789C94.3336 28.789 92.8994 15.6717 75.7097 10.8037C75.7097 10.8037 86.2936 15.4623 83.9905 22.8009C81.6873 30.15 62.027 39.7079 40.7545 30.9456C34.4733 28.3703 31.4059 21.1573 31.4059 21.1573C31.1651 27.7526 34.0231 31.3015 34.0231 31.3015C34.0231 31.3015 32.1492 34.3689 31.4687 37.185C30.1497 42.6601 32.3167 47.6328 32.3167 47.6328C33.5625 41.0375 34.4419 38.7448 37.0695 33.7093C37.0695 33.7093 43.1623 37.5932 54.814 38.7867C66.4658 39.9801 82.7865 35.5937 82.7865 35.5937C82.6086 39.2787 83.4251 43.5081 85.32 46.4707C85.32 46.4707 84.0533 50.3023 83.9695 53.4953C83.8858 56.6882 84.6605 59.5776 84.6605 59.5776C84.6605 59.5776 87.2253 48.6692 92.69 52.1343C97.4533 55.1598 92.3131 66.6335 92.3131 66.6335C92.3131 66.6335 97.9767 61.2003 100.196 48.4284Z" fill="#874F21"/>
<path d="M99.0525 60.4539C100.095 56.2925 98.1675 52.224 94.7465 51.3667C91.3254 50.5093 87.7067 53.1877 86.6637 57.349C85.6208 61.5104 87.5487 65.5788 90.9698 66.4362C94.3908 67.2936 98.0096 64.6152 99.0525 60.4539Z" fill="#EBAC7A"/>
<path d="M95.8937 59.8391C95.2551 62.4039 93.0148 64.058 90.9001 63.5345C89.4659 63.1786 88.6284 62.5505 88.3248 60.9697C88.1887 60.2264 89.3193 59.9647 89.581 58.5724C89.8428 57.1905 88.7645 56.6042 88.8901 56.2378C89.3612 54.8245 91.434 53.7881 93.2242 54.2383C95.3493 54.7513 96.5428 57.2638 95.8937 59.8391Z" fill="#D8976E"/>
<path d="M57.2955 74.5792C57.1699 74.5792 57.0338 74.5164 56.95 74.4013C56.8139 74.2128 56.8558 73.9511 57.0442 73.815C57.2013 73.6999 60.991 71.0408 66.3195 72.1191C66.5499 72.161 66.6964 72.3808 66.6441 72.6111C66.6022 72.8414 66.3824 72.988 66.1521 72.9357C61.1899 71.9307 57.5677 74.4746 57.5258 74.4955C57.463 74.5583 57.3792 74.5792 57.2955 74.5792Z" fill="#A97556"/>
<path d="M61.5039 2.11452C37.499 2.73218 19.1368 19.0006 19.8068 42.8798C20.592 70.7162 39.0903 83.3834 61.7656 82.8914C85.7704 82.3784 107.252 70.5487 105.766 42.6286C104.489 18.6447 89.3298 1.40264 61.5039 2.11452ZM82.3681 76.6101C76.5579 79.6251 73.0823 80.7244 61.1165 81.007C47.1721 81.342 37.8445 75.8669 32.3065 69.8055C27.9934 65.084 24.8423 56.1647 24.4235 48.3655C24.0048 40.5767 25.5542 35.3842 28.4959 31.0397C31.5842 26.4858 40.9537 19.7858 59.5567 19.9533C78.7354 20.1208 86.7754 26.0775 90.5651 31.3119C93.5906 35.4784 97.4117 42.6809 96.1031 54.7514C94.7526 67.115 87.0057 74.2128 82.3681 76.6101Z" fill="#D9EBF3"/>
<path d="M44.1778 25.6798C44.6698 27.1559 40.3253 29.5428 36.8078 32.8195C33.4055 35.981 31.7723 39.017 29.2494 37.342C27.4069 36.1171 29.8251 31.3225 33.7928 28.2342C38.2839 24.7271 43.602 23.9629 44.1778 25.6798Z" fill="white"/>
<path d="M30.588 43.6694C30.8502 41.727 30.0131 40.0107 28.7182 39.8359C27.4232 39.661 26.1609 41.0939 25.8987 43.0363C25.6364 44.9786 26.4736 46.695 27.7685 46.8698C29.0634 47.0446 30.3257 45.6117 30.588 43.6694Z" fill="white"/>
<path d="M52.0508 6.57435C53.4117 8.54247 50.8783 10.2803 46.6594 11.5679C42.0636 12.9603 35.8766 14.1118 35.4055 13.0336C34.9344 11.9553 38.1274 9.52654 42.5242 7.61076C46.9211 5.69497 51.1295 5.23435 52.0508 6.57435Z" fill="white"/>
<path d="M83.1005 6.04053C83.1005 6.04053 86.0841 7.97725 86.953 12.8347C88.1464 19.5138 82.3048 24.4551 82.3048 24.4551C86.3144 26.5069 88.8688 28.988 90.5647 31.3226C93.5902 35.4891 97.4113 42.6916 96.1027 54.7621C94.7522 67.1257 86.9948 74.2235 82.3677 76.6208C76.5575 79.6358 73.0819 80.7351 61.1161 81.0177C47.1717 81.3527 37.8441 75.8776 32.3061 69.8162C31.5105 68.9472 30.7567 67.9422 30.0553 66.8221L24.957 63.9222C32.0967 77.1338 45.905 83.2371 61.7652 82.8916C85.77 82.3787 107.252 70.549 105.765 42.6288C104.875 25.8474 97.1705 12.3741 83.1005 6.04053Z" fill="#99CAE0"/>
<path d="M58.8449 76.6207C58.4052 76.1914 57.7352 75.8146 56.8034 76.1914C55.9136 76.5474 53.7256 77.6152 52.5008 78.191C51.2759 78.7668 49.3497 79.0703 49.3497 79.0703C49.3497 79.0703 47.6956 77.7094 46.9 77.2383C46.1044 76.7672 45.2041 76.1914 44.4189 76.1914C43.6338 76.1914 42.9114 76.7149 43.037 77.4686C43.1627 78.2119 44.9214 79.2588 44.9214 79.2588L45.8008 81.0385L45.5914 82.5983L44.7016 85.5505C43.8013 87.1103 42.8067 89.1413 42.4089 91.0257C42.032 92.8472 42.6288 94.0197 43.9792 94.8782C45.3297 95.7366 47.5281 95.4016 48.6692 94.4699C50.92 92.6064 52.6159 89.0052 52.6159 89.0052L52.6055 88.9424C53.5267 88.5132 56.3219 86.4089 56.7197 85.9797C57.1908 85.4668 57.1594 83.0694 56.7197 82.19C56.28 81.3107 55.1703 80.8919 55.1703 80.8919C55.1703 80.8919 58.0283 78.861 58.6355 78.5679C59.4206 78.1386 59.295 77.0499 58.8449 76.6207Z" fill="#F26A21"/>
<path d="M43.9687 94.8674C45.3191 95.7259 47.5176 95.3909 48.6587 94.4592C50.9094 92.5957 52.6054 88.9945 52.6054 88.9945L52.5949 88.9317C53.5162 88.5024 56.3113 86.3982 56.7091 85.969C57.1802 85.456 57.1488 83.0587 56.7091 82.1793C56.2694 81.2999 55.1597 80.8812 55.1597 80.8812C55.1597 80.8812 58.0177 78.8503 58.6249 78.5571C58.9704 78.3896 59.1379 78.086 59.1902 77.772L53.4638 81.1638C53.4638 81.1638 53.7151 82.7446 53.4324 83.8648C53.1497 84.9849 50.5116 87.3509 50.5116 87.3509C50.5116 87.3509 47.5908 93.4123 45.8635 94.187C44.1362 94.9617 42.3146 92.0304 42.3146 92.0304C42.3041 93.2867 42.8904 94.187 43.9687 94.8674Z" fill="#C85627"/>
<path d="M45.9473 90.5652C44.712 89.6334 43.9269 88.3248 43.8327 87.1523C43.707 87.4141 43.5709 87.6758 43.4453 87.948C43.7489 89.0367 44.5131 90.1359 45.6228 90.9734C46.7639 91.8319 48.062 92.2716 49.3497 92.2716C49.8208 92.2716 50.2919 92.2087 50.7525 92.0831C50.92 91.8423 51.0875 91.6016 51.2341 91.3712C49.5277 92.0727 47.5595 91.7795 45.9473 90.5652Z" fill="#B53D26"/>
<path d="M79.6264 116.025C80.7502 115.581 81.2218 114.109 80.6798 112.738C80.1379 111.367 78.7875 110.616 77.6637 111.06C76.5399 111.504 76.0683 112.976 76.6102 114.347C77.1522 115.718 78.5026 116.469 79.6264 116.025Z" fill="#D9EBF3"/>
<path d="M81.9385 114.141C81.9385 114.591 81.792 116.35 79.583 117.512C75.7934 119.511 72.9249 118.161 71.9199 117.532C72.056 117.805 72.1816 118.066 72.3073 118.318C73.082 118.684 74.2335 119.071 75.6573 119.071C76.8716 119.071 78.2849 118.789 79.8238 117.983C81.5302 117.082 82.1374 115.847 82.3468 114.989C82.2107 114.695 82.0746 114.423 81.9385 114.141Z" fill="#B53D26"/>
<path d="M44.4813 93.7579C45.413 94.3651 46.0202 94.9409 45.8108 95.2445C45.6014 95.5481 44.5546 95.5062 43.6229 94.8886C42.6911 94.2814 42.2514 93.3392 42.4504 93.0251C42.6493 92.7111 43.5496 93.1507 44.4813 93.7579Z" fill="#AFD7EA"/>
<path d="M50.9726 118.077C48.7323 118.14 45.7487 117.752 44.3773 116.475C44.3563 116.695 44.3354 116.904 44.3145 117.114C45.7696 118.202 48.2926 118.611 50.4701 118.611C50.648 118.611 50.8155 118.611 50.983 118.6C52.4382 118.558 54.1341 118.318 55.202 117.784C55.2334 117.564 55.2648 117.344 55.3066 117.124C54.5529 117.648 52.8988 118.024 50.9726 118.077Z" fill="#B53D26"/>
<path d="M55.6832 126.337C55.746 126.117 55.8088 125.887 55.8402 125.656C54.8771 126.18 53.8302 126.4 52.4693 126.337L52.3436 126.326L52.2599 126.421C51.9354 126.787 51.1816 127.321 50.1033 127.645C50.0929 126.347 49.6846 124.599 48.5121 123.542C47.4547 122.589 45.3714 122.087 43.4871 122.505C43.2777 122.704 43.0683 122.945 42.8694 123.238C44.8271 122.474 47.193 123.071 48.1666 123.939C49.1925 124.861 49.6113 126.494 49.5904 127.782C49.2658 127.844 48.9308 127.897 48.5644 127.907C44.7119 128.054 42.5868 126.703 42.0947 126.347C42.1052 126.588 42.1261 126.787 42.1575 126.975C42.9113 127.467 44.7852 128.452 47.9991 128.452C48.1875 128.452 48.3864 128.452 48.5854 128.441C50.8989 128.357 52.218 127.237 52.5739 126.881C53.7674 126.902 54.7829 126.735 55.6832 126.337Z" fill="#B53D26"/>
<path d="M87.0689 126.075C85.8545 127.394 82.9337 127.959 80.683 127.572C80.2537 127.499 79.8873 127.394 79.5314 127.289C79.5419 126.63 79.6989 124.149 81.353 122.914C82.5255 122.045 84.1167 121.971 85.2055 122.202C85.6347 122.296 86.022 122.432 86.3361 122.599C86.1791 122.327 86.0116 122.076 85.8231 121.835C85.6556 121.783 85.4881 121.731 85.3102 121.689C83.7503 121.364 82.1486 121.668 81.0389 122.495C79.1127 123.929 79.0289 126.536 79.0289 127.132C77.6156 126.619 76.9247 125.949 76.9142 125.939L76.8305 125.855L76.7153 125.866C76.7048 125.866 75.5114 125.929 74.0039 124.882C74.0772 125.154 74.1714 125.426 74.2761 125.677C75.4172 126.316 76.3175 126.389 76.6316 126.389C76.9666 126.682 78.2438 127.677 80.5888 128.085C81.0913 128.169 81.6147 128.211 82.1591 128.211C83.9597 128.211 85.8441 127.729 87.0166 126.818C87.0375 126.599 87.0584 126.347 87.0689 126.075Z" fill="#B53D26"/>
<path d="M57.7036 100.678C55.6308 99.2016 52.0714 99.3167 50.7419 101.055C50.0405 101.976 49.1611 103.389 48.1143 105.546C52.6472 105.252 56.6358 109.084 57.8921 110.435C58.3841 109.838 59.075 108.979 59.4205 108.173C60.3941 105.922 60.0696 102.363 57.7036 100.678Z" fill="#D9EBF3"/>
<path d="M57.2225 105.389C55.7987 106.446 54.9717 107.87 54.9717 107.87C56.3221 108.833 57.3586 109.848 57.882 110.424C58.374 109.827 59.065 108.969 59.4104 108.163C59.5989 107.723 59.735 107.231 59.8187 106.718C59.0231 106.519 57.9657 106.048 57.2225 105.389Z" fill="#AFD7EA"/>
<path d="M76.5374 105.263C76.2966 104.75 73.0722 100.07 68.958 102.007C64.0168 104.331 67.1678 109.566 67.6494 110.152C68.0682 109 68.9789 107.315 70.9471 106.142C73.2292 104.792 75.3544 104.98 76.5374 105.263Z" fill="#D9EBF3"/>
<path d="M75.2283 105.085C75.7308 105.116 76.181 105.19 76.5369 105.273C76.3694 104.918 74.7782 102.573 72.4541 101.798C73.501 102.824 74.4432 103.913 75.2283 105.085Z" fill="#AFD7EA"/>
<path d="M101.212 23.7956C100.552 23.7538 100.081 23.157 100.165 22.508C100.573 19.2731 101.453 16.9386 102.793 15.452C104.311 13.7875 106.111 12.9814 108.174 13.0024C110.257 13.0338 112.298 13.6305 114.319 14.8449C116.339 16.0592 117.993 17.5772 119.323 19.4197C120.663 21.2727 121.343 23.1989 121.364 25.188C121.385 27.1666 120.443 28.9672 118.538 30.5898C116.632 32.2125 109.985 33.7095 109.336 34.3691C108.686 35.0286 108.55 37.4364 107.556 38.253C106.561 39.08 103.023 38.9753 102.395 38.0436C101.756 37.1119 103.295 31.6053 104.112 30.6527C104.939 29.7 106.739 29.3231 108.226 28.9463C109.723 28.5484 111.052 27.9099 112.225 26.9886C113.691 25.6277 114.329 24.3714 114.12 23.2199C113.91 22.0578 113.23 21.1889 112.078 20.6445C110.937 20.0792 109.691 20.0269 108.32 20.498C107.137 20.8958 106.143 21.838 105.347 23.3455C105.138 23.7433 104.719 24.005 104.269 23.9736L101.212 23.7956ZM107.88 42.0322C108.582 42.8592 108.885 43.8224 108.77 44.8902C108.655 45.958 108.163 46.8373 107.315 47.4969C106.457 48.1773 105.462 48.46 104.342 48.3449C103.222 48.2297 102.301 47.7481 101.578 46.9106C100.877 46.0836 100.573 45.1205 100.688 44.0527C100.804 42.9849 101.296 42.1055 102.144 41.4459C103.023 40.7655 104.017 40.4828 105.138 40.598C106.258 40.7131 107.179 41.1947 107.88 42.0322Z" fill="#28758F"/>
</svg>
