<svg width="161" height="161" viewBox="0 0 161 161" fill="none" xmlns="http://www.w3.org/2000/svg">
<path d="M127.782 55.4066C127.782 77.7327 110.788 94.9899 81.5192 94.9899C52.2499 94.9899 35.2568 77.7453 35.2568 55.4066C35.2568 33.0678 55.973 14.9805 81.5192 14.9805C107.065 14.9805 127.782 33.0804 127.782 55.4066Z" fill="#4B636B"/>
<path opacity="0.2" d="M80.5 158.484C102.729 158.484 120.75 155.669 120.75 152.195C120.75 148.722 102.729 145.906 80.5 145.906C58.2705 145.906 40.25 148.722 40.25 152.195C40.25 155.669 58.2705 158.484 80.5 158.484Z" fill="#0E2F3D"/>
<path d="M52.036 106.046C49.9228 105.556 48.3883 104.751 47.2185 103.141C44.1746 98.9394 42.7785 90.663 44.552 83.3803C44.9545 81.7325 45.9607 77.5189 50.8285 78.588C54.1491 79.3175 54.0736 81.9338 53.7214 84.9903C53.3692 88.0468 54.1994 94.2603 55.2182 95.8578C57.6835 95.7949 63.6959 93.5686 68.2114 91.5561C70.6013 90.4869 73.8087 91.6944 74.8653 94.0968C75.9218 96.4867 74.8275 99.2916 72.4377 100.336C71.7207 100.65 70.9786 100.99 70.2113 101.342C65.0543 103.694 56.2119 107.015 52.036 106.046Z" fill="#C85627"/>
<path d="M61.8716 95.7823C60.3371 95.5685 59.3434 94.9521 59.3434 94.9521C57.6328 95.4804 56.1611 95.82 55.2178 95.8452C55.2178 95.8452 55.4442 96.3357 56.1234 96.9395C56.6139 97.3923 61.2301 96.1722 61.8716 95.7823Z" fill="#F26A21"/>
<path d="M54.8782 105.656C54.7147 106.423 53.2179 106.75 51.5198 106.398C49.8218 106.046 48.5891 105.14 48.74 104.373C48.9036 103.606 50.2872 103.568 52.0607 104.059C53.7336 104.524 55.0417 104.901 54.8782 105.656Z" fill="#AFD7EA"/>
<path d="M68.1988 91.556C66.8781 92.1471 65.419 92.7509 63.96 93.3169C65.7461 95.9457 65.0668 101.908 64.8404 103.555C66.8026 102.826 68.6642 102.034 70.1987 101.342C70.9534 101.002 71.6955 100.663 72.425 100.335C74.8149 99.2789 75.9092 96.4866 74.8526 94.0967C73.7961 91.6943 70.5886 90.4868 68.1988 91.556Z" fill="#AFD7EA"/>
<path d="M117.429 114.649C115.844 110.926 111.706 104.474 107.103 100.172C101.656 95.0779 97.1785 91.6441 92.7635 90.8642C92.7258 90.8642 92.7007 90.8642 92.6629 90.8517C90.7133 88.7385 89.2039 86.5122 80.8772 86.5122C72.5505 86.5122 68.4123 91.1032 67.406 93.3673C66.3998 95.6314 65.1797 101.505 64.8778 106.31C64.576 110.901 64.3999 113.618 64.6766 117.945V117.958C63.3685 123.152 62.3496 129.932 62.0352 133.844C61.5446 140.007 61.6075 143.554 61.6075 143.554C61.6075 143.554 58.1989 146.233 57.4945 148.585C56.7901 150.937 57.3436 152.824 57.6454 153.264C57.9599 153.705 58.6894 154.686 61.4818 155.34C63.771 155.881 65.8841 155.78 67.8966 155.34C69.2802 155.038 71.104 153.604 71.104 153.604C71.104 153.604 73.8964 153.491 74.9403 152.661C75.5818 152.145 75.7202 151.113 75.6699 149.126C75.6321 147.604 75.2925 145.944 75.28 145.529C75.2674 145.101 75.2422 139.906 75.7579 136.284C76.085 133.969 77.2925 130.347 77.8585 126.687C78.8144 126.775 79.8081 126.825 80.8898 126.825C81.9589 126.825 82.9652 126.762 83.9211 126.687C84.4997 130.347 85.6946 133.969 86.0217 136.284C86.5374 139.906 86.5248 145.101 86.4996 145.529C86.4871 145.956 86.1475 147.617 86.1097 149.126C86.0594 151.113 86.1978 152.145 86.8393 152.661C87.8832 153.491 90.6756 153.604 90.6756 153.604C90.6756 153.604 92.4994 155.038 93.883 155.34C95.8955 155.78 98.0086 155.881 100.298 155.34C103.078 154.673 103.82 153.705 104.134 153.264C104.449 152.824 105.002 150.937 104.285 148.585C103.581 146.233 100.172 143.554 100.172 143.554C100.172 143.554 100.235 140.02 99.7444 133.844C99.43 129.932 98.4111 123.152 97.103 117.958V117.945C97.3797 113.631 97.2036 110.914 96.9018 106.31C96.864 105.706 96.8137 105.103 96.7508 104.474C97.669 105.342 98.6878 106.398 99.9079 107.794C101.82 109.983 103.719 113.316 104.914 115.392C104.386 116.687 102.751 118.662 103.48 120.599C103.945 121.819 105.681 122.196 105.681 122.196C105.681 122.196 104.763 123.504 105.744 125.416C106.461 126.813 110.687 127.278 112.373 126.926C114.058 126.561 117.278 123.115 118.234 121.014C119.178 118.913 117.995 116.008 117.429 114.649Z" fill="#F26A21"/>
<path d="M100.172 143.542C100.172 143.542 100.235 140.007 99.7442 133.831C99.4297 129.92 98.4109 123.14 97.1028 117.945V117.933L93.845 118.964C93.845 118.964 95.8324 120.524 97.0022 128.8C97.8197 134.536 97.6814 138.41 97.6814 138.41C97.6814 138.41 98.0084 140.309 98.0084 143.479C99.8825 144.259 101.103 145.202 102.436 147.152C103.694 148.988 103.656 151.881 103.216 152.522C102.776 153.164 99.1153 154.334 96.0965 154.044C93.0778 153.755 91.342 152.283 91.342 152.283C89.2289 152.183 87.3044 151.868 86.1221 150.648C86.185 151.655 86.3862 152.271 86.839 152.636C87.883 153.466 90.6753 153.579 90.6753 153.579C90.6753 153.579 92.4992 155.013 93.8828 155.315C95.8953 155.755 98.0084 155.856 100.298 155.315C103.077 154.648 103.819 153.68 104.134 153.239C104.448 152.799 105.002 150.912 104.285 148.56C103.568 146.221 100.172 143.542 100.172 143.542Z" fill="#C85627"/>
<path d="M107.103 100.172C101.656 95.0778 97.1786 91.644 92.7636 90.8641C92.7259 90.8641 92.7007 90.8641 92.663 90.8516C90.3361 97.7821 94.6629 103.555 94.6629 103.555L96.8138 105.228C96.7886 104.977 96.7761 104.738 96.7509 104.474C97.0528 104.763 97.3798 105.09 97.7068 105.417C97.7068 105.417 94.4239 100.512 96.3861 98.4487C97.6817 97.0777 101.116 98.2475 103.203 99.7946C105.279 101.342 108.587 104.398 111.128 108.209C114.297 112.951 116.574 118.448 116.511 119.643C116.335 122.926 112.662 126.812 112.662 126.812C114.411 126.158 117.316 122.976 118.222 121.001C119.178 118.901 117.995 115.995 117.417 114.637C115.832 110.926 111.706 104.474 107.103 100.172Z" fill="#C85627"/>
<path d="M84.7644 123.504L81.1419 124.284L76.0352 124.901C75.6201 129.856 73.9723 136.133 72.7271 138.925C72.7271 138.925 74.2113 143.655 73.4566 151.705C71.6077 152.623 70.5008 152.296 70.5008 152.296C70.5008 152.296 67.5827 154.962 61.3816 153.73C57.7088 153 57.168 151.39 57.168 151.39C57.2434 152.333 57.4698 153.013 57.6459 153.252C57.9604 153.692 58.6899 154.673 61.4823 155.327C63.7715 155.868 65.8846 155.767 67.8971 155.327C69.2807 155.025 71.1045 153.591 71.1045 153.591C71.1045 153.591 73.8969 153.478 74.9409 152.648C75.5823 152.132 75.7207 151.101 75.6704 149.113C75.6327 147.592 75.293 145.931 75.2805 145.516C75.2679 145.088 75.2427 139.894 75.7584 136.271C76.0855 133.957 77.293 130.334 77.859 126.674C78.8149 126.762 79.8086 126.812 80.8903 126.812C81.9594 126.812 82.9657 126.75 83.9216 126.674C84.3493 129.404 85.1291 132.095 85.6323 134.259C85.6323 134.259 85.0788 131.303 85.192 128.611C85.2675 126.863 85.6323 125.856 85.6323 125.856L84.7644 123.504Z" fill="#C85627"/>
<path d="M97.8078 92.8139C96.0846 91.8328 94.4243 91.1661 92.764 90.8642C92.7263 90.8642 92.7011 90.8642 92.6634 90.8517C90.7137 88.7385 89.2044 86.5122 80.8777 86.5122C72.5509 86.5122 68.4127 91.1032 67.4065 93.3673C66.4002 95.6314 65.1802 101.505 64.8783 106.31C64.5764 110.901 64.4003 113.618 64.677 117.945V117.958C64.1865 119.932 63.7337 122.121 63.3438 124.309C64.2997 124.184 66.3248 124.045 68.7901 124.586C74.5634 125.857 77.1168 130.309 77.1294 130.334C77.4061 129.152 77.6828 127.907 77.8715 126.674C78.8274 126.762 79.8211 126.813 80.9028 126.813C81.972 126.813 82.9782 126.75 83.9341 126.674C84.1228 127.919 84.3995 129.152 84.6763 130.334C84.6888 130.272 85.3932 126.938 91.1288 125.442C94.4495 124.574 97.0657 124.863 98.6128 125.215C98.1852 122.737 97.682 120.196 97.116 117.945V117.932C97.3927 113.618 97.2166 110.901 96.9148 106.298C96.877 105.694 96.8267 105.09 96.7638 104.461C92.1225 97.0401 95.745 92.8893 97.8078 92.8139Z" fill="#D9EBF3"/>
<path d="M96.1348 124.901C97.1159 124.951 97.9586 125.077 98.6001 125.228C98.1725 122.75 97.6693 120.209 97.1033 117.958V117.945C97.38 113.631 97.204 110.914 96.9021 106.31C96.8643 105.706 96.814 105.103 96.7511 104.474C92.1224 97.0401 95.7575 92.8893 97.8077 92.8139C96.0845 91.8328 94.4242 91.1661 92.7639 90.8642C92.7261 90.8642 92.701 90.8642 92.6632 90.8517C90.7136 88.7385 89.2043 86.5122 80.8775 86.5122C72.5508 86.5122 68.4126 91.1032 67.4064 93.3673C66.7649 94.8012 66.0479 97.669 65.5322 100.788C66.2743 98.4992 66.8278 96.7256 67.6202 95.3421C79.1292 99.0526 92.4243 97.5306 92.4243 97.5306C92.4243 97.5306 93.4557 101.115 93.9588 109.178C94.2607 114.058 93.3173 116.222 93.3173 116.222C94.3613 117.907 95.3801 120.574 96.1348 124.901Z" fill="#AFD7EA"/>
<path d="M51.0677 66.9533C52.7531 71.2802 53.0298 75.758 50.3381 76.8523C47.6464 77.9466 44.0616 75.3429 42.3133 71.0412C40.5649 66.7395 41.3196 62.3749 43.9987 61.2806C46.6779 60.1863 49.3067 62.4252 51.0677 66.9533Z" fill="#FDC99A"/>
<path d="M44.9671 69.7709C45.7972 72.3368 47.2814 74.1481 48.2751 73.8336C48.6525 73.7078 48.904 73.3053 49.0172 72.7142C49.143 72.0978 48.5518 72.2236 48.1871 70.6639C47.9481 69.6577 48.7531 69.2049 48.5644 68.6011C47.7343 66.0352 46.25 64.2239 45.2564 64.5384C44.2627 64.8528 44.1369 67.205 44.9671 69.7709Z" fill="#EFB082"/>
<path d="M110.701 66.9533C109.016 71.2802 108.739 75.758 111.431 76.8523C114.122 77.9466 117.707 75.3429 119.455 71.0412C121.204 66.7395 120.449 62.3749 117.77 61.2806C115.091 60.1863 112.462 62.4252 110.701 66.9533Z" fill="#EBAC7A"/>
<path d="M116.802 69.7709C115.972 72.3368 114.487 74.1481 113.494 73.8336C113.116 73.7078 112.865 73.3053 112.752 72.7142C112.626 72.0978 113.217 72.2236 113.582 70.6639C113.821 69.6577 113.016 69.2049 113.204 68.6011C114.035 66.0352 115.519 64.2239 116.512 64.5384C117.506 64.8528 117.632 67.205 116.802 69.7709Z" fill="#D8976E"/>
<path d="M30.3386 57.8847C30.3386 57.8847 27.3953 58.1237 25.257 58.1237C23.1188 58.1237 21.3578 57.457 21.1943 56.1867C21.0056 54.6521 22.9552 53.4698 25.0684 53.8597C28.3135 54.4509 30.3386 57.8847 30.3386 57.8847Z" fill="#67C8F2"/>
<path d="M21.1945 71.7204C18.8424 72.0978 17.7858 73.1795 16.0626 75.0285C14.6036 76.5882 12.6162 76.6385 11.6729 75.8712C10.5031 74.9153 9.99998 72.3996 12.8804 70.5632C15.9746 68.601 20.6914 70.4878 21.1945 71.7204Z" fill="#67C8F2"/>
<path d="M134.838 72.5382C137.19 72.9156 138.247 73.9973 139.97 75.8463C141.429 77.4059 143.416 77.4563 144.36 76.689C145.529 75.7331 146.032 73.2174 143.152 71.381C140.058 69.4188 135.341 71.3181 134.838 72.5382Z" fill="#67C8F2"/>
<path d="M80.8902 92.4242C85.607 92.4242 89.4307 91.5175 89.4307 90.3991C89.4307 89.2807 85.607 88.374 80.8902 88.374C76.1733 88.374 72.3496 89.2807 72.3496 90.3991C72.3496 91.5175 76.1733 92.4242 80.8902 92.4242Z" fill="#28758F"/>
<path d="M69.0178 134.866C69.1777 133.165 67.8104 131.645 65.9638 131.471C64.1172 131.298 62.4906 132.536 62.3306 134.238C62.1707 135.939 63.538 137.459 65.3846 137.633C67.2312 137.806 68.8578 136.568 69.0178 134.866Z" fill="#D9EBF3"/>
<path d="M67.2807 131.856C67.4694 132.083 67.6329 132.334 67.7335 132.624C68.2618 134.095 67.3687 135.768 65.721 136.359C64.6393 136.749 63.5198 136.561 62.7148 135.969C63.2305 136.863 64.2116 137.517 65.3814 137.63C67.2304 137.806 68.853 136.561 69.0165 134.863C69.1297 133.605 68.4127 132.448 67.2807 131.856Z" fill="#AFD7EA"/>
<path d="M68.6643 138.925C65.5827 138.774 62.9664 137.856 61.8218 136.573C61.8092 136.863 61.7841 137.127 61.7715 137.403C63.3815 138.787 66.2493 139.428 68.6266 139.542C68.9159 139.554 69.2052 139.567 69.507 139.567C71.5824 139.567 73.9094 139.189 75.5194 138.196C75.5445 137.932 75.5697 137.68 75.5948 137.416C74.1735 138.498 71.6076 139.064 68.6643 138.925Z" fill="#B53D26"/>
<path d="M73.7709 152.045C74.601 151.78 75.2173 151.403 75.6073 151.089C75.645 150.837 75.6576 150.548 75.6702 150.221C75.6702 150.221 75.6576 150.221 75.6576 150.233C75.645 150.246 74.9532 151.038 73.5948 151.466C72.3369 151.856 70.4754 152.019 70.4502 152.019C70.3873 152.019 70.337 152.045 70.2867 152.082C70.2616 152.095 68.0227 153.743 65.2303 153.755C65.2052 153.755 65.18 153.755 65.1548 153.755C59.6205 153.755 57.5954 151.441 57.1426 150.824C57.1426 151.202 57.1677 151.529 57.2055 151.843C58.2369 152.862 60.5387 154.371 65.1423 154.371C65.1674 154.371 65.1926 154.371 65.2177 154.371C67.9598 154.359 70.1358 152.938 70.5634 152.636C70.9659 152.585 72.5885 152.422 73.7709 152.045Z" fill="#B53D26"/>
<path d="M61.9725 145.089C61.092 145.038 60.2744 145.202 59.5575 145.441C59.2682 145.755 58.9789 146.082 58.7021 146.435C59.5071 146.032 60.6518 145.63 61.9347 145.705C65.2554 145.894 67.2301 147.906 67.9219 149.579C68.5634 151.139 68.576 153.202 68.576 153.227H69.1923C69.1923 153.139 69.1797 151.026 68.5005 149.353C67.7458 147.491 65.5824 145.277 61.9725 145.089Z" fill="#B53D26"/>
<path d="M96.3886 137.625C98.2352 137.451 99.6026 135.931 99.4426 134.23C99.2826 132.528 97.656 131.29 95.8094 131.463C93.9628 131.637 92.5955 133.157 92.7554 134.858C92.9154 136.56 94.542 137.798 96.3886 137.625Z" fill="#D9EBF3"/>
<path d="M96.8516 131.529C97.3798 132.02 97.7446 132.661 97.8075 133.403C97.971 135.101 96.6 136.623 94.751 136.8C94.3863 136.837 94.0466 136.8 93.707 136.737C94.3863 137.366 95.3422 137.718 96.3736 137.63C98.2226 137.454 99.581 135.932 99.4301 134.234C99.3043 132.863 98.2226 131.806 96.8516 131.529Z" fill="#AFD7EA"/>
<path d="M99.9331 136.573C98.8011 137.856 96.1848 138.774 93.0906 138.925C90.1473 139.089 87.5939 138.51 86.1475 137.416C86.1726 137.668 86.1978 137.932 86.2229 138.196C87.8329 139.189 90.1599 139.567 92.2353 139.567C92.5372 139.567 92.8264 139.554 93.1157 139.542C95.493 139.416 98.3608 138.787 99.9708 137.403C99.9708 137.127 99.9582 136.85 99.9331 136.573Z" fill="#B53D26"/>
<path d="M104.624 150.812C104.184 151.428 102.146 153.743 96.6121 153.743C96.587 153.743 96.5618 153.743 96.5366 153.743C93.7443 153.73 91.4928 152.095 91.4802 152.07C91.4299 152.032 91.3796 152.019 91.3293 152.007C91.3041 152.007 89.4426 151.856 88.1848 151.453C86.8389 151.038 86.1345 150.233 86.122 150.221H86.1094C86.122 150.548 86.1345 150.837 86.1723 151.089C86.5622 151.39 87.1659 151.78 88.0087 152.045C89.191 152.409 90.801 152.573 91.2035 152.611C91.6312 152.912 93.8198 154.334 96.5492 154.346C96.5744 154.346 96.5995 154.346 96.6247 154.346C101.228 154.346 103.543 152.824 104.561 151.806C104.599 151.516 104.624 151.177 104.624 150.812Z" fill="#B53D26"/>
<path d="M99.8328 145.693C101.128 145.617 102.26 146.02 103.065 146.422C102.864 146.158 102.638 145.906 102.424 145.667C101.719 145.277 100.676 145.026 99.795 145.076C96.1851 145.277 94.0217 147.491 93.267 149.328C92.5752 151.001 92.5752 153.114 92.5752 153.202H93.1915C93.1915 153.177 93.2041 151.114 93.8456 149.554C94.5248 147.894 96.5122 145.881 99.8328 145.693Z" fill="#B53D26"/>
<path d="M90.5752 102.675C90.5375 101.958 89.9086 101.417 89.1916 101.518C87.4432 101.744 84.1603 102.084 80.5001 102.084C76.8399 102.084 73.5444 101.744 71.8086 101.518C71.0917 101.43 70.4628 101.958 70.425 102.675L69.9848 110.901C69.9471 111.518 70.3621 112.058 70.9659 112.184C72.4753 112.486 75.645 112.951 80.4875 112.951C85.3301 112.951 88.4998 112.486 90.0092 112.184C90.6129 112.071 91.028 111.518 90.9903 110.901L90.5752 102.675Z" fill="#28758F"/>
<path d="M64.5381 114.763C64.5381 114.989 64.5381 115.203 64.5507 115.429C66.4625 116.046 72.4371 117.719 80.8896 117.719C89.3421 117.719 95.3168 116.046 97.2286 115.442C97.2286 115.216 97.2412 114.989 97.2412 114.775C95.6312 115.304 89.5811 117.09 80.9022 117.09C72.1982 117.077 66.1481 115.291 64.5381 114.763Z" fill="#81B4CC"/>
<path d="M106.071 123.932C106.097 124.083 106.222 124.184 106.373 124.184C106.398 124.184 106.411 124.184 106.436 124.184C106.6 124.146 106.713 123.983 106.675 123.819C106.663 123.744 106.26 121.807 105.405 120.7C105.304 120.561 105.103 120.536 104.977 120.649C104.839 120.75 104.814 120.951 104.927 121.077C105.166 121.379 105.354 121.769 105.518 122.159C105.606 122.184 105.669 122.197 105.669 122.197C105.669 122.197 105.631 122.259 105.593 122.335C105.908 123.152 106.071 123.92 106.071 123.932Z" fill="#B53D26"/>
<path d="M112.474 106.361C112.311 106.147 112.172 105.933 112.009 105.719C111.732 107.078 110.751 108.172 109.933 108.864C107.921 110.574 104.827 111.719 102.663 111.593C102.801 111.807 102.927 112.008 103.053 112.222C105.33 112.197 108.348 111.015 110.336 109.329C111.405 108.411 112.134 107.405 112.474 106.361Z" fill="#B53D26"/>
<path d="M110.662 29.5083C105.417 19.886 95.5056 15.0938 80.8899 15.0938C66.2741 15.0938 56.3625 19.886 51.1049 29.5083C42.6775 44.9542 48.8534 71.7708 54.2117 80.3742C60.79 90.965 70.2865 93.468 80.8899 93.468C91.4932 93.468 100.99 90.965 107.568 80.3742C112.914 71.7708 119.09 44.9542 110.662 29.5083Z" fill="#FDC99A"/>
<path d="M107.568 80.3868C112.914 71.7708 119.09 44.9668 110.675 29.5209C105.417 19.886 95.5056 15.0938 80.8898 15.0938C66.274 15.0938 56.3625 19.886 51.1048 29.5083C49.4948 32.4516 48.4257 35.8099 47.7842 39.3821C54.1739 46.212 76.0724 52.0483 101.732 50.0861C101.732 50.0861 107.417 66.9282 102.751 80.2736C98.2728 93.0404 83.6444 93.4052 83.6444 93.4052C93.1283 92.9649 101.556 90.0468 107.568 80.3868Z" fill="#EBAC7A"/>
<path d="M80.8645 45.7968C64.8022 45.7968 55.5321 41.3315 55.5321 41.3315C54.9032 44.7905 52.853 48.0482 51.1423 49.3186C51.1801 55.1926 50.3499 60.6389 48.6016 64.5256C46.6771 62.4125 45.0797 56.4127 44.7401 50.7274C44.4005 45.0421 46.5136 35.6839 46.5136 35.6839C46.5136 35.6839 43.9854 30.6653 46.8784 21.8857C50.3877 11.1943 68.9027 3.01855 78.4746 3.01855C77.7451 5.19457 80.638 8.30137 83.1914 10.4271C85.7448 12.5528 100.776 15.2068 105.606 19.7978C111.027 24.9548 111.002 28.3257 111.002 28.3257C111.002 28.3257 115.001 30.9797 116.637 36.4512C118.259 41.9227 118.096 47.4696 117.354 53.0795C116.611 58.6893 113.127 64.5256 113.127 64.5256C111.781 61.9093 110.461 55.0794 111.278 49.3186C108.813 47.3816 107.228 43.7591 107.178 41.3315C107.178 41.3441 96.9393 45.7968 80.8645 45.7968Z" fill="#C27637"/>
<path d="M111.014 28.3259C111.014 28.3259 111.039 24.9549 105.618 19.7979C103.605 17.886 99.8443 16.3137 95.9451 14.9805C95.9451 14.9805 103.014 19.018 103.165 26.263C103.278 32.1999 98.7878 36.7784 91.4673 38.9418C86.021 40.5644 67.4808 43.2435 56.9781 37.1934C48.5633 32.3383 46.0477 24.9046 46.0477 24.9046C44.5635 31.81 46.5131 35.6841 46.5131 35.6841C46.5131 35.6841 44.3874 45.0422 44.7396 50.7275C45.0918 56.4254 46.6892 62.4126 48.6011 64.5257C50.3494 60.6391 51.167 55.1927 51.1418 49.3187C52.8525 48.0484 54.9027 44.7906 55.5316 41.3316C55.5316 41.3316 64.8017 45.7969 80.864 45.7969C96.9262 45.7969 107.177 41.3316 107.177 41.3316C107.228 43.7718 108.813 47.3817 111.278 49.3187C110.473 55.0795 111.781 61.9095 113.127 64.5257C113.127 64.5257 116.598 58.702 117.353 53.0796C118.108 47.4572 118.271 41.9228 116.636 36.4513C115.001 30.9798 111.014 28.3259 111.014 28.3259Z" fill="#874F21"/>
<path d="M80.8895 1.77344C47.9726 1.77344 29.772 22.7286 31.3695 53.1928C32.7908 80.6509 53.5321 95.8452 80.8895 95.8452C108.247 95.8452 128.988 80.6509 130.41 53.1928C131.994 22.716 113.794 1.77344 80.8895 1.77344ZM124.146 55.4443C123.58 82.0848 104.775 94.2478 80.8895 94.2478C57.0037 94.2478 38.1994 82.0973 37.6334 55.4443C37.1302 31.6088 52.1359 18.4646 80.8895 18.4646C109.643 18.4646 124.649 31.6088 124.146 55.4443Z" fill="#D9EBF3"/>
<path d="M72.8022 68.6767C72.7771 74.5004 70.3495 76.0601 66.6012 76.0601C62.8655 76.0601 59.0543 74.7897 59.0921 69.5823C59.1047 67.9849 59.7713 65.7083 60.9914 63.7712C63.2429 64.1863 67.3433 63.3939 69.9093 61.2808C71.6325 62.7524 72.8148 65.3812 72.8022 68.6767Z" fill="#FBF6F1"/>
<path d="M65.9469 73.783C68.2254 73.783 70.0725 71.6656 70.0725 69.0536C70.0725 66.4416 68.2254 64.3242 65.9469 64.3242C63.6684 64.3242 61.8213 66.4416 61.8213 69.0536C61.8213 71.6656 63.6684 73.783 65.9469 73.783Z" fill="#462C25"/>
<path d="M62.6763 57.3941C62.5757 57.9979 64.6637 58.6519 67.5944 58.4004C68.8522 58.2997 71.0408 57.5576 71.2798 57.0293C71.9841 55.5577 70.5502 53.3314 70.022 53.4446C69.4937 53.5452 68.7138 54.8282 66.9655 55.5954C64.4247 56.6897 62.777 56.8029 62.6763 57.3941Z" fill="#845D25"/>
<path d="M70.4494 74.8901C70.4872 75.519 68.6759 76.173 66.3993 76.3114C65.7075 76.3491 65.0534 76.1479 64.5252 76.0598C63.0284 76.8271 62.1102 76.9277 61.3806 76.3491C60.6637 75.7831 60.8272 74.6762 61.0284 74.4372C61.6448 73.7454 63.695 74.6888 64.7893 74.8649C66.3616 75.129 70.4117 74.2611 70.4494 74.8901Z" fill="#67C8F2"/>
<path d="M68.2601 68.5741C68.8796 68.1268 68.9796 67.2072 68.4835 66.5201C67.9873 65.8331 67.083 65.6387 66.4635 66.086C65.844 66.5334 65.744 67.453 66.2401 68.14C66.7362 68.8271 67.6406 69.0215 68.2601 68.5741Z" fill="#F7F8F8"/>
<path d="M64.7443 72.0871C65.1523 71.7977 65.1962 71.1588 64.8424 70.6603C64.4886 70.1617 63.8712 69.9921 63.4632 70.2816C63.0553 70.571 63.0114 71.2098 63.3652 71.7084C63.7189 72.207 64.3364 72.3766 64.7443 72.0871Z" fill="#F7F8F8"/>
<path d="M88.9649 68.6767C88.9901 74.5004 91.4177 76.0601 95.166 76.0601C98.9142 76.0601 102.713 74.7897 102.675 69.5823C102.663 67.9849 101.996 65.7083 100.776 63.7712C98.5243 64.1863 94.4238 63.3939 91.8579 61.2808C90.1347 62.7524 88.9524 65.3812 88.9649 68.6767Z" fill="#FBF6F1"/>
<path d="M95.82 73.783C98.0985 73.783 99.9456 71.6656 99.9456 69.0536C99.9456 66.4416 98.0985 64.3242 95.82 64.3242C93.5414 64.3242 91.6943 66.4416 91.6943 69.0536C91.6943 71.6656 93.5414 73.783 95.82 73.783Z" fill="#462C25"/>
<path d="M99.0901 57.3941C99.1908 57.9979 97.1028 58.6519 94.1721 58.4004C92.9143 58.2997 90.7257 57.5576 90.4867 57.0293C89.7823 55.5577 91.2162 53.3314 91.7445 53.4446C92.2728 53.5452 93.0526 54.8282 94.801 55.5954C97.3418 56.6897 98.9895 56.8029 99.0901 57.3941Z" fill="#845D25"/>
<path d="M91.317 74.8901C91.2793 75.519 93.0905 76.173 95.3671 76.3114C96.0589 76.3491 96.713 76.1479 97.2413 76.0598C98.7381 76.8271 99.6563 76.9277 100.386 76.3491C101.103 75.7831 100.939 74.6762 100.738 74.4372C100.122 73.7454 98.0714 74.6888 96.9771 74.8649C95.4049 75.129 91.3547 74.2611 91.317 74.8901Z" fill="#67C8F2"/>
<path d="M95.5118 68.1464C96.0079 67.4593 95.9079 66.5397 95.2884 66.0924C94.6689 65.6451 93.7646 65.8394 93.2684 66.5265C92.7723 67.2135 92.8723 68.1331 93.4918 68.5805C94.1113 69.0278 95.0157 68.8334 95.5118 68.1464Z" fill="#F7F8F8"/>
<path d="M98.4118 71.6957C98.7655 71.1971 98.7216 70.5583 98.3137 70.2688C97.9057 69.9794 97.2883 70.1489 96.9345 70.6475C96.5807 71.1461 96.6246 71.7849 97.0326 72.0744C97.4405 72.3638 98.058 72.1943 98.4118 71.6957Z" fill="#F7F8F8"/>
<path d="M83.179 77.6952C83.179 78.1983 82.1476 79.2423 80.8898 79.2423C79.6194 79.2423 78.6006 78.1857 78.6006 77.6952C78.6006 77.2046 79.632 76.7896 80.8898 76.7896C82.1476 76.7896 83.179 77.1921 83.179 77.6952Z" fill="#EBB68D"/>
<path d="M62.0096 27.0553C63.1039 28.615 59.6449 31.5331 55.2929 36.1367C50.9157 40.7654 47.419 43.2433 45.7838 42.2748C42.3877 40.2497 45.6077 33.4575 50.8402 29.8099C56.0727 26.1622 60.9279 25.4956 62.0096 27.0553Z" fill="white"/>
<path d="M90.6755 88.6757C89.5309 90.7008 86.2732 88.6757 80.852 88.6757C75.4308 88.6757 72.2485 90.6379 71.0285 88.6757C69.7329 86.6129 74.5126 81.3804 80.852 81.3804C87.1914 81.3804 92.1974 85.984 90.6755 88.6757Z" fill="#911A1E"/>
<path d="M82.7516 84.9775C82.2359 84.7511 81.5567 84.8769 81.368 85.2165C81.1291 85.6316 81.3429 85.7574 81.2926 86.097C81.2548 86.3234 81.0536 86.4366 80.8901 86.4366C80.7266 86.4366 80.5127 86.3234 80.4876 86.097C80.4373 85.7448 80.6511 85.6316 80.4121 85.2165C80.2234 84.8769 79.5316 84.7511 79.0285 84.9775C78.3619 85.2668 78.2109 85.7951 78.2109 86.3108C78.2235 86.9272 78.6009 87.4051 78.6009 87.4051L80.8901 87.3171L83.1793 87.4051C83.1793 87.4051 83.5692 86.9146 83.5692 86.3108C83.5818 85.7825 83.4309 85.2668 82.7516 84.9775Z" fill="#5B1114"/>
<path d="M75.5439 89.2167C76.9904 88.9652 78.7514 88.6759 80.8519 88.6759C82.9776 88.6759 84.7637 88.9903 86.2353 89.2419C84.9901 88.047 83.0657 87.1665 80.8771 87.1665C78.7011 87.1665 76.7892 88.047 75.5439 89.2167Z" fill="#F38083"/>
<path d="M46.5855 51.0965C47.0395 48.496 46.0262 46.1468 44.3223 45.8493C42.6183 45.5518 40.8689 47.4187 40.4149 50.0191C39.9608 52.6195 40.9741 54.9687 42.6781 55.2662C44.382 55.5637 46.1314 53.6969 46.5855 51.0965Z" fill="white"/>
<path d="M63.0288 81.3802C64.6821 81.3802 66.0223 80.7889 66.0223 80.0595C66.0223 79.3301 64.6821 78.7388 63.0288 78.7388C61.3754 78.7388 60.0352 79.3301 60.0352 80.0595C60.0352 80.7889 61.3754 81.3802 63.0288 81.3802Z" fill="#F79673"/>
<path d="M98.7377 81.3802C100.391 81.3802 101.731 80.7889 101.731 80.0595C101.731 79.3301 100.391 78.7388 98.7377 78.7388C97.0844 78.7388 95.7441 79.3301 95.7441 80.0595C95.7441 80.7889 97.0844 81.3802 98.7377 81.3802Z" fill="#F79673"/>
<path d="M112.121 10.4902C112.121 10.4902 116.309 14.7668 114.813 19.8987C113.316 25.0305 108.398 24.4645 108.398 24.4645C119.064 30.5146 124.447 41.0173 124.146 55.4319C123.58 82.0723 104.775 94.2354 80.8895 94.2354C67.4686 94.2354 55.6577 90.3991 47.7838 82.3113C46.2619 82.1981 44.4758 81.7705 42.4004 80.9906C51.3434 90.6884 64.9907 95.8202 80.8895 95.8202C108.247 95.8202 128.988 80.6259 130.41 53.1678C131.391 34.4767 124.888 19.3704 112.121 10.4902Z" fill="#99CAE0"/>
<path d="M72.4309 9.18488C77.2407 8.69414 81.0232 7.15348 80.8793 5.74372C80.7355 4.33396 76.7198 3.58895 71.91 4.07969C67.1003 4.57044 63.3178 6.1111 63.4616 7.52086C63.6055 8.93062 67.6211 9.67562 72.4309 9.18488Z" fill="white"/>
<path d="M110.946 83.9607C113.022 82.3306 114.017 80.1323 113.168 79.0505C112.318 77.9687 109.947 78.4131 107.871 80.0432C105.794 81.6732 104.8 83.8716 105.649 84.9534C106.499 86.0352 108.87 85.5907 110.946 83.9607Z" fill="white"/>
<path d="M55.3185 70.0227C51.2181 68.224 36.2375 83.192 36.8161 85.4812C37.3318 87.544 41.7342 90.6885 41.7342 90.6885C41.7342 90.6885 40.6399 92.701 40.6273 93.6695C40.6147 94.3865 43.1303 96.487 45.7969 97.2795C48.4509 98.0593 51.5577 98.009 53.0042 97.0531C53.7714 96.5374 54.3878 93.5186 54.3878 93.5186C54.3878 93.5186 60.1611 93.1161 61.6328 90.1225C62.6013 88.1226 58.7524 71.532 55.3185 70.0227Z" fill="#F7F8F8"/>
<path d="M51.8844 75.2299C51.7083 74.1733 48.6266 77.6197 44.8406 82.978C43.1426 85.393 41.3187 87.7326 39.998 89.3174C40.9414 90.1224 41.7338 90.6884 41.7338 90.6884C49.9222 75.8085 51.9724 75.7204 51.8844 75.2299Z" fill="#C9E3EF"/>
<path d="M57.6459 92.8769C56.2623 89.0028 56.2498 77.041 55.168 77.041C54.6146 77.041 54.9291 81.1289 54.1241 87.1287C53.5077 91.6819 52.6776 95.1535 51.8223 97.5434C52.2751 97.4176 52.6902 97.2666 53.0046 97.0528C53.7719 96.5371 54.3882 93.5184 54.3882 93.5184C54.3882 93.5184 55.9353 93.4052 57.6459 92.8769Z" fill="#C9E3EF"/>
<path d="M131.944 55.0922C131.944 55.0922 134.888 55.3312 137.026 55.3312C139.164 55.3312 140.925 54.6646 141.089 53.3942C141.277 51.8596 139.328 50.6773 137.215 51.0672C133.969 51.6584 131.944 55.0922 131.944 55.0922Z" fill="#67C8F2"/>
<path d="M76.3114 124.586C76.1857 125.945 75.5693 128.398 75.5693 128.398C76.6007 129.467 77.0913 130.322 77.1039 130.335C77.3806 129.152 77.6573 127.907 77.846 126.674C78.8019 126.762 79.7956 126.813 80.8773 126.813C81.9464 126.813 82.9527 126.75 83.9086 126.674C84.0973 127.92 84.374 129.152 84.6507 130.335C84.6507 130.309 84.7514 129.857 85.1539 129.203C85.091 127.58 84.9903 125.467 85.1664 124.473C85.1664 124.473 83.2043 125.291 80.8144 125.328C78.4246 125.366 76.3114 124.586 76.3114 124.586Z" fill="#AFD7EA"/>
<path d="M64.4445 148.185C64.5281 147.621 63.5154 147.004 62.1824 146.806C60.8494 146.608 59.701 146.904 59.6173 147.468C59.5337 148.031 60.5464 148.648 61.8794 148.846C63.2124 149.044 64.3608 148.748 64.4445 148.185Z" fill="white"/>
<path d="M99.4084 148.628C100.72 148.317 101.676 147.616 101.544 147.061C101.413 146.507 100.243 146.31 98.9319 146.621C97.6206 146.933 96.6643 147.634 96.7959 148.189C96.9275 148.743 98.0971 148.94 99.4084 148.628Z" fill="white"/>
</svg>
