<svg width="172" height="172" viewBox="0 0 172 172" fill="none" xmlns="http://www.w3.org/2000/svg">
<path opacity="0.2" d="M120.776 160.35C122.805 168.144 108.884 174.083 103.039 167.163C98.5372 161.828 95.7019 154.827 86.43 153.913C80.3966 153.322 68.0072 158.24 54.0456 155.795C45.1634 154.236 40.0169 150.433 42.355 144.467C45.2037 137.157 59.7566 130.277 81.2297 130.277C102.703 130.277 116.637 144.427 120.776 160.35Z" fill="#0E2F3D"/>
<path d="M73.5967 113.063C71.8364 122.093 71.6482 127.992 71.7961 131.943C71.9439 135.893 75.2764 142.975 85.9189 145.071C98.9398 147.624 111.92 143.069 112.834 136.713C113.748 130.357 113.667 115.724 111.141 108.427C107.956 99.2091 100.485 96.3738 91.912 96.0647C84.7632 95.8094 79.4554 99.2091 76.2707 105.216C74.2014 106.936 73.7445 110.833 73.5967 113.063Z" fill="#D9EBF3"/>
<path d="M112.727 137.533C113.641 131.177 113.668 115.71 111.142 108.427C107.957 99.2091 100.486 96.3737 91.9125 96.0647C83.7157 95.769 77.7494 101.225 74.7529 109.26C80.2085 111.881 91.2272 114.34 103.778 113.332C103.778 113.332 105.578 123.464 104.275 133.905C100.177 135.195 96.9247 138.178 96.1722 140.314C91.6438 143.109 81.3507 141.9 78.6229 136.995C76.1504 135.598 71.8369 132.615 71.8369 132.615C72.3207 136.646 75.8413 143.082 85.8925 145.058C98.9403 147.624 111.813 143.889 112.727 137.533Z" fill="#AFD7EA"/>
<path d="M79.8592 114.34C85.1804 115.066 90.5285 115.563 98.0401 115.832C98.7254 115.859 99.2764 116.396 99.2092 117.081C98.9673 119.903 98.6582 123.41 98.6314 125.977C98.6179 126.595 98.1207 127.106 97.5026 127.119C90.0448 127.307 83.0573 126.541 78.4751 125.009C77.9914 124.848 77.6823 124.391 77.6957 123.894C77.7629 121.059 78.0854 117.847 78.5423 115.267C78.6498 114.649 79.241 114.259 79.8592 114.34Z" fill="#28758F"/>
<path d="M93.0408 131.11C102.125 131.11 109.945 129.027 113.358 126.837C113.358 126.582 113.345 126.313 113.345 126.044C109.636 128.691 97.4752 131.876 84.1452 129.726C75.5989 128.342 73.1533 126.246 72.4546 125.103C72.0111 124.391 72.1455 123.908 72.1589 123.867C72.2127 123.693 72.1321 123.518 71.9574 123.451C71.9036 124.123 71.8499 124.754 71.8096 125.345C71.823 125.359 71.823 125.386 71.8364 125.399C72.7368 126.918 75.5855 129.027 84.0377 130.384C87.1014 130.895 90.1383 131.11 93.0408 131.11Z" fill="#81B4CC"/>
<path d="M75.4914 129.295C73.7445 127.831 71.5004 127.36 68.3829 127.32C64.6876 127.28 59.6351 127.925 54.7439 129.376C54.0586 129.578 53.3598 129.82 52.6611 130.088C52.0698 129.591 51.4382 129.107 50.7395 128.637C46.0229 125.533 40.3389 127.831 40.3389 127.831L43.4698 134.697C42.247 135.423 41.4811 135.934 41.4811 135.934C41.4811 135.934 39.7745 140.126 42.9861 146.966C45.1092 151.494 51.5861 152.623 51.5861 152.623C51.5861 152.623 51.6129 152.61 51.6264 152.596L51.9354 153.268C51.9354 153.268 54.2601 152.341 55.2814 151.682C56.1414 151.131 57.9017 150.097 58.7617 148.511C61.7717 146.925 65.3057 145.246 68.5711 144.157C73.8654 143.714 77.8161 143.754 80.0601 143.002C78.3804 138.218 79.2807 132.494 75.4914 129.295Z" fill="#F26A21"/>
<path d="M74.6984 138.514C71.4868 139.118 68.2215 138.877 68.2215 138.877C68.2215 138.877 65.4534 140.758 62.833 141.524C60.2127 142.303 57.0146 142.626 57.0146 142.626C57.0146 142.626 55.8455 145.394 52.6743 146.899C48.8446 148.713 44.3027 148.861 44.3027 148.861C47.0171 151.803 51.5993 152.623 51.5993 152.623C51.5993 152.623 51.6262 152.61 51.6396 152.596L51.9487 153.268C51.9487 153.268 54.2734 152.341 55.2946 151.682C56.1546 151.132 57.9149 150.097 58.7749 148.511C61.7849 146.926 65.319 145.246 68.5843 144.157C73.8787 143.714 77.8293 143.754 80.0734 143.002C79.3209 140.879 79.079 138.581 78.7162 136.391C78.7162 136.391 77.9099 137.909 74.6984 138.514Z" fill="#C85627"/>
<path d="M48.8719 132.413C49.1944 133.099 50.5113 136.727 51.976 139.952C54.7307 146.012 54.9054 152.046 51.9491 153.268C49.2347 154.384 44.2494 151.898 40.151 145.381C35.6494 138.218 35.6763 132.266 37.9069 129.497C40.0166 126.904 45.741 125.869 48.8719 132.413Z" fill="#B14E26"/>
<path d="M51.7339 136.27C51.5323 135.8 51.3039 135.155 51.062 134.456C51.0352 134.362 50.9948 134.268 50.9545 134.174C51.6533 133.797 52.2848 133.031 52.5939 132.145C52.7686 131.634 52.903 130.908 52.7148 130.089C52.7014 130.102 52.6745 130.102 52.6611 130.102C52.4327 129.914 52.1908 129.712 51.9489 129.524C52.3923 130.505 52.2848 131.379 52.0833 131.956C51.8011 132.776 51.2502 133.354 50.7798 133.65C50.4036 132.615 50.0005 131.553 49.5839 130.734C48.4955 128.637 46.8158 127.522 45.2705 127.025C44.6927 127.011 44.1417 127.038 43.6445 127.092C45.3511 127.186 47.8102 128.181 49.2345 130.908C49.7452 131.903 50.2558 133.327 50.6992 134.577C50.9411 135.276 51.183 135.934 51.3845 136.404C51.5323 136.74 51.6936 137.13 51.8817 137.56C53.118 140.395 55.2008 145.139 54.9052 149.277C54.8111 150.688 54.2602 151.763 53.7227 152.502C53.9645 152.395 54.2064 152.274 54.4483 152.153C54.8648 151.414 55.2277 150.473 55.3083 149.304C55.6039 145.085 53.5077 140.274 52.2445 137.399C52.043 136.982 51.8683 136.606 51.7339 136.27Z" fill="#B53D26"/>
<path d="M67.0258 127.361C67.1602 128.154 65.3461 128.651 63.3573 128.987C61.382 129.323 59.5142 129.094 59.3798 128.301C59.2455 127.509 60.8714 126.662 62.8467 126.326C64.822 125.99 66.8914 126.568 67.0258 127.361Z" fill="#D9EBF3"/>
<path d="M64.1905 145.891C65.7627 143.526 66.0046 140.167 65.3327 137.237C64.4593 133.408 61.933 129.551 58.0765 128.53C57.4852 128.664 56.894 128.799 56.3027 128.96C60.7774 129.108 63.7202 133.273 64.6609 137.399C65.3999 140.637 64.9968 144.413 62.7662 146.549C63.2499 146.308 63.7202 146.093 64.1905 145.891Z" fill="#B53D26"/>
<path d="M80.5576 142.935C79.187 138.057 79.6035 132.319 75.8141 129.135C74.4973 128.033 72.5757 127.656 70.5332 127.441C71.7963 128.395 74.7526 131.043 75.3976 135.275C76.0695 139.602 74.7526 142.706 74.1882 143.781C76.7279 143.62 79.2004 143.392 80.5576 142.935Z" fill="#D9EBF3"/>
<path d="M78.9583 136.982C78.152 137.466 76.9292 137.896 75.5855 138.312C75.4645 141.04 74.6314 142.975 74.2148 143.781C76.7411 143.62 79.2136 143.392 80.5708 142.948C80.1542 141.457 79.8989 139.884 79.6436 138.339L78.9583 136.982Z" fill="#AFD7EA"/>
<path d="M85.0861 124.727C84.777 124.364 82.4926 122.953 82.4926 122.953C82.4926 122.953 80.3426 120.75 79.6573 120.373C78.8779 119.943 77.6148 119.89 77.6148 119.89C75.1557 117.417 73.382 114.112 73.382 114.112C74.2689 107.218 77.8432 103.012 77.8432 103.012C77.8432 103.012 76.0695 103.133 72.6832 105.485C68.7595 108.213 66.2198 111.827 65.1986 115.751C64.5267 118.385 64.8626 120.562 65.736 123.706C66.1123 125.077 67.3486 126.81 68.3967 128.234C69.2029 129.82 70.4392 130.788 70.9229 131.056C70.9229 131.056 71.4201 132.427 71.662 132.817C71.9039 133.206 72.6698 133.609 74.0404 133.878C74.7929 134.026 76.8623 133.085 76.9967 132.145C76.9967 132.145 77.3057 132.36 77.7357 132.494C78.6495 132.776 80.9742 131.191 80.9607 130.25C80.9473 129.242 80.8667 128.019 80.571 127.374L80.3023 126.81C81.982 128.006 83.2048 127.858 83.8901 127.603C85.3414 127.092 85.5832 125.292 85.0861 124.727Z" fill="#F26A21"/>
<path d="M76.2304 120.064C76.526 119.97 77.0501 119.916 77.6144 119.876C75.1554 117.404 73.3816 114.098 73.3816 114.098C74.2685 107.204 77.8429 102.999 77.8429 102.999C77.8429 102.999 76.0691 103.119 72.6829 105.471C70.5732 106.936 68.8801 108.656 67.6035 110.537C68.3829 112.808 70.291 113.964 72.1723 114.326L76.2304 120.064Z" fill="#C85627"/>
<path d="M80.9874 130.25C80.974 129.242 80.8934 128.019 80.5977 127.374L80.329 126.81C82.0087 128.006 83.2315 127.858 83.9168 127.603C85.2068 127.132 85.5293 125.627 85.2068 124.929C85.2068 124.929 84.7902 126.689 83.3524 126.716C82.4655 126.729 79.9662 125.211 79.9662 125.211L78.9449 124.189C78.9449 124.189 80.2215 126.917 80.0737 127.549C79.8184 128.691 78.4612 129.323 77.3055 129.538C76.1499 129.753 75.814 129.134 75.814 129.134C75.814 129.134 75.6662 130.854 73.664 131.271C72.5487 131.499 72.0112 131.459 70.9227 130.532C69.8343 129.605 68.9474 128.207 68.6652 127.764C68.383 127.32 67.7246 127.294 67.7246 127.294C67.953 127.616 68.1815 127.925 68.3965 128.221C69.2027 129.806 70.439 130.774 70.9227 131.043C70.9227 131.043 71.4199 132.413 71.6618 132.803C71.9037 133.193 72.6696 133.596 74.0402 133.864C74.7927 134.012 76.8621 133.072 76.9965 132.131C76.9965 132.131 77.3055 132.346 77.7355 132.48C78.6627 132.776 80.9874 131.19 80.9874 130.25Z" fill="#C85627"/>
<path d="M76.9426 119.137C76.7276 118.895 76.526 118.653 76.3379 118.411C73.8788 117.995 71.2048 118.734 69.2026 120.481C67.5901 121.892 66.6898 123.692 66.5957 125.533C66.7973 125.869 66.9988 126.205 67.2273 126.541C66.9585 124.539 67.8051 122.469 69.5788 120.911C71.6482 119.097 74.4701 118.438 76.9426 119.137Z" fill="#B53D26"/>
<path opacity="0.35" d="M75.8145 119.608C76.5133 120.306 74.1752 120.682 72.267 121.932C70.3589 123.182 68.6389 124.727 68.4508 124.445C68.2627 124.163 68.733 122.389 70.8964 120.844C72.6702 119.567 75.3308 119.124 75.8145 119.608Z" fill="white"/>
<path d="M96.8436 150.259C96.8436 150.259 96.9645 159.947 102.286 164.543C104.678 166.612 111.41 166.236 114.998 163.4C119.419 159.907 120.279 153.08 118.37 147.813C114.46 137.036 105.403 130.452 97.8648 137.574C94.1695 141.081 95.2848 147.719 96.8436 150.259Z" fill="#F26A21"/>
<path d="M102.166 157.931C99.4915 155.257 97.9865 150.957 97.9596 146.644C96.8846 144.991 95.9574 143.137 95.944 140.691C94.7749 144.158 95.6887 148.364 96.8577 150.272C96.8577 150.272 96.9787 159.96 102.3 164.556C103.052 165.214 104.248 165.631 105.646 165.806L102.166 157.931Z" fill="#C85627"/>
<path d="M112.553 138.339C109.449 133.985 102.125 132.682 97.2609 137.278C94.7346 139.669 94.8018 143.741 95.635 146.832C95.635 146.832 95.944 137.963 102.354 136.391C108.763 134.818 112.553 138.339 112.553 138.339Z" fill="#D9EBF3"/>
<path d="M110.456 139.441C106.654 139.132 101.399 139.938 98.0536 145.609C97.3145 146.858 96.8307 148.498 96.5889 149.801C96.6695 149.963 96.7501 150.11 96.8307 150.258C96.8307 150.258 96.8442 151.038 96.9786 152.22C97.0457 150.406 97.4489 147.974 98.6314 145.945C101.789 140.583 106.774 139.804 110.389 140.099C112.66 140.288 114.286 141.053 115.374 141.793C115.213 141.551 115.052 141.322 114.891 141.094C114.138 140.288 112.096 139.575 110.456 139.441Z" fill="#B53D26"/>
<path d="M116.114 163.212C110.698 168.547 104.826 169.514 102.045 166.289C98.8465 162.607 99.9349 158.737 103.818 152.677C105.874 149.479 106.546 145.636 108.844 143.513C112.969 139.696 118.532 141.94 120.817 145.475C123.948 150.325 121.126 158.294 116.114 163.212Z" fill="#B14E26"/>
<path d="M114.125 139.32C114.044 140.167 112.109 139.737 109.704 139.28C107.42 138.85 105.498 138.326 105.579 137.479C105.659 136.633 107.984 135.692 110.228 136.23C112.889 136.861 114.205 138.474 114.125 139.32Z" fill="#D9EBF3"/>
<path d="M105.498 113.762C106.519 116.584 108.495 120.266 107.93 121.18C107.299 122.201 104.074 123.222 101.306 123.424C99.7602 123.33 96.9115 122.403 94.9093 122.779C94.0493 122.94 91.7246 123.733 90.2196 124.002C88.1637 124.351 85.9062 124.391 85.3149 124.835C84.9387 125.104 84.6833 125.869 84.7774 126.528C84.8446 127.039 85.6508 127.778 85.8927 127.872C87.3171 128.396 89.6015 127.912 89.6015 127.912C88.6743 129.014 89.0371 130.465 90.0987 131.392C89.7224 132.185 89.9105 133.072 90.2599 133.73C90.7033 134.55 92.0068 136.095 93.8612 136.431C95.4333 136.714 96.3874 135.948 96.3874 135.948C97.7043 136.095 100.647 136.203 102.407 134.846C112.096 133.905 117.726 130.196 118.223 123.961C118.559 119.809 115.778 112.23 112.351 109.046C110.833 107.635 108.548 107.568 106.801 108.656C104.853 109.865 105.041 112.499 105.498 113.762Z" fill="#F26A21"/>
<path d="M106.801 108.67C104.853 109.879 105.041 112.499 105.498 113.763C105.673 114.26 105.888 114.784 106.103 115.308C107.54 115.496 110.188 115.227 112.243 114.515C114.393 117.713 115.751 123.249 114.635 126.179C114.205 127.321 112.875 129.014 109.583 130.197C105.498 131.661 103.482 131.285 103.482 131.285C103.482 131.285 101.762 132.32 99.3838 132.723C97.7982 132.992 95.89 132.508 94.7747 132.588C93.1085 132.696 91.3079 133.932 90.3135 133.798C90.7838 134.631 92.0738 136.123 93.8879 136.445C95.46 136.727 96.4141 135.961 96.4141 135.961C97.731 136.109 100.674 136.217 102.434 134.859C112.123 133.919 117.753 130.21 118.25 123.975C118.586 119.823 115.804 112.244 112.378 109.059C110.846 107.648 108.562 107.581 106.801 108.67Z" fill="#C85627"/>
<path d="M119.648 124.741C119.446 126.689 118.17 128.06 117.363 127.979C116.557 127.899 116.678 126.394 116.893 124.432C117.095 122.483 117.31 120.817 118.116 120.911C118.909 121.005 119.849 122.792 119.648 124.741Z" fill="#AFD7EA"/>
<path d="M108.992 129.296C107.111 126.851 105.982 123.773 106.412 122.268C106.412 122.255 106.425 122.241 106.439 122.228C106.21 122.336 105.955 122.43 105.7 122.524C105.431 124.526 106.815 127.576 108.454 129.713C109.274 130.788 109.892 131.984 110.08 133.233C110.295 133.153 110.51 133.072 110.712 132.991C110.51 131.916 109.798 130.358 108.992 129.296Z" fill="#B53D26"/>
<path d="M87.9218 110.067C117.548 110.067 141.564 88.4267 141.564 61.7321C141.564 35.0376 117.548 13.3975 87.9218 13.3975C58.2959 13.3975 34.2793 35.0376 34.2793 61.7321C34.2793 88.4267 58.2959 110.067 87.9218 110.067Z" fill="#4B636B"/>
<path d="M136.875 67.1741C135.088 94.2909 113.924 110.913 88.7551 109.771C70.413 108.924 57.7279 101.843 52.8098 91.2541C48.4695 81.9284 47.7842 70.7619 49.8536 58.6009C54.9195 28.9444 73.6783 15.6278 97.7045 17.9928C121.731 20.3578 138.595 41.2128 136.875 67.1741Z" fill="#FDC99A"/>
<path d="M97.7043 18.0061C78.4081 16.1114 62.525 24.3351 54.3818 42.9998C61.6784 52.1239 83.5278 57.5392 109.341 61.9332C109.341 61.9332 116.329 71.9173 115.24 86.4567C113.722 106.599 98.7793 109.26 98.7793 109.26C119.339 106.183 135.343 90.6089 136.888 67.1739C138.595 41.2126 121.731 20.3711 97.7043 18.0061Z" fill="#EBAC7A"/>
<path d="M73.7722 81.2698C73.2212 86.8464 68.9615 89.4533 64.0569 88.983C59.1522 88.4992 56.6662 84.7636 56.5856 79.4961C56.5587 77.3192 57.3784 74.887 58.2787 73.3551C60.7512 73.4223 65.8978 72.4279 68.8272 69.7808C72.1597 71.8636 74.2156 76.8354 73.7722 81.2698Z" fill="#FBF6F1"/>
<path d="M109.798 81.0416C109.597 86.645 105.512 89.5206 100.58 89.3459C95.6486 89.1712 92.5177 86.3628 92.3295 80.7594C92.1817 76.6341 94.3049 72.1862 96.7639 69.875C98.2958 72.885 105.512 76.2847 109.046 76.2041C109.583 77.7494 109.865 79.4156 109.798 81.0416Z" fill="#FBF6F1"/>
<path d="M67.4748 88.485C70.2349 88.2735 72.2592 85.3186 71.9961 81.8851C71.733 78.4516 69.2822 75.8397 66.5221 76.0512C63.7619 76.2626 61.7377 79.2175 62.0008 82.651C62.2639 86.0845 64.7146 88.6965 67.4748 88.485Z" fill="#462C25"/>
<path d="M49.1949 63.1563C50.8746 54.2472 52.0705 51.1566 55.618 44.3438C55.618 44.3438 63.8552 49.5979 79.604 51.2104C95.3527 52.8229 117.404 46.8969 117.404 46.8969C117.162 51.8688 118.264 57.5932 120.83 61.5975C120.83 61.5975 119.124 66.771 119.003 71.0844C118.895 75.3979 119.93 79.3082 119.93 79.3082C119.93 79.3082 123.397 64.5672 130.787 69.2435C137.224 73.3285 130.277 88.8354 130.277 88.8354C130.277 88.8354 137.923 81.4716 140.933 64.2179C144.306 44.8007 133.018 37.6788 133.018 37.6788C133.018 37.6788 130.855 17.751 103.402 12.3222C86.8468 9.04348 72.2805 15.8697 72.2805 15.8697C72.2805 15.8697 67.1205 17.6704 71.4609 7.00098C56.6662 7.99535 48.8724 16.7969 48.0662 25.7732C47.1793 35.7169 51.5062 41.0785 51.5062 41.0785C51.5062 41.0785 48.9799 45.2172 48.0527 49.0335C46.279 56.4375 49.1949 63.1563 49.1949 63.1563Z" fill="#C27637"/>
<path d="M69.8487 80.3631C70.5569 79.9139 70.7218 78.9045 70.217 78.1086C69.7122 77.3126 68.7288 77.0315 68.0206 77.4807C67.3124 77.9298 67.1475 78.9392 67.6523 79.7351C68.1571 80.5311 69.1405 80.8122 69.8487 80.3631Z" fill="white"/>
<path d="M66.0537 86.2873C66.4987 86.0051 66.5984 85.3648 66.2764 84.8572C65.9544 84.3495 65.3327 84.1667 64.8877 84.449C64.4428 84.7312 64.343 85.3715 64.665 85.8791C64.987 86.3868 65.6087 86.5695 66.0537 86.2873Z" fill="white"/>
<path d="M103.362 88.496C106.128 88.3972 108.271 85.5272 108.148 82.0858C108.025 78.6444 105.683 75.9346 102.916 76.0335C100.15 76.1323 98.0069 79.0022 98.1298 82.4437C98.2527 85.8851 100.595 88.5948 103.362 88.496Z" fill="#462C25"/>
<path d="M106.018 80.4592C106.731 80.0468 106.929 79.0562 106.461 78.2468C105.993 77.4374 105.035 77.1156 104.322 77.5281C103.609 77.9405 103.411 78.9311 103.879 79.7405C104.347 80.5499 105.305 80.8717 106.018 80.4592Z" fill="white"/>
<path d="M102.014 86.149C102.47 85.8851 102.599 85.2547 102.301 84.7407C102.004 84.2268 101.393 84.0241 100.937 84.2879C100.481 84.5518 100.352 85.1822 100.65 85.6961C100.947 86.2101 101.558 86.4128 102.014 86.149Z" fill="white"/>
<path d="M97.0588 88.7953C97.1798 89.5209 99.0476 90.2599 101.587 90.4212C102.111 90.4481 102.622 90.4615 103.092 90.4481C104.544 91.9262 107.029 90.5421 106.29 89.1446C105.605 87.8815 104.476 87.6665 101.762 87.7471C100.606 87.5321 99.2088 87.4649 98.3622 87.6396C97.4754 87.8278 96.9513 88.204 97.0588 88.7953Z" fill="#89D6F8"/>
<path d="M68.693 88.1099C68.5721 88.8356 66.7043 89.5746 64.1646 89.7359C63.6405 89.7628 63.1299 89.7762 62.6596 89.7628C61.2083 91.2409 58.7224 89.8568 59.4614 88.4728C60.1468 87.2096 61.2755 86.9946 63.9899 87.0753C65.1455 86.8603 66.543 86.7931 67.3896 86.9678C68.2764 87.1424 68.7871 87.5187 68.693 88.1099Z" fill="#89D6F8"/>
<path d="M94.5466 65.0377C94.157 63.5461 95.4873 60.9527 96.7369 60.6302C97.2744 60.4958 99.3707 62.1755 101.722 62.9683C104.813 64.0164 108.078 64.2986 108.145 64.7555C108.253 65.5617 104.275 66.9324 100.916 67.0802C97.5969 67.228 94.7348 65.7767 94.5466 65.0377Z" fill="#845D25"/>
<path d="M70.2785 64.957C70.5876 63.452 69.1363 60.9257 67.8732 60.657C67.3223 60.5495 65.3201 62.3367 63.0223 63.2504C59.9988 64.4464 56.7335 64.9032 56.6932 65.3601C56.626 66.1798 60.6707 67.3354 64.0301 67.322C67.3491 67.3085 70.1307 65.7095 70.2785 64.957Z" fill="#845D25"/>
<path d="M85.0593 89.2787C85.0325 89.9372 83.6887 91.16 82.0896 91.0928C80.4906 91.0256 79.2275 89.7221 79.2543 89.0637C79.2812 88.4053 80.5846 88.1231 82.1971 88.1768C83.7962 88.244 85.0862 88.6203 85.0593 89.2787Z" fill="#EBB68D"/>
<path d="M140.933 64.2313C144.306 44.8141 133.018 37.6922 133.018 37.6922C133.018 37.6922 131.083 19.9682 107.85 13.3838C107.85 13.3838 122.147 19.6725 119.03 29.6029C115.912 39.5332 89.3596 52.4466 60.6034 40.6082C52.1243 37.1144 47.9721 27.3722 47.9721 27.3722C47.6496 36.2813 51.5062 41.0785 51.5062 41.0785C51.5062 41.0785 48.9799 45.2172 48.0527 49.0335C46.279 56.4375 49.1949 63.1563 49.1949 63.1563C50.8746 54.2472 52.0705 51.1566 55.618 44.3438C55.618 44.3438 63.8552 49.5979 79.604 51.2104C95.3527 52.8228 117.404 46.8969 117.404 46.8969C117.162 51.8688 118.264 57.5932 120.83 61.5975C120.83 61.5975 119.124 66.771 119.003 71.0844C118.895 75.3979 119.93 79.3082 119.93 79.3082C119.93 79.3082 123.397 64.5672 130.787 69.2435C137.224 73.3285 130.277 88.8354 130.277 88.8354C130.277 88.8354 137.936 81.4716 140.933 64.2313Z" fill="#874F21"/>
<path d="M139.381 80.4721C140.79 74.8499 138.186 69.3533 133.564 68.195C128.943 67.0368 124.054 70.6555 122.645 76.2777C121.236 81.8998 123.84 87.3965 128.462 88.5547C133.083 89.713 137.972 86.0942 139.381 80.4721Z" fill="#EBAC7A"/>
<path d="M135.114 79.6442C134.241 83.1111 131.231 85.3551 128.368 84.6295C126.433 84.1458 125.291 83.2992 124.888 81.1626C124.7 80.1548 126.232 79.8054 126.595 77.9108C126.944 76.0429 125.493 75.2501 125.667 74.7664C126.312 72.8583 129.107 71.4608 131.526 72.0654C134.375 72.7776 135.987 76.1639 135.114 79.6442Z" fill="#D8976E"/>
<path d="M90.8643 1.81428C58.3321 0.83334 32.2633 21.4599 31.363 53.8308C30.3149 91.5633 54.4083 110.094 85.113 111.155C117.645 112.271 147.597 97.879 147.691 59.9852C147.786 27.4262 128.57 2.94303 90.8643 1.81428ZM113.48 104.208C105.39 107.85 100.606 109.072 84.3874 108.562C65.4943 107.957 53.2796 99.8543 46.2383 91.2274C40.7558 84.5087 37.168 72.1999 37.1949 61.6246C37.2218 51.0493 39.7077 44.1424 44.0211 38.4852C48.5361 32.5458 61.7318 24.2012 86.9002 25.8271C112.835 27.4933 123.276 36.174 128.006 43.5377C131.795 49.4099 136.417 59.4477 133.73 75.6802C130.962 92.289 119.93 101.306 113.48 104.208Z" fill="#D9EBF3"/>
<path d="M65.6421 32.3845C66.1931 34.4136 60.1328 37.3295 55.1206 41.4951C50.2831 45.513 47.8374 49.5039 44.5587 47.0448C42.1668 45.2442 45.7949 38.942 51.3984 35.0586C57.7409 30.6645 64.9971 30.0195 65.6421 32.3845Z" fill="white"/>
<path d="M45.895 55.7116C46.3963 53.1026 45.3907 50.7163 43.649 50.3816C41.9072 50.0469 40.0888 51.8906 39.5875 54.4996C39.0861 57.1086 40.0917 59.495 41.8334 59.8297C43.5752 60.1644 45.3936 58.3207 45.895 55.7116Z" fill="white"/>
<path d="M77.7361 7.13569C79.4157 9.90382 75.8683 12.0673 70.0633 13.4782C63.7476 15.0235 55.2686 16.0985 54.7176 14.6069C54.1667 13.1154 58.6548 10.0651 64.7554 7.80757C70.8561 5.55007 76.5939 5.25444 77.7361 7.13569Z" fill="white"/>
<path d="M119.795 8.74805C119.795 8.74805 123.692 11.5834 124.499 18.2215C125.614 27.359 117.336 33.594 117.336 33.594C122.617 36.6712 125.883 40.2187 128.006 43.5109C131.795 49.383 136.418 59.4209 133.73 75.6534C130.975 92.2756 119.943 101.292 113.48 104.195C105.39 107.836 100.607 109.059 84.3877 108.548C65.4945 107.944 53.2798 99.8409 46.2386 91.214C45.2308 89.9777 44.2902 88.5534 43.4167 86.9946L36.7383 82.6946C45.4055 101.117 63.6267 110.416 85.1133 111.155C117.645 112.271 147.598 97.879 147.692 59.9852C147.759 37.2087 138.353 18.3962 119.795 8.74805Z" fill="#99CAE0"/>
<path d="M96.2801 143.15C95.9441 142.169 95.6888 141.201 95.5141 140.234C94.8826 142.357 95.0841 144.803 95.635 146.832C95.635 146.832 95.7022 145.165 96.2801 143.15Z" fill="#AFD7EA"/>
<path d="M79.507 100.979C79.2448 100.647 79.2746 100.178 79.5958 99.8812C83.8604 95.8049 89.5555 96.4976 92.7749 99.215C93.1077 99.5032 93.1677 100.022 92.8786 100.377C92.5785 100.721 92.072 100.77 91.7163 100.481C89.4411 98.5457 84.5296 97.4594 80.7528 101.085C80.4307 101.405 79.904 101.384 79.5841 101.062C79.54 101.014 79.518 100.99 79.507 100.979Z" fill="#A97556"/>
</svg>
