<svg width="148" height="38" viewBox="0 0 148 38" fill="none" xmlns="http://www.w3.org/2000/svg">
    <path fill-rule="evenodd" clip-rule="evenodd" d="M77.4056 13.6678C77.2942 13.64 76.7374 13.5286 75.8742 13.5286C74.5098 13.5286 71.8367 13.8627 69.6648 16.0625C69.4421 9.12915 70.3609 2.33508 70.3888 2.2237C70.528 1.1656 69.8876 0.191041 68.913 0.0239745C67.9663 -0.143094 67.0474 0.580866 66.9082 1.63896C66.8247 2.19585 65.154 14.7538 66.9639 23.8589C67.0091 24.0487 67.0484 24.2443 67.0885 24.4439C67.172 24.8593 67.2589 25.2919 67.4094 25.7245C67.4373 25.7245 67.4373 25.7524 67.4373 25.7802C67.4373 25.7941 67.4442 25.8011 67.4512 25.8081C67.4581 25.815 67.4651 25.822 67.4651 25.8359C67.66 26.365 67.9106 26.894 68.2448 27.3952C69.4978 29.2329 71.5026 30.2632 74.1757 30.5138C74.233 30.5138 74.3198 30.5236 74.4338 30.5365C74.6522 30.5613 74.9706 30.5973 75.373 30.5973C79.661 30.5973 82.7518 27.7572 83.6428 23.0236V22.8844C83.9769 20.3227 83.0581 15.0879 77.4056 13.6678ZM80.1622 22.3275C79.6053 25.2512 77.9904 26.7269 75.373 26.7269C74.9553 26.7269 74.6769 26.6712 74.6769 26.6712C74.6212 26.6434 74.5376 26.6434 74.4819 26.6434C72.867 26.532 71.6975 26.003 71.0571 25.0841C70.9457 24.8892 70.8343 24.6943 70.7508 24.4994L70.7504 24.498L70.7504 24.4979C70.6391 24.0529 70.5279 23.6078 70.4166 23.135C70.3967 22.6965 70.4196 22.3294 70.4342 22.0948C70.44 22.0017 70.4445 21.9295 70.4445 21.882C71.5304 18.1786 73.9807 17.399 75.8742 17.399C76.1859 17.399 76.4331 17.4313 76.5686 17.449C76.651 17.4598 76.6922 17.4652 76.6817 17.4547C80.3015 18.3736 80.2458 21.5757 80.1622 22.3275ZM5.46275 25.4587C4.62741 19.7784 3.70854 11.2858 4.12621 7.49898C5.29568 7.16484 6.9942 6.77502 8.35859 6.77502C9.22177 6.77502 9.63944 6.94209 9.75082 7.02562C10.1685 7.61036 10.8368 8.89121 10.6418 9.61517C10.5026 10.0885 9.83435 10.5619 8.8041 10.8682C7.94092 11.1466 7.32834 12.0376 7.35618 13.0401C7.38403 14.0146 7.99661 14.8778 8.88764 15.1006C8.89181 15.1026 8.91459 15.1097 8.95398 15.122C9.44016 15.2733 12.4565 16.2121 14.2338 18.247C14.9578 19.0823 14.9021 23.4818 13.6769 24.8462C12.7023 25.9043 11.4493 26.4055 9.80651 26.4055C8.5535 26.4055 7.07774 26.0992 5.46275 25.4587ZM9.80651 30.7771C12.4796 30.7771 14.8185 29.8025 16.5449 27.9369C19.1901 25.0411 19.5243 17.9129 17.1575 15.2119C16.1272 14.0703 14.9021 13.1793 13.7326 12.511C14.1224 11.9541 14.373 11.3972 14.5122 10.896C15.4033 7.6382 13.0922 4.49176 12.758 4.10194C11.8392 2.96031 10.3634 2.40342 8.35859 2.40342C5.37922 2.40342 1.89864 3.62858 1.75942 3.68427C1.14684 3.90703 0.645639 4.43607 0.450727 5.13219C-0.899452 9.97695 1.17363 24.1602 1.59636 27.0523L1.59637 27.0524C1.61825 27.2021 1.63571 27.3215 1.64804 27.4079C1.78727 28.1597 2.23278 28.7722 2.87321 29.0785C5.40706 30.2202 7.74601 30.7771 9.80651 30.7771ZM25.8627 3.33747C25.5286 14.1969 25.5843 26.4485 26.3082 28.147C26.698 29.0102 26.3082 30.0404 25.4729 30.4303C25.2501 30.5416 24.9995 30.5973 24.7768 30.5973C24.1363 30.5973 23.5238 30.2353 23.2453 29.5949C21.8809 26.4763 22.3264 8.62795 22.4935 3.2261C22.5214 2.25153 23.3288 1.49973 24.2477 1.52757C25.1666 1.58326 25.8905 2.36291 25.8627 3.33747ZM98.6333 18.4555C99.6635 16.6456 99.747 14.3345 98.856 12.4967C98.2991 11.2994 96.8234 9.2389 93.2036 8.73769C91.7 8.54278 90.3077 8.93261 89.1939 9.85148C87.1679 11.4993 86.7143 14.3789 86.5874 15.1849L86.5766 15.2533C85.7412 19.8755 86.2703 23.6345 88.3308 26.419C91.1159 30.2218 95.5751 30.7277 96.0855 30.7856L96.1094 30.7884L96.1272 30.7906H96.2665C97.3246 30.7906 98.1321 29.9831 98.1877 28.8972C98.2713 27.8112 97.4638 26.8367 96.4057 26.7531C96.3778 26.7531 93.2036 26.4747 91.3937 23.9687C91.1152 23.6067 90.8925 23.189 90.6975 22.7435C93.7883 22.5486 97.6587 20.2097 98.6333 18.4555ZM95.3197 16.395C94.735 17.2303 91.505 18.9845 90.0571 18.7061C90.085 17.8707 90.1964 16.9518 90.3634 15.9773C90.3913 15.9216 90.3913 15.8381 90.3913 15.7824C90.4469 15.2812 90.7811 13.6662 91.5886 12.9979C91.7835 12.8308 92.0898 12.6638 92.7024 12.7473C93.6769 12.8865 94.9299 13.2485 95.4033 14.2788C95.7374 15.0027 95.5982 15.8938 95.3197 16.395ZM43.6352 29.4253C42.1038 30.4277 40.2382 30.7062 38.651 30.7062C37.5373 30.7062 36.5627 30.567 35.978 30.4556C35.8944 30.4556 35.8109 30.4277 35.7274 30.3999C26.1007 27.2187 28.7311 17.3593 29.7487 13.5448L29.7686 13.4704C30.0192 12.5794 30.9938 12.0225 31.9405 12.2452C32.8872 12.4958 33.4719 13.4147 33.2213 14.3057C31.1608 21.8516 32.1911 25.6106 36.7576 27.1699C38.2891 27.4205 40.4331 27.4484 41.6026 26.6687C42.1316 26.3067 42.4379 25.8055 42.5771 25.0816C43.2454 21.2112 43.3846 17.4522 42.9948 13.5539C42.9113 12.635 43.6352 11.8276 44.6098 11.744C45.5565 11.6326 46.4475 12.3288 46.5311 13.2476C46.9487 17.4243 46.8095 21.4618 46.0855 25.6106C45.8071 27.2256 44.9439 28.5343 43.6352 29.4253ZM116.211 13.9108C116.071 13.6324 114.763 11.0985 111.811 10.5695C110.141 10.2632 108.414 10.6808 106.604 11.7946C106.576 11.4883 106.576 11.2934 106.576 11.2377C106.521 10.3189 105.741 9.62275 104.767 9.6506C103.82 9.70629 103.096 10.4859 103.152 11.4048C103.152 11.4321 103.182 12.0375 103.23 13.011L103.23 13.0115V13.0117C103.427 17.0031 103.931 27.1781 103.931 29.0583C103.931 29.9493 104.683 30.7011 105.63 30.7011C106.576 30.7011 107.356 29.9493 107.356 29.0583C107.356 27.6637 107.098 22.1848 106.884 17.6457C106.855 17.0188 106.826 16.4099 106.799 15.8321C108.498 14.3285 110.001 13.6045 111.143 13.8273C112.396 14.0222 113.092 15.3031 113.12 15.3587C113.426 15.9435 114.039 16.2776 114.679 16.2776C114.93 16.2776 115.18 16.2219 115.403 16.1105C116.266 15.7207 116.628 14.7462 116.211 13.9108ZM127.632 10.5695C130.584 11.0985 131.892 13.6324 132.032 13.9108C132.449 14.7462 132.087 15.7207 131.224 16.1105C131.001 16.2219 130.751 16.2776 130.5 16.2776C129.86 16.2776 129.247 15.9435 128.941 15.3587C128.913 15.3031 128.217 14.0222 126.964 13.8273C125.822 13.6045 124.319 14.3285 122.62 15.8321C122.647 16.4099 122.676 17.0188 122.705 17.6457C122.919 22.1848 123.177 27.6637 123.177 29.0583C123.177 29.9493 122.397 30.7011 121.451 30.7011C120.504 30.7011 119.752 29.9493 119.752 29.0583C119.752 27.1781 119.248 17.0031 119.051 13.0117V13.0115L119.051 13.011C119.002 12.0375 118.972 11.4321 118.972 11.4048C118.917 10.4859 119.641 9.70629 120.587 9.6506C121.562 9.62275 122.342 10.3189 122.397 11.2377C122.397 11.2934 122.397 11.4883 122.425 11.7946C124.235 10.6808 125.961 10.2632 127.632 10.5695ZM62.2454 18.4555C63.2757 16.6456 63.3592 14.3345 62.4682 12.4967C61.9113 11.2994 60.4355 9.2389 56.8158 8.73769C55.3121 8.54278 53.9199 8.93261 52.8061 9.85148C50.7801 11.4993 50.3265 14.3788 50.1996 15.1849L50.1887 15.2533C49.3534 19.8755 49.8825 23.6345 51.943 26.419C54.7281 30.2218 59.1873 30.7277 59.6976 30.7856C59.7179 30.7879 59.732 30.7895 59.7394 30.7906H59.8787C60.9368 30.7906 61.7442 29.9831 61.7999 28.8972C61.8835 27.8112 61.076 26.8367 60.0179 26.7531C59.99 26.7531 56.8158 26.4747 55.0059 23.9687C54.7274 23.6067 54.5047 23.189 54.3097 22.7435C57.4005 22.5486 61.2709 20.2097 62.2454 18.4555ZM58.9319 16.395C58.3472 17.2303 55.1172 18.9845 53.6693 18.7061C53.6972 17.8707 53.8085 16.9518 53.9756 15.9773C54.0034 15.9216 54.0034 15.8381 54.0034 15.7824C54.0591 15.2812 54.3933 13.6662 55.2008 12.9979C55.3957 12.8308 55.702 12.6638 56.3145 12.7473C57.2891 12.8865 58.5421 13.2485 59.0155 14.2788C59.3496 15.0027 59.2104 15.8938 58.9319 16.395ZM142.542 36.2042C141.79 36.7333 140.982 37.0117 140.119 37.0117C139.869 37.0117 139.618 36.9839 139.367 36.956C136.388 36.3991 135.163 33.9488 134.912 32.5844C134.745 31.7212 135.302 30.8859 136.193 30.7188C137.028 30.5518 137.864 31.1087 138.059 31.9718C138.086 32.1389 138.448 33.5311 139.924 33.7817C140.203 33.8374 140.425 33.7817 140.676 33.6147C141.873 32.7515 142.764 29.8557 142.904 28.5748L143.6 22.087C141.483 23.4792 139.423 23.0894 139.2 23.0337C133.993 22.1427 134.829 12.5085 135.024 10.5872C135.135 9.72402 135.915 9.08359 136.806 9.16712C137.669 9.2785 138.309 10.0582 138.226 10.9492C137.78 14.9588 138.337 19.6367 139.785 19.8873C139.869 19.9151 141.01 20.0822 142.152 19.1633C142.931 18.5229 143.85 17.2421 144.379 14.736L144.825 10.5872C144.908 9.75186 145.66 9.11143 146.523 9.16712C147.387 9.25066 148.027 9.94677 147.999 10.81C147.971 12.4249 147.804 13.9007 147.554 15.2094L146.078 28.9925C145.994 29.6051 145.159 34.3386 142.542 36.2042Z" fill="#3C3CBF"/>
</svg>
