<svg width="115" height="50" viewBox="0 0 115 50" fill="none" xmlns="http://www.w3.org/2000/svg">
<g id="logo 1">
<path id="Vector" fill-rule="evenodd" clip-rule="evenodd" d="M58.1631 13.2979C58.0854 13.2793 57.697 13.2055 57.0951 13.2055C56.1436 13.2055 54.2796 13.4271 52.765 14.8861C52.6097 10.2875 53.2505 5.7812 53.2699 5.70733C53.367 5.00552 52.9203 4.35913 52.2407 4.24832C51.5806 4.13751 50.9397 4.61769 50.8427 5.31948C50.7845 5.68886 49.6194 14.0181 50.8815 20.0572C50.913 20.1831 50.9404 20.3129 50.9684 20.4452C51.0266 20.7207 51.0873 21.0077 51.1922 21.2946C51.2116 21.2946 51.2116 21.3131 51.2116 21.3315C51.2116 21.3408 51.2165 21.3454 51.2213 21.3501C51.2262 21.3546 51.231 21.3593 51.231 21.3685C51.3669 21.7194 51.5417 22.0703 51.7747 22.4027C52.6485 23.6217 54.0466 24.305 55.9106 24.4712C55.9506 24.4712 56.0112 24.4777 56.0907 24.4863C56.243 24.5027 56.465 24.5266 56.7456 24.5266C59.7359 24.5266 61.8912 22.6428 62.5126 19.5032V19.4109C62.7456 17.7118 62.1048 14.2397 58.1631 13.2979ZM60.0854 19.0415C59.6971 20.9807 58.5709 21.9595 56.7456 21.9595C56.4543 21.9595 56.2601 21.9226 56.2601 21.9226C56.2213 21.9041 56.163 21.9041 56.1242 21.9041C54.998 21.8302 54.1824 21.4793 53.7359 20.8698C53.6583 20.7406 53.5805 20.6113 53.5223 20.482L53.5221 20.4814C53.4445 20.1862 53.3669 19.8908 53.2892 19.5771C53.2754 19.2863 53.2913 19.0427 53.3015 18.8872C53.3056 18.8254 53.3087 18.7775 53.3087 18.746C54.0659 16.2897 55.7747 15.7726 57.0951 15.7726C57.3126 15.7726 57.4849 15.794 57.5794 15.8058C57.6368 15.813 57.6655 15.8165 57.6582 15.8096C60.1825 16.419 60.1436 18.5428 60.0854 19.0415ZM7.99358 21.1184C7.41106 17.3509 6.77029 11.718 7.06155 9.20631C7.87708 8.98469 9.06155 8.72613 10.013 8.72613C10.615 8.72613 10.9062 8.83694 10.9839 8.89235C11.2752 9.28018 11.7412 10.1297 11.6052 10.6099C11.5082 10.9239 11.0421 11.2379 10.3237 11.441C9.72174 11.6257 9.29456 12.2166 9.31397 12.8815C9.33339 13.5279 9.76058 14.1005 10.3819 14.2482C10.3849 14.2496 10.4006 14.2542 10.428 14.2624H10.4282C10.7672 14.3628 12.8707 14.9855 14.1101 16.3351C14.615 16.8892 14.5761 19.8071 13.7218 20.7121C13.0421 21.4139 12.1684 21.7463 11.0228 21.7463C10.1489 21.7463 9.1198 21.5432 7.99358 21.1184ZM11.0228 24.6458C12.8868 24.6458 14.5179 23.9995 15.7217 22.7621C17.5664 20.8414 17.7994 16.1135 16.1489 14.3221C15.4304 13.5649 14.5761 12.9739 13.7605 12.5306C14.0324 12.1613 14.2072 11.7919 14.3042 11.4595C14.9256 9.29865 13.314 7.21172 13.081 6.95316C12.4402 6.19597 11.4111 5.82659 10.013 5.82659C7.93534 5.82659 5.50815 6.6392 5.41107 6.67614C4.98387 6.82389 4.63436 7.17479 4.49844 7.6365C3.5569 10.8499 5.00256 20.2571 5.29735 22.1754C5.31261 22.2747 5.32479 22.3539 5.33339 22.4112C5.43048 22.9099 5.74116 23.3162 6.18777 23.5193C7.95475 24.2765 9.58582 24.6458 11.0228 24.6458ZM22.2195 6.44603C21.9865 13.6487 22.0254 21.7748 22.5302 22.9014C22.8021 23.4739 22.5302 24.1572 21.9477 24.4158C21.7923 24.4896 21.6176 24.5266 21.4622 24.5266C21.0156 24.5266 20.5885 24.2865 20.3943 23.8617C19.4429 21.7932 19.7535 9.95502 19.87 6.37216C19.8894 5.72575 20.4526 5.22711 21.0933 5.24558C21.7341 5.28252 22.2389 5.79964 22.2195 6.44603ZM72.9662 16.4734C73.6846 15.273 73.7429 13.7401 73.1215 12.5211C72.7332 11.727 71.704 10.3604 69.1798 10.0279C68.1312 9.89863 67.1604 10.1571 66.3837 10.7666C64.9708 11.8596 64.6545 13.7695 64.5659 14.3041L64.5653 14.3081L64.5642 14.3143C64.5622 14.3269 64.5602 14.3386 64.5584 14.3495C63.9759 17.4153 64.3448 19.9084 65.7817 21.7553C67.7239 24.2776 70.8336 24.6132 71.1895 24.6516H71.1896L71.2008 24.6528L71.2091 24.6537L71.2125 24.6541C71.2142 24.6543 71.2157 24.6545 71.2171 24.6547L71.2186 24.6549H71.3156C72.0536 24.6549 72.6166 24.1193 72.6555 23.399C72.7138 22.6787 72.1506 22.0323 71.4128 21.977C71.3934 21.977 69.1798 21.7923 67.9177 20.1301C67.7234 19.89 67.5681 19.613 67.4322 19.3175C69.5876 19.1882 72.2866 17.6369 72.9662 16.4734ZM70.6555 15.1067C70.2478 15.6608 67.9953 16.8243 66.9856 16.6396C67.005 16.0856 67.0827 15.4761 67.1992 14.8297C67.2186 14.7927 67.2186 14.7374 67.2186 14.7004C67.2575 14.368 67.4905 13.2969 68.0536 12.8536C68.1895 12.7427 68.4031 12.6319 68.8303 12.6874C69.5098 12.7797 70.3837 13.0197 70.7137 13.7031C70.9467 14.1832 70.8497 14.7743 70.6555 15.1067ZM34.6132 23.7492C33.5452 24.4141 32.2443 24.5988 31.1375 24.5988C30.3608 24.5988 29.6812 24.5064 29.2734 24.4325C29.2152 24.4325 29.1569 24.4141 29.0987 24.3956C22.3855 22.2856 24.2199 15.7462 24.9295 13.2162L24.9433 13.1668C25.1181 12.5758 25.7977 12.2064 26.4579 12.3542C27.1181 12.5204 27.5259 13.1299 27.3511 13.7208C25.9142 18.7258 26.6327 21.219 29.8171 22.2533C30.8851 22.4194 32.3802 22.438 33.1957 21.9208C33.5647 21.6807 33.7783 21.3483 33.8754 20.8681C34.3414 18.301 34.4385 15.8078 34.1667 13.2223C34.1084 12.6128 34.6132 12.0772 35.2928 12.0218C35.953 11.9479 36.5744 12.4097 36.6327 13.019C36.9239 15.7893 36.8268 18.4672 36.322 21.219C36.1278 22.2902 35.5258 23.1582 34.6132 23.7492ZM85.2239 13.459C85.1268 13.2743 84.2142 11.5936 82.1559 11.2428C80.9909 11.0396 79.787 11.3166 78.5249 12.0554C78.5054 11.8522 78.5054 11.723 78.5054 11.686C78.4666 11.0766 77.9229 10.6148 77.2433 10.6333C76.5831 10.6702 76.0783 11.1874 76.117 11.7969C76.117 11.8149 76.138 12.2166 76.1717 12.8625C76.3095 15.5098 76.6608 22.2586 76.6608 23.5058C76.6608 24.0968 77.185 24.5954 77.8452 24.5954C78.5054 24.5954 79.0491 24.0968 79.0491 23.5058C79.0491 22.5808 78.8693 18.9469 78.7202 15.9363C78.6997 15.5204 78.6796 15.1165 78.6608 14.7333C79.8453 13.736 80.8937 13.2558 81.6899 13.4036C82.5637 13.5328 83.0491 14.3824 83.0686 14.4193C83.2821 14.8071 83.7093 15.0288 84.1559 15.0288C84.3307 15.0288 84.5055 14.9918 84.6607 14.918C85.2627 14.6595 85.5152 14.013 85.2239 13.459ZM93.1886 11.2428C95.2468 11.5936 96.1594 13.2743 96.2565 13.459C96.5478 14.013 96.2954 14.6595 95.6934 14.918C95.538 14.9918 95.3633 15.0288 95.1885 15.0288C94.742 15.0288 94.3147 14.8071 94.1012 14.4193C94.0818 14.3824 93.5963 13.5328 92.7225 13.4036C91.9264 13.2558 90.8779 13.736 89.6934 14.7333C89.7123 15.1162 89.7322 15.5198 89.7528 15.9353V15.936L89.7529 15.9377C89.9019 18.948 90.0818 22.5809 90.0818 23.5058C90.0818 24.0968 89.5381 24.5954 88.8779 24.5954C88.2177 24.5954 87.6934 24.0968 87.6934 23.5058C87.6934 22.2586 87.342 15.5098 87.2043 12.8625C87.1706 12.2166 87.1497 11.8149 87.1497 11.7969C87.1109 11.1874 87.6158 10.6702 88.276 10.6333C88.9555 10.6148 89.4992 11.0766 89.5381 11.686C89.5381 11.723 89.5381 11.8522 89.5575 12.0554C90.8196 11.3166 92.0235 11.0396 93.1886 11.2428ZM47.5911 16.4734C48.3096 15.273 48.3678 13.7401 47.7464 12.5211C47.3581 11.727 46.329 10.3604 43.8047 10.0279C42.7562 9.89863 41.7853 10.1571 41.0086 10.7666C39.5958 11.8596 39.2795 13.7694 39.1909 14.3041C39.1882 14.3205 39.1856 14.3358 39.1833 14.3495C38.6008 17.4153 38.9697 19.9084 40.4067 21.7553C42.3488 24.2776 45.4585 24.6132 45.8143 24.6516H45.8146C45.8286 24.6531 45.8384 24.6542 45.8435 24.6549H45.9406C46.6784 24.6549 47.2416 24.1193 47.2804 23.399C47.3386 22.6787 46.7756 22.0323 46.0377 21.977C46.0182 21.977 43.8047 21.7923 42.5425 20.1301C42.3484 19.89 42.193 19.613 42.0571 19.3175C44.2124 19.1882 46.9115 17.6369 47.5911 16.4734ZM45.2804 15.1067C44.8726 15.6608 42.6203 16.8243 41.6105 16.6396C41.6299 16.0856 41.7076 15.4761 41.8241 14.8297C41.8436 14.7927 41.8436 14.7374 41.8436 14.7004C41.8823 14.368 42.1154 13.2969 42.6785 12.8536C42.8144 12.7427 43.028 12.6319 43.4552 12.6874C44.1348 12.7797 45.0085 13.0197 45.3387 13.7031C45.5717 14.1832 45.4746 14.7743 45.2804 15.1067ZM103.586 28.2454C103.062 28.5963 102.498 28.781 101.897 28.781C101.721 28.781 101.547 28.7626 101.372 28.7441C99.2944 28.3748 98.4401 26.7496 98.2653 25.8445C98.1488 25.2721 98.5372 24.718 99.1586 24.6072C99.7411 24.4963 100.324 24.8658 100.46 25.4383C100.479 25.5491 100.732 26.4725 101.76 26.6387C101.954 26.6757 102.11 26.6387 102.285 26.5279C103.119 25.9554 103.741 24.0347 103.838 23.1852L104.323 18.882C102.848 19.8054 101.411 19.5469 101.256 19.51C97.6245 18.9189 98.2071 12.5289 98.343 11.2545C98.4207 10.682 98.9644 10.2572 99.5857 10.3127C100.188 10.3866 100.634 10.9036 100.576 11.4946C100.265 14.1541 100.654 17.2567 101.663 17.423C101.721 17.4415 102.517 17.5523 103.314 16.9428C103.858 16.518 104.499 15.6685 104.867 14.0063L105.178 11.2545C105.236 10.7005 105.76 10.2757 106.362 10.3127C106.964 10.368 107.411 10.8298 107.391 11.4023C107.373 12.4735 107.256 13.4523 107.081 14.3203L106.052 23.4622C105.993 23.8684 105.411 27.008 103.586 28.2454Z" fill="#5A34E1"/>
<path id="Vector_2" d="M71.2494 34.5708C71.3787 34.5708 71.5126 34.6081 71.6513 34.6829C71.7992 34.7484 71.9101 34.8372 71.9839 34.9494L75.352 40.1931L74.659 40.1651L78.1103 34.9494C78.2858 34.697 78.5122 34.5708 78.7894 34.5708C79.0112 34.5708 79.2099 34.6503 79.3855 34.8092C79.561 34.968 79.6487 35.1737 79.6487 35.4261V43.5441C79.6487 43.7872 79.5702 43.9928 79.4132 44.1611C79.2561 44.3199 79.0481 44.3994 78.7894 44.3994C78.5307 44.3994 78.3182 44.3199 78.1519 44.1611C77.9948 43.9928 77.9162 43.7872 77.9162 43.5441V36.9403L78.4568 37.0665L75.6292 41.427C75.5461 41.5298 75.4398 41.6186 75.3104 41.6934C75.1904 41.7681 75.0656 41.8009 74.9362 41.7915C74.8161 41.8009 74.6914 41.7681 74.562 41.6934C74.4419 41.6186 74.3402 41.5298 74.2571 41.427L71.6097 37.1927L71.9701 36.4496V43.5441C71.9701 43.7872 71.8962 43.9928 71.7483 44.1611C71.6004 44.3199 71.4064 44.3994 71.1662 44.3994C70.9352 44.3994 70.7457 44.3199 70.5979 44.1611C70.45 43.9928 70.3761 43.7872 70.3761 43.5441V35.4261C70.3761 35.1924 70.4593 34.9914 70.6256 34.8232C70.8012 34.6549 71.0091 34.5708 71.2494 34.5708ZM85.1729 36.7861L82.179 43.9086C82.1144 44.0863 82.0127 44.2265 81.8741 44.3293C81.7448 44.4228 81.6016 44.4695 81.4445 44.4695C81.195 44.4695 81.0102 44.3994 80.89 44.2592C80.7699 44.119 80.7099 43.9461 80.7099 43.7404C80.7099 43.6563 80.7237 43.5675 80.7514 43.4741L84.2027 35.0896C84.2767 34.9026 84.3875 34.7577 84.5354 34.6549C84.6924 34.5521 84.8587 34.5101 85.0343 34.5287C85.2006 34.5287 85.3531 34.5801 85.4917 34.6829C85.6395 34.7765 85.7458 34.912 85.8105 35.0896L89.2202 43.3058C89.2664 43.4273 89.2895 43.5395 89.2895 43.6423C89.2895 43.8946 89.2063 44.0956 89.04 44.2451C88.8829 44.3947 88.7073 44.4695 88.5133 44.4695C88.347 44.4695 88.1945 44.4181 88.0559 44.3153C87.9266 44.2125 87.8249 44.0723 87.751 43.8946L84.7709 36.8702L85.1729 36.7861ZM82.6088 42.1982L83.3711 40.5858H87.1134L87.3768 42.1982H82.6088ZM92.9359 44.3994C92.6772 44.3994 92.4647 44.3199 92.2983 44.1611C92.132 43.9928 92.0489 43.7872 92.0489 43.5441V35.4121H93.8507V43.5441C93.8507 43.7872 93.763 43.9928 93.5874 44.1611C93.421 44.3199 93.2039 44.3994 92.9359 44.3994ZM89.8728 36.1973C89.6325 36.1973 89.4292 36.1225 89.2629 35.9729C89.1059 35.8234 89.0273 35.627 89.0273 35.3841C89.0273 35.141 89.1059 34.9494 89.2629 34.8092C89.4292 34.6596 89.6325 34.5849 89.8728 34.5849H96.0269C96.267 34.5849 96.4658 34.6596 96.6228 34.8092C96.7891 34.9588 96.8723 35.155 96.8723 35.3981C96.8723 35.6411 96.7891 35.8374 96.6228 35.9869C96.4658 36.1271 96.267 36.1973 96.0269 36.1973H89.8728ZM99.0927 34.5849C99.3144 34.5849 99.5085 34.6689 99.6753 34.8372C99.8507 34.9962 99.9384 35.1971 99.9384 35.4401V43.5441C99.9384 43.7872 99.8507 43.9928 99.6753 44.1611C99.4993 44.3199 99.296 44.3994 99.065 44.3994C98.8062 44.3994 98.5983 44.3199 98.4413 44.1611C98.2841 43.9928 98.2056 43.7872 98.2056 43.5441V35.4401C98.2056 35.1971 98.2888 34.9962 98.4551 34.8372C98.6215 34.6689 98.834 34.5849 99.0927 34.5849ZM105.233 34.5849C105.492 34.5849 105.699 34.6689 105.857 34.8372C106.013 34.9962 106.092 35.1971 106.092 35.4401V43.5441C106.092 43.7872 106.009 43.9928 105.843 44.1611C105.685 44.3199 105.473 44.3994 105.205 44.3994C104.984 44.3994 104.785 44.3199 104.609 44.1611C104.443 43.9928 104.36 43.7872 104.36 43.5441V35.4401C104.36 35.1971 104.448 34.9962 104.623 34.8372C104.798 34.6689 105.002 34.5849 105.233 34.5849ZM99.0512 38.6649H105.233V40.2773H99.0512V38.6649Z" fill="#5A34E1"/>
</g>
</svg>
