<svg width="165" height="164" viewBox="0 0 165 164" fill="none" xmlns="http://www.w3.org/2000/svg">
<path d="M50.6856 140.816C50.5803 142.672 54.6932 144.271 63.0245 145.613C71.3557 147.022 81.4703 147.726 93.3683 147.726C105.266 147.726 115.44 147.022 123.89 145.613C132.366 144.271 136.656 142.672 136.762 140.816C136.841 138.908 132.721 137.269 124.403 135.9C116.072 134.571 105.964 133.906 94.079 133.906C82.181 133.906 72.0006 134.571 63.5378 135.9C55.0618 137.269 50.7777 138.908 50.6856 140.816Z" fill="#16141C" fill-opacity="0.2"/>
<path d="M120.02 48.4217C120.02 48.3427 120.034 48.2835 120.06 48.244C119.441 48.2308 119.428 48.2901 120.02 48.4217Z" fill="#8FDE5D"/>
<path d="M120.277 48.9801C120.172 49.0328 120.086 49.0591 120.021 49.0591V49.1775C120.06 49.2039 120.119 49.2499 120.198 49.3157C121.172 50.9741 121.929 52.1915 122.469 52.9681C123.416 54.3237 124.403 55.4885 125.43 56.4624C128.181 59.1474 132.248 61.3848 137.631 63.1748C142.106 64.662 146.554 65.5833 150.976 65.9387C155.793 66.2809 160.301 65.9255 164.5 64.8726C164.421 64.741 164.342 64.6094 164.263 64.4778C163.157 62.5825 161.703 60.8057 159.9 59.1474C158.084 57.4232 155.997 55.8899 153.642 54.5474C149.285 52.0073 144.185 50.1252 138.341 48.9011C131.181 47.3612 125.16 47.3876 120.277 48.9801Z" fill="#8FDE5D"/>
<path d="M123.317 50.0824C121.975 49.7534 120.935 49.4968 120.198 49.3125C121.172 50.9708 121.929 52.1883 122.469 52.9648C123.416 54.3205 124.403 55.4852 125.43 56.4592C128.181 59.1441 132.248 61.3816 137.631 63.1716C142.106 64.6588 146.554 65.5801 150.976 65.9355C155.794 66.2777 160.301 65.9223 164.5 64.8694C164.421 64.7378 164.342 64.6062 164.263 64.4745C163.894 64.4614 161.091 63.3032 155.853 60.9999C150.641 58.6572 145.166 56.5053 139.427 54.5442C133.676 52.5831 128.306 51.0959 123.317 50.0824Z" fill="#619442"/>
<path d="M49.6198 99.6946C48.3826 95.3776 47.5073 93.2257 46.994 93.2388C44.8882 93.3178 42.1506 93.4231 38.7812 93.5547C38.7286 93.5547 38.6759 93.5547 38.6233 93.5547H38.4259C38.2943 93.5547 38.1758 93.5613 38.0706 93.5745C37.86 93.5745 36.8071 93.6271 34.9118 93.7324C33.0034 93.8377 29.8709 93.8706 25.5145 93.8311C21.158 93.7785 19.0522 93.5547 19.1969 93.1599C17.8281 90.9092 17.1174 89.7247 17.0648 89.6062C16.7357 89.0271 16.4264 88.4415 16.1369 87.8492C16.0316 87.6781 15.9395 87.5333 15.8605 87.4149C15.8079 87.3491 15.6434 86.8687 15.367 85.9737C15.0774 85.0655 15.334 83.4796 16.1369 81.2158C16.9266 78.9389 17.4004 76.7738 17.5583 74.7206C17.2688 73.2728 16.2159 72.5292 14.3996 72.4897C14.0837 72.4634 13.7547 72.4766 13.4125 72.5292C12.5306 72.7793 11.7936 73.2597 11.2013 73.9704V73.9902C9.80621 75.5959 9.12183 77.3661 9.14816 79.3008C9.16132 81.2355 9.26003 82.8742 9.44429 84.2166C9.61539 85.546 9.668 86.408 9.60219 86.8029C9.52322 87.1845 9.48376 87.4215 9.48376 87.5136C9.45744 87.5004 9.45084 87.507 9.464 87.5333C9.43768 87.6254 9.39162 87.7044 9.32582 87.7703C9.23369 87.8097 9.14157 87.8294 9.04944 87.8294C8.69408 87.8031 8.35845 87.7571 8.04257 87.6913C8.01625 87.6781 7.98994 87.6649 7.96362 87.6518C7.56878 87.5465 7.17393 87.4807 6.77909 87.4544C6.64747 87.4544 6.51586 87.4544 6.38424 87.4544C3.31761 87.6913 1.4684 88.9745 0.836648 91.3041C0.599741 92.107 0.487878 92.9229 0.501039 93.7521C0.487878 95.3447 0.902475 96.9635 1.74481 98.6087C2.96883 101.044 4.79824 102.689 7.23312 103.544C7.97016 103.794 8.66114 103.933 9.30606 103.959C10.6222 103.985 11.7015 103.478 12.5438 102.439C12.5701 102.386 12.6228 102.347 12.7018 102.32C12.7412 102.281 12.8005 102.268 12.8794 102.281C13.6033 102.307 14.3403 102.222 15.0905 102.024C15.8802 101.787 16.6436 101.485 17.3807 101.116C17.3938 101.103 17.407 101.096 17.4201 101.096C17.8545 100.873 18.1309 100.616 18.2493 100.326C18.2756 100.247 18.3283 100.182 18.4073 100.129V100.149C18.4599 100.096 18.5389 100.076 18.6442 100.089C23.685 100.182 30.2592 100.201 38.3667 100.149C38.4851 100.135 38.6233 100.135 38.7812 100.149C38.9524 100.135 39.1366 100.135 39.334 100.149C39.6368 100.135 39.946 100.129 40.2619 100.129C43.8287 100.076 46.5794 99.9775 48.5142 99.8327C48.6326 99.7933 48.7774 99.7735 48.9485 99.7735C49.1854 99.7472 49.4092 99.7209 49.6198 99.6946ZM41.9598 98.589C41.9598 98.5758 41.9795 98.5693 42.019 98.5693V98.589H41.9598ZM21.1712 94.3839C21.2089 94.3588 21.2418 94.3391 21.2699 94.3247C21.2429 94.3397 21.2232 94.366 21.2106 94.4036C21.1975 94.3905 21.1843 94.3839 21.1712 94.3839Z" fill="#443078"/>
<path d="M46.6778 79.8924C46.7173 79.8529 46.7436 79.8069 46.7568 79.7542C46.7831 79.7147 46.8028 79.6753 46.816 79.6358C46.8423 79.5963 46.8621 79.5502 46.8752 79.4976C46.8884 79.4581 46.895 79.4252 46.895 79.3988C46.895 79.3857 46.895 79.3725 46.895 79.3594C46.6844 79.7674 46.612 79.9451 46.6778 79.8924Z" fill="#2B233D"/>
<path d="M12.2474 89.9641C11.7341 89.385 11.1023 89.0428 10.3521 88.9375C10.1152 88.9375 9.9244 89.0494 9.77962 89.2731C9.66117 89.431 9.65457 89.5429 9.75986 89.6087C11.7078 90.8985 12.2277 92.5569 11.3195 94.5838C11.2142 94.7812 11.2208 94.9325 11.3392 95.0378C12.3132 95.8407 13.0371 96.8673 13.5109 98.1176C13.8268 98.96 13.6425 99.6378 12.9581 100.151C12.5501 100.441 12.4711 100.776 12.7212 101.158C13.2345 101.921 13.7347 101.862 14.2216 100.98C15.4983 98.677 15.0903 96.6238 12.9976 94.8207C13.0634 94.6101 13.1226 94.3995 13.1753 94.189C13.3727 93.4651 13.3925 92.7346 13.2345 91.9975C13.0766 91.221 12.7475 90.5432 12.2474 89.9641Z" fill="#2B233D"/>
<path d="M49.6195 99.6901C48.3823 95.3732 47.5071 93.2213 46.9938 93.2344C44.888 93.3134 42.1503 93.4187 38.781 93.5503C38.7284 93.5503 38.6757 93.5503 38.6231 93.5503H38.4256C38.294 93.5503 38.1756 93.5569 38.0703 93.57C40.9527 96.9131 41.6831 99.0979 40.2617 100.124C43.8284 100.072 46.5792 99.9731 48.5139 99.8283C48.6324 99.7888 48.7772 99.7691 48.9483 99.7691C49.1852 99.7428 49.4089 99.7165 49.6195 99.6901ZM41.9595 98.5846C41.9595 98.5714 41.9793 98.5648 42.0188 98.5648V98.5846H41.9595Z" fill="#2E2055"/>
<path d="M99.074 130.016C98.916 131.069 98.7449 132.122 98.5606 133.175C98.1263 135.663 97.5143 139.374 96.7246 144.31C99.0147 145.56 101.338 146.429 103.694 146.916C106.129 147.389 108.985 147.462 112.262 147.133C113.696 146.988 114.512 146.725 114.71 146.343C114.789 145.948 114.302 145.369 113.249 144.606H113.269C110.386 142.526 107.221 141.131 103.773 140.42C103.707 140.407 103.648 140.374 103.595 140.322C103.542 140.269 103.503 140.21 103.476 140.144C103.45 140.078 103.45 140.012 103.476 139.947C103.845 138.288 104.233 135.742 104.641 132.306C104.694 131.872 104.747 131.425 104.799 130.964C104.839 130.648 104.878 130.332 104.918 130.016C104.918 130.003 104.918 129.983 104.918 129.957L105.885 118.625L100.693 119.691C99.6399 126.403 99.1068 129.825 99.0937 129.957C99.0805 129.983 99.074 130.003 99.074 130.016ZM67.4271 122.198C66.6111 123.725 65.5582 125.693 64.2683 128.101C61.4255 133.379 59.6158 136.492 58.8392 137.439C55.0487 137.65 51.7912 138.275 49.0668 139.315C46.3424 140.355 44.48 141.427 43.4797 142.533C42.4663 143.638 42.8217 144.29 44.5458 144.487C45.7962 144.619 47.0202 144.685 48.2179 144.685C49.9947 144.685 51.7254 144.54 53.4101 144.25C56.2398 143.75 59.3525 142.829 62.7482 141.487C64.7356 137.972 66.3808 135.07 67.6838 132.78C68.2366 131.806 68.7235 130.938 69.1447 130.174C69.1578 130.135 69.1776 130.095 69.2039 130.056C69.6909 129.187 70.1778 128.318 70.6648 127.45C70.9807 126.897 71.2966 126.344 71.6125 125.791C72.3232 124.594 73.0537 123.396 73.8039 122.198H67.4271Z" fill="#443078"/>
<path d="M67.4273 122.203C66.6113 123.73 65.5584 125.697 64.2686 128.106C65.9269 129.119 67.5523 129.81 69.1449 130.179C69.158 130.139 69.1778 130.1 69.2041 130.061C69.6911 129.192 70.1781 128.323 70.665 127.455C70.9809 126.902 71.2968 126.349 71.6127 125.796C72.3234 124.599 73.0539 123.401 73.8041 122.203H67.4273Z" fill="#2E2055"/>
<path d="M100.693 119.691C99.64 126.403 99.1069 129.825 99.0938 129.957C100.097 131.256 101.946 132.039 104.641 132.306C104.694 131.872 104.747 131.425 104.799 130.964C104.839 130.648 104.878 130.332 104.918 130.016C104.918 130.003 104.918 129.983 104.918 129.957L105.885 118.625L100.693 119.691Z" fill="#2E2055"/>
<path d="M110.722 29.5895C109.182 27.7469 107.662 26.1412 106.162 24.7724C105.227 23.9696 104.115 23.1535 102.825 22.3244C102.154 21.8374 100.983 21.0806 99.311 20.054C97.4289 18.8563 96.0272 17.9942 95.1059 17.4678C93.5397 16.5202 92.1248 15.7041 90.8613 15.0197L90.7231 15C90.6968 15.2106 90.6639 15.4212 90.6244 15.6317C90.3612 18.3693 90.5257 21.2122 91.118 24.1604C91.7102 27.2928 92.7632 30.3266 94.2767 33.2616C94.6584 34.0644 95.1191 34.8541 95.6587 35.6307C96.7906 37.4338 98.1791 39.079 99.8243 40.5662C101.351 42.0008 103.049 43.2314 104.918 44.258C108.313 46.1533 112.15 47.4102 116.428 48.0288C116.783 47.7656 117.092 47.4365 117.355 47.0417C117.619 46.5547 117.829 45.969 117.987 45.2846C118.211 44.2054 118.191 43.0274 117.928 41.7508C117.678 40.6978 117.224 39.5594 116.566 38.3353C116.145 37.4535 115.5 36.3809 114.631 35.1174C113.249 32.9589 111.946 31.1163 110.722 29.5895Z" fill="#8FDE5D"/>
<path d="M117.355 47.0428C115.934 46.332 114.565 45.5489 113.249 44.6934C108.327 41.6136 104.01 37.8494 100.298 33.4008C97.0209 29.505 94.4478 25.4316 92.5789 21.1804C91.7102 19.2062 91.0588 17.357 90.6244 15.6328C90.3612 18.3704 90.5257 21.2133 91.118 24.1615C91.7102 27.2939 92.7632 30.3276 94.2767 33.2627C94.6584 34.0655 95.1191 34.8552 95.6587 35.6317C96.7906 37.4348 98.1791 39.08 99.8243 40.5673C101.351 42.0019 103.049 43.2325 104.918 44.2591C108.313 46.1543 112.15 47.4113 116.428 48.0299C116.783 47.7666 117.092 47.4376 117.355 47.0428Z" fill="#619442"/>
<path d="M128.135 40.3272C128.358 39.7876 128.365 39.3599 128.154 39.044C127.865 38.8203 127.575 38.5899 127.286 38.353C126.944 38.0766 126.628 37.8397 126.338 37.6423C125.693 37.1816 125.2 36.8921 124.857 36.7736C124.686 36.7078 124.548 36.6881 124.443 36.7144C123.837 36.7934 123.429 36.8987 123.219 37.0303C122.113 38.5438 121.087 40.0508 120.139 41.5513C120.073 41.6565 120.007 41.7684 119.942 41.8869C119.349 42.8477 118.744 43.8545 118.125 44.9074C116.994 46.8685 116.006 48.8098 115.164 50.7314C115.388 50.9551 115.638 51.1657 115.914 51.3631C116.559 51.7712 117.336 52.1792 118.244 52.5872C118.494 52.6661 118.718 52.7254 118.915 52.7649C121.232 48.7506 123.495 45.6445 125.706 43.4465C126.983 42.1567 127.793 41.1169 128.135 40.3272Z" fill="#2E2055"/>
<path d="M128.134 40.3272C128.358 39.7876 128.365 39.3599 128.154 39.044C127.864 38.8203 127.575 38.5899 127.285 38.353C126.943 38.0766 126.627 37.8397 126.338 37.6423C125.693 37.1816 125.199 36.8921 124.857 36.7736C124.686 36.7078 124.548 36.6881 124.443 36.7144C123.837 36.7934 123.429 36.8987 123.218 37.0303C122.113 38.5438 121.086 40.0508 120.139 41.5513C120.073 41.6565 120.007 41.7684 119.941 41.8869C119.349 42.8477 118.744 43.8545 118.125 44.9074L119.724 44.5718C120.777 44.3349 122.277 43.6176 124.225 42.4199C126.16 41.2222 127.463 40.5247 128.134 40.3272Z" fill="#443078"/>
<path d="M116.131 45.1241C112.854 43.5316 109.34 42.3734 105.588 41.6495C103.548 41.2283 101.495 40.9782 99.4289 40.8993C99.2578 40.8729 99.0998 40.8664 98.9551 40.8795C98.4681 40.84 98.0008 40.8335 97.5533 40.8598C96.9216 40.8335 96.2833 40.8203 95.6384 40.8203C92.5059 40.8203 89.3274 41.0506 86.1028 41.5113C82.3913 41.9719 79.5484 42.5774 77.5742 43.3276C75.6 43.9725 73.402 44.8872 70.9803 46.0717C68.5191 47.1642 65.6236 48.987 62.2937 51.5403C58.977 54.0674 56.3118 56.8313 54.2981 59.8321C52.3765 62.596 50.6721 65.5442 49.1848 68.6766C47.7107 71.9933 46.7434 75.4482 46.2827 79.0413C46.1116 80.1074 45.9998 81.18 45.9471 82.2593C45.7365 85.2864 45.8813 88.3202 46.3814 91.3605C46.75 93.5453 47.1711 95.6116 47.645 97.5595C47.8029 98.3361 47.9477 99.0797 48.0793 99.7904C48.1714 99.9484 48.2701 100.106 48.3754 100.264C48.4149 100.396 48.4544 100.527 48.4938 100.659C49.3493 103.436 50.139 105.66 50.8629 107.332C51.5736 108.951 52.9753 111.267 55.068 114.281C57.2265 117.216 59.951 119.697 63.2413 121.724C66.5449 123.646 70.4736 125.028 75.0275 125.87C78.3705 126.502 81.2331 126.877 83.6153 126.995C84.4182 127.008 85.1815 127.015 85.9054 127.015C88.7088 126.857 91.4398 126.489 94.0984 125.909C96.7176 125.225 99.3499 124.587 101.995 123.994C105.654 122.889 108.563 121.81 110.721 120.757C112.906 119.677 115.19 118.434 117.572 117.025C119.967 115.551 122.363 113.215 124.758 110.017C127.14 106.753 128.858 103.877 129.911 101.39C131.135 98.3624 132.135 95.2695 132.912 92.1107C133.267 90.6629 133.543 89.2152 133.741 87.7674C133.767 87.5042 133.794 87.2672 133.82 87.0567C134.044 84.069 134.096 81.1406 133.978 78.2714C133.925 77.179 133.853 76.0931 133.761 75.0139C133.563 72.5132 133.149 70.0125 132.517 67.5118C132.28 66.5642 132.017 65.6429 131.727 64.7479C130.99 62.4973 130.043 60.3586 128.884 58.3317C127.029 55.1861 124.837 52.4287 122.31 50.0597C120.31 48.3224 118.25 46.6772 116.131 45.1241Z" fill="#5B57AB"/>
<path d="M132.517 67.518C132.281 66.5704 132.017 65.6491 131.728 64.7541L131.708 64.7344C131.55 69.841 131.432 73.5131 131.353 75.7505C131.313 78.0406 130.721 81.3771 129.576 85.7599C128.694 89.8662 126.391 94.045 122.666 98.2962C119.126 102.271 115.217 105.456 110.939 107.851C106.899 109.944 102.924 111.484 99.0148 112.471C95.3823 113.287 91.447 113.939 87.209 114.426C82.971 114.807 78.4039 114.689 73.5079 114.07C68.6513 113.136 63.6433 110.879 58.484 107.299C54.6145 104.377 51.0017 101.132 47.6455 97.5657C47.8034 98.3423 47.9482 99.0859 48.0798 99.7966C48.172 99.9546 48.2707 100.112 48.376 100.27C48.4154 100.402 48.4549 100.534 48.4944 100.665C49.3499 103.442 50.1396 105.667 50.8635 107.338C51.5742 108.957 52.9759 111.273 55.0686 114.287C57.2271 117.222 59.9515 119.703 63.2419 121.73C66.5454 123.652 70.4741 125.034 75.028 125.876C78.371 126.508 81.2337 126.883 83.6159 127.001C84.4187 127.015 85.1821 127.021 85.906 127.021C88.7094 126.863 91.4404 126.495 94.099 125.916C96.7181 125.231 99.3504 124.593 101.996 124.001C105.655 122.895 108.564 121.816 110.722 120.763C112.907 119.684 115.19 118.44 117.573 117.032C119.968 115.558 122.363 113.221 124.759 110.023C127.141 106.759 128.859 103.883 129.911 101.396C131.135 98.3686 132.136 95.2757 132.912 92.1169C133.268 90.6691 133.544 89.2214 133.741 87.7736C133.768 87.5104 133.794 87.2734 133.82 87.0629C134.044 84.0752 134.097 81.1468 133.978 78.2776C133.926 77.1852 133.853 76.0993 133.761 75.0201C133.564 72.5194 133.149 70.0187 132.517 67.518Z" fill="#3E3A7A"/>
<path d="M105.273 86.727C105.22 87.3851 105.503 87.9707 106.122 88.484C106.214 88.5893 106.333 88.688 106.477 88.7802C107.438 89.3988 108.583 89.7278 109.912 89.7673C111.229 89.9252 112.354 89.7409 113.288 89.2145C114.249 88.8196 114.769 88.2406 114.848 87.4772C114.782 87.3456 114.743 87.2271 114.73 87.1218C114.677 86.5296 114.282 85.9439 113.545 85.3647C112.689 84.8515 111.571 84.5159 110.189 84.3579C108.873 84.2658 107.754 84.4632 106.833 84.9502C105.859 85.3845 105.339 85.9768 105.273 86.727ZM60.3199 89.4119C60.333 88.6222 59.9053 87.8918 59.0366 87.2206C58.4575 86.8389 57.76 86.5625 56.9439 86.3914C56.5754 86.2993 56.1806 86.2202 55.7594 86.1544C54.4433 86.036 53.2653 86.2269 52.2256 86.727C51.9755 86.9376 51.732 87.1152 51.4951 87.26C50.995 87.5891 50.7251 87.9773 50.6857 88.4248C50.6593 89.2803 51.1134 90.0174 52.0478 90.636C52.8639 91.2019 53.9563 91.531 55.3251 91.6231C56.6544 91.7284 57.8258 91.5902 58.8392 91.2085C59.7079 90.6162 60.2014 90.0173 60.3199 89.4119Z" fill="#3E3A7A"/>
<path d="M125.055 64.9688V68.5421H142.29V64.9688H125.055Z" fill="black"/>
<path d="M101.6 68.1645C100.061 67.1905 98.3694 66.6904 96.5267 66.6641C95.329 66.7694 93.493 66.8944 91.0187 67.0392C88.5311 67.1708 87.544 68.1513 88.0573 69.9808C88.5575 71.7971 89.3932 73.4488 90.5646 74.9361C91.7228 76.4365 93.6444 78.0882 96.3293 79.8914C99.0143 81.6945 100.995 81.9775 102.272 80.7403C103.417 79.6347 104.891 78.8385 106.694 78.3515V69.6649C105.391 69.1911 104.029 68.8226 102.607 68.5593C102.239 68.4935 101.903 68.3619 101.6 68.1645ZM50.4483 68.4804C48.9084 67.5064 47.2172 67.0063 45.3746 66.98C44.1769 67.0852 42.3408 67.2037 39.8665 67.3353C37.379 67.4801 36.3918 68.4606 36.9051 70.2769C37.4053 72.1064 38.241 73.7647 39.4124 75.2519C40.5706 76.7524 42.4922 78.4041 45.1772 80.2073C47.8621 82.0104 49.8495 82.2934 51.1393 81.0562C52.2712 79.9506 53.7387 79.1543 55.5419 78.6674V69.9808C54.2389 69.507 52.8832 69.1384 51.4749 68.8752C51.0932 68.8094 50.7511 68.6778 50.4483 68.4804Z" fill="white"/>
<path d="M129.872 68.5619V64.9688H27.1328V68.5619H30.7259L30.8444 72.1549L34.4374 72.2734V75.8665L38.149 75.9849V79.578H41.7421L41.8606 83.1711H63.7745V79.578H67.486V75.8665H71.0791V72.2734H71.1975V72.1549H74.7906V68.5619H82.0953L82.2137 72.1549H85.9253V75.8665L89.5183 75.9849V79.578H93.1114L93.2299 83.1711H115.144V79.578H118.855V75.8665H122.567L122.448 72.2734H122.567V72.1549H126.16V68.5619H129.872ZM45.4536 68.5619H49.0467L49.1652 72.1549L52.7583 72.2142L52.8175 75.8665L49.1652 75.9849L49.0467 79.578H45.4536V75.9849L41.7421 75.8665V72.2734H38.149L38.0305 68.5619H41.7421L41.8606 72.1549H45.4536V68.5619ZM89.5183 68.5619H93.1114L93.2299 72.1549H96.823V68.5619H100.535V72.1549L104.246 72.2142V75.8665L100.535 75.9849V79.578H96.9414L96.823 75.9849L93.2299 75.8665L93.1114 72.2734L89.5183 72.1549V68.5619ZM100.495 72.2931H96.9414V75.8467H100.495V72.2931Z" fill="black"/>
<path d="M49.0462 75.8665V72.2734H45.4531V75.8665H49.0462Z" fill="#010101"/>
<path d="M138.716 105.187C137.769 104.042 136.657 102.89 135.38 101.732C134.643 101.126 132.978 99.8694 130.385 97.9609C129.385 99.1586 128.707 101.028 128.352 103.568C130.168 105.266 131.175 106.213 131.372 106.411C132.294 107.319 133.202 108.49 134.097 109.925C135.189 111.662 134.235 112.662 131.234 112.926C128.233 113.176 126.075 113.399 124.759 113.597C121.271 113.557 118.645 114.182 116.882 115.472C115.671 116.38 114.67 117.4 113.881 118.532C113.315 119.335 113.091 120.283 113.209 121.375C113.249 121.81 113.348 122.27 113.506 122.757C114.032 124.442 115.407 125.343 117.632 125.462C119.856 125.567 121.159 125.357 121.541 124.83C121.909 124.291 121.968 123.455 121.718 122.323C121.916 122.231 122.179 122.053 122.508 121.79C122.666 121.671 122.837 121.533 123.021 121.375C123.587 120.888 123.844 120.072 123.791 118.927C124.239 118.927 125.496 118.894 127.562 118.828C130.734 118.71 134.13 118.23 137.749 117.387C141.355 116.545 143.001 114.999 142.685 112.748C142.356 110.484 141.033 107.964 138.716 105.187ZM135.479 113.123C135.294 113.268 135.341 113.209 135.617 112.945C135.577 113.024 135.531 113.084 135.479 113.123Z" fill="#443078"/>
<path d="M135.617 112.945C135.341 113.209 135.294 113.268 135.479 113.123C135.531 113.083 135.577 113.024 135.617 112.945Z" fill="#2B233D"/>
<path d="M121.54 124.83C121.909 124.291 121.968 123.455 121.718 122.323C121.915 122.231 122.179 122.053 122.508 121.79V121.375C119.902 122.941 117.171 122.941 114.315 121.375C114.17 121.244 114.051 121.105 113.959 120.961C113.893 121.105 113.847 121.244 113.821 121.375H113.209C113.248 121.81 113.347 122.27 113.505 122.757C114.032 124.442 115.407 125.343 117.631 125.462C119.856 125.567 121.159 125.357 121.54 124.83ZM128.351 103.568C130.168 105.266 131.174 106.213 131.372 106.411C132.162 105.121 133.497 103.561 135.38 101.732C134.642 101.126 132.978 99.8694 130.385 97.9609C129.384 99.1586 128.707 101.028 128.351 103.568Z" fill="#2E2055"/>
<path d="M71.9084 102.339C77.3967 104.419 81.9769 104.945 85.649 103.918C91.6243 102.273 96.1321 100.293 99.1724 97.9761C102.2 95.6597 103.884 93.5275 104.226 91.5796C104.555 89.6185 103.062 88.7301 99.7449 88.9144C92.1771 89.5066 84.9316 90.0792 78.0087 90.632C71.0726 91.1848 66.703 91.494 64.8999 91.5599C63.0836 91.6257 62.1952 91.9679 62.2347 92.5864C63.1954 96.9955 66.42 100.246 71.9084 102.339ZM78.5023 102.833C77.1071 102.543 75.7976 102.208 74.5736 101.826V101.806C74.5867 101.78 74.5933 101.753 74.5933 101.727C74.5933 101.674 74.5867 101.615 74.5736 101.549C74.5604 101.47 74.5538 101.385 74.5538 101.293C74.567 101.227 74.5802 101.168 74.5933 101.115C74.6065 101.049 74.613 100.983 74.613 100.918C75.8239 101.01 77.0545 101.01 78.3048 100.918C81.3451 100.707 84.3723 100.404 87.3863 100.01C90.4529 99.6147 93.4077 98.8776 96.2506 97.7984C94.8818 98.5881 92.9405 99.6147 90.4266 100.878C86.2149 102.971 82.2401 103.622 78.5023 102.833ZM97.2772 96.3572C96.0136 96.8705 94.7107 97.2719 93.3682 97.5615C86.7348 99.0092 80.029 99.5752 73.2508 99.2593C71.1318 99.154 69.2892 98.6341 67.723 97.6997C67.6835 97.6075 67.6375 97.5154 67.5848 97.4233C67.2031 96.6204 66.8544 95.7978 66.5385 94.9555C66.2226 94.1 66.0975 93.4748 66.1633 93.08C68.2165 92.672 69.7696 92.4943 70.8225 92.547C71.8623 92.5865 76.6662 92.2311 85.2344 91.4809C93.8157 90.7307 98.7512 90.4543 100.041 90.6517C100.133 92.5338 99.995 93.9882 99.6265 95.0147C98.9289 95.5544 98.1458 96.0019 97.2772 96.3572Z" fill="#2B233D"/>
<path d="M93.3683 97.5652C94.7108 97.2757 96.0138 96.8743 97.2773 96.361C98.146 96.0056 98.9291 95.5581 99.6266 95.0185C99.9951 93.9919 100.133 92.5375 100.041 90.6554C98.7514 90.458 93.8158 90.7344 85.2345 91.4846C76.6664 92.2348 71.8625 92.5902 70.8227 92.5507C69.7698 92.4981 68.2167 92.6757 66.1635 93.0838C66.0977 93.4786 66.2228 94.1038 66.5386 94.9593C66.8545 95.8016 67.2033 96.6242 67.585 97.427C67.6376 97.5192 67.6837 97.6113 67.7232 97.7034C69.2894 98.6379 71.132 99.1578 73.251 99.2631C80.0292 99.579 86.7349 99.013 93.3683 97.5652ZM74.5737 101.83C75.7977 102.211 77.1073 102.547 78.5024 102.836C82.2403 103.626 86.2151 102.975 90.4268 100.882C92.9406 99.6184 94.8819 98.5918 96.2507 97.8021C93.4078 98.8814 90.4531 99.6185 87.3864 100.013C84.3724 100.408 81.3453 100.711 78.305 100.921C77.0546 101.014 75.8241 101.014 74.6132 100.921C74.6132 100.987 74.6066 101.053 74.5935 101.119C74.5803 101.171 74.5671 101.231 74.554 101.297C74.554 101.389 74.5606 101.474 74.5737 101.553C74.5869 101.619 74.5935 101.678 74.5935 101.731C74.5935 101.757 74.5869 101.783 74.5737 101.81V101.83Z" fill="white"/>
</svg>
