<svg width="45" height="44" viewBox="0 0 45 44" fill="none" xmlns="http://www.w3.org/2000/svg">
<g id="Group 1228">
<g id="Group">
<g id="Layer0_3_FILL">
<path id="Vector" d="M19.8734 11.1074C20.058 11.0601 20.0559 11.0408 19.8669 11.0494C19.8798 11.0623 19.882 11.0816 19.8734 11.1074Z" fill="#8FDE5D"/>
</g>
</g>
<g id="Group_2">
<g id="Layer0_3_MEMBER_0_FILL">
<path id="Vector_2" d="M29.2333 33.6468H27.771C27.9256 33.9732 28.0845 34.2974 28.2477 34.6195C28.3078 34.7311 28.3679 34.8449 28.428 34.9609C28.8446 35.764 29.2461 36.5756 29.6326 37.3958L29.6262 37.4023C29.6391 37.4238 29.652 37.4474 29.6648 37.4731C29.7894 37.7394 29.9118 38.0078 30.032 38.2784C30.075 38.3728 30.4121 39.1458 31.0434 40.5974C31.2925 40.9839 32.278 41.3618 34.0001 41.7311C35.7222 42.1004 36.77 42.1176 37.1437 41.7826C37.3283 41.3618 37.3562 41.0333 37.2274 40.7971C37.1029 40.5609 36.9203 40.3418 36.6799 40.14C36.5381 40.0198 36.3191 39.9038 36.0228 39.7922C35.078 39.4314 33.8777 39.2983 32.4219 39.3928C31.8765 38.2333 31.447 37.3293 31.1336 36.6808C31.0047 36.4103 30.8866 36.1655 30.7793 35.9465C30.7707 35.9293 30.7642 35.9121 30.7599 35.8949C30.4121 35.1606 30.1308 34.5336 29.9161 34.014C29.8645 33.8851 29.7593 33.5566 29.6004 33.0284L29.2333 33.6468Z" fill="#443078"/>
</g>
</g>
<g id="Group_3">
<g id="Layer0_3_MEMBER_0_MEMBER_0_FILL">
<path id="Vector_3" d="M29.2333 33.6468H27.771C27.9256 33.9732 28.0845 34.2974 28.2477 34.6195C28.3078 34.7311 28.3679 34.8449 28.428 34.9609C28.8446 35.764 29.2461 36.5756 29.6326 37.3959L29.6262 37.4023C29.6391 37.4238 29.652 37.4474 29.6648 37.4732C30.3305 37.1725 30.8201 36.9084 31.1336 36.6808C31.0047 36.4103 30.8866 36.1655 30.7793 35.9465C30.7707 35.9293 30.7642 35.9121 30.7599 35.8949C30.4121 35.1606 30.1308 34.5336 29.9161 34.014C29.8645 33.8851 29.7593 33.5566 29.6004 33.0284L29.2333 33.6468Z" fill="#2E2055"/>
</g>
</g>
<g id="Group_4">
<g id="Layer0_3_MEMBER_1_FILL">
<path id="Vector_4" d="M37.7814 16.9693L37.7556 17.0917L37.7685 17.1303C37.7728 17.0788 37.7771 17.0251 37.7814 16.9693ZM40.4225 4.45309C40.2636 4.49603 40.1111 4.55401 39.9651 4.62702C39.5614 4.80309 39.4154 5.02855 39.5271 5.30339C39.5657 5.41934 39.6602 5.62977 39.8105 5.93468C39.9565 6.23958 40.1669 6.66903 40.4418 7.22301C40.4847 7.3089 40.4633 7.51289 40.3774 7.83497C40.3645 7.91657 40.2271 8.24939 39.9651 8.83344C39.9608 8.84632 39.8835 9.04816 39.7332 9.43896C39.5829 9.82546 39.2308 11.0215 38.6768 13.027C38.1228 15.0282 37.8844 16.2564 37.9617 16.7116C38.039 17.1625 38.0648 17.5684 38.039 17.9291L38.6639 19.8101L39.1084 20.1257C39.9071 16.119 40.459 13.6175 40.7639 12.6211C41.0645 11.6248 41.4102 10.6135 41.801 9.58711C41.9084 9.29939 42.0136 9.04816 42.1166 8.83344C42.3829 8.27945 42.6298 7.9681 42.8574 7.89939C43.1666 7.80062 43.4179 7.68038 43.6111 7.53866C43.9203 7.26811 44.0749 6.93529 44.0749 6.5402C44.0577 6.32977 44.0148 6.13652 43.9461 5.96045C44.2939 5.71566 44.4786 5.38284 44.5001 4.96198C44.4872 4.50248 44.309 4.0945 43.9654 3.73806C43.6047 3.39451 43.201 3.19696 42.7544 3.14543C42.5998 3.10678 42.4688 3.11966 42.3614 3.18408C42.3228 3.19267 42.2841 3.20984 42.2455 3.23561C42.1682 3.17119 42.0823 3.11537 41.9878 3.06813C41.6829 2.90064 41.3866 2.81046 41.0988 2.79758C40.7725 2.81475 40.5384 2.96077 40.3967 3.23561C40.2593 3.45892 40.2228 3.69727 40.2872 3.95064C40.3259 4.09236 40.3645 4.24051 40.4031 4.39511C40.4031 4.41659 40.4096 4.43591 40.4225 4.45309ZM42.0136 7.26166C42.0007 7.28743 41.9942 7.3132 41.9942 7.33897C41.99 7.3132 41.9921 7.28743 42.0007 7.26166C42.005 7.26166 42.0093 7.26166 42.0136 7.26166Z" fill="#443078"/>
<path id="Vector_5" d="M41.9941 7.33891C41.9941 7.31315 42.0005 7.28738 42.0134 7.26161C42.0091 7.26161 42.0048 7.26161 42.0005 7.26161C41.9919 7.28738 41.9898 7.31315 41.9941 7.33891Z" fill="#2B233D"/>
</g>
</g>
<g id="Group_5">
<g id="Layer0_3_MEMBER_1_MEMBER_0_FILL">
<path id="Vector_6" d="M40.8606 5.445C40.8392 5.445 40.8263 5.45144 40.822 5.46433C41.1269 5.73488 41.5005 5.97966 41.9428 6.19868C42.2692 6.35757 42.6214 6.39623 42.9993 6.31463C43.1882 6.27169 43.3364 6.20727 43.4438 6.12138C43.4695 6.07414 43.491 6.03334 43.5082 5.99899C43.564 5.87445 43.5919 5.70482 43.5919 5.49009V5.48365C43.5361 5.32905 43.4395 5.16586 43.302 4.99409C43.1904 4.83949 43.068 4.71924 42.9349 4.63335C42.9306 4.61617 42.9327 4.59899 42.9413 4.58182C42.9757 4.25973 42.8984 3.972 42.7094 3.71863C42.6536 3.64562 42.6042 3.58121 42.5612 3.52538C42.5741 3.52538 42.587 3.52753 42.5999 3.53182C42.5655 3.51035 42.5333 3.49103 42.5033 3.47385C42.3701 3.40084 42.2757 3.36434 42.2198 3.36434V3.40299C42.2628 3.4717 42.3079 3.56833 42.3551 3.69286C42.3938 3.79593 42.4195 3.89041 42.4324 3.9763C42.4925 4.06219 42.5376 4.15452 42.5677 4.25329C42.5763 4.31341 42.5935 4.37998 42.6192 4.45298C42.3057 4.31556 41.9579 4.27262 41.5757 4.32415C41.4425 4.37139 41.2922 4.39071 41.1248 4.38213C41.0346 4.37783 40.9465 4.38212 40.8606 4.39501C40.6287 4.52814 40.4269 4.7085 40.2551 4.93611C40.8993 4.65697 41.5993 4.63335 42.3551 4.86525C42.8275 5.00697 43.1002 5.30329 43.1732 5.7542C43.1861 5.8315 43.1968 5.9088 43.2054 5.9861C42.5999 6.03334 42.0266 5.9088 41.4855 5.61249C41.2793 5.50512 41.0711 5.4493 40.8606 5.445Z" fill="#2B233D"/>
</g>
</g>
<g id="Group_6">
<g id="Layer0_3_MEMBER_2_FILL">
<path id="Vector_7" d="M17.3999 13.4715C16.9576 12.5482 16.2511 11.8117 15.2806 11.262C14.2241 10.6736 13.0883 10.2334 11.8729 9.94143C10.868 9.68805 9.84381 9.54848 8.80026 9.52272C8.12603 9.50983 7.45394 9.5764 6.78401 9.72241C6.73247 9.74388 6.67879 9.75891 6.62296 9.7675C6.49413 9.79756 6.36314 9.82548 6.23002 9.85124C6.13124 9.87271 6.06898 9.90707 6.04321 9.95431C9.96835 10.1347 13.7539 11.3071 17.3999 13.4715Z" fill="#8FDE5D"/>
<path id="Vector_8" d="M17.2517 13.5616C17.3076 13.5487 17.3591 13.5294 17.4063 13.5036C17.4063 13.4951 17.4042 13.4843 17.3999 13.4714C13.7539 11.307 9.96835 10.1346 6.04321 9.95427C6.49843 10.9721 7.28216 11.7644 8.39443 12.3313C9.63123 12.9625 10.9518 13.3834 12.3561 13.5938C13.988 13.8429 15.6199 13.8322 17.2517 13.5616Z" fill="#619442"/>
</g>
</g>
<g id="Group_7">
<g id="Group_8">
<g id="shad_0_Layer0_0_FILL">
<path id="Vector_9" d="M39.2357 40.953C39.2357 40.1962 37.7032 39.5451 34.6382 38.9995C31.5732 38.4715 27.8689 38.2075 23.5252 38.2075C19.1815 38.2075 15.4772 38.4715 12.4122 38.9995C9.3472 39.5451 7.8147 40.1962 7.8147 40.953C7.8147 41.6922 9.3472 42.3258 12.4122 42.8538C15.4772 43.417 19.1815 43.6986 23.5252 43.6986C27.8689 43.6986 31.5732 43.417 34.6382 42.8538C37.7032 42.3258 39.2357 41.6922 39.2357 40.953Z" fill="#16141C" fill-opacity="0.2"/>
</g>
</g>
</g>
<g id="Group_9">
<g id="Layer0_3_MEMBER_4_FILL">
<path id="Vector_10" d="M19.2164 36.1205C18.8642 36.842 18.3768 37.8877 17.7541 39.2576C16.3842 39.1631 15.1195 39.337 13.96 39.7794C13.7238 39.8738 13.5456 39.9726 13.4253 40.0757C13.1848 40.2775 13.0023 40.4965 12.8778 40.7327C12.7489 40.9689 12.7768 41.2975 12.9615 41.7183C13.3351 42.0533 14.383 42.0361 16.105 41.6668C17.8271 41.2975 18.8127 40.9195 19.0618 40.533C19.6931 39.0815 20.0302 38.3085 20.0731 38.214C20.1719 37.995 20.2707 37.7782 20.3694 37.5634C20.8547 36.5456 21.4087 35.3883 22.0314 34.0914L20.7624 32.7128L20.0087 34.3619C19.7725 34.8815 19.5084 35.4677 19.2164 36.1205Z" fill="#443078"/>
<path id="Vector_11" d="M23.1523 34.1042C23.1394 34.0999 23.1287 34.0956 23.1201 34.0913H23.1072C23.1201 34.0956 23.1351 34.0999 23.1523 34.1042Z" fill="#2E2055"/>
</g>
</g>
<g id="Group_10">
<g id="Layer0_3_MEMBER_4_MEMBER_0_FILL">
<path id="Vector_12" d="M19.2163 36.1269C19.547 36.7883 19.9313 37.2671 20.3694 37.5634C20.8546 36.5456 21.4086 35.3883 22.0313 34.0914L20.7623 32.7128L20.0086 34.3619C19.7724 34.8815 19.5083 35.4677 19.2163 36.1205V36.1269Z" fill="#2E2055"/>
</g>
</g>
<g id="Group_11">
<g id="Layer0_3_MEMBER_5_FILL">
<path id="Vector_13" d="M16.9875 0.871631C16.9403 0.764269 16.8952 0.663349 16.8523 0.568871C16.7836 1.80997 16.5474 3.04248 16.1437 4.2664C15.6584 5.74369 15.6026 7.19307 15.9762 8.61454C16.2897 9.8041 16.9811 10.7618 18.0504 11.4875C17.9903 11.0881 17.9495 10.6737 17.928 10.2443C17.898 9.62159 17.9259 8.7627 18.0118 7.66761C18.102 6.5124 18.1406 5.68572 18.1277 5.18756C18.1106 4.27714 17.9774 3.46333 17.7283 2.74616C17.5609 2.26089 17.3139 1.63604 16.9875 0.871631Z" fill="#8FDE5D"/>
<path id="Vector_14" d="M16.8523 0.536598C16.8523 0.549482 16.8523 0.560218 16.8523 0.568807C16.8952 0.663285 16.9403 0.764205 16.9876 0.871567C17.3139 1.63598 17.5609 2.26082 17.7284 2.7461C17.9774 3.46327 18.1106 4.27707 18.1278 5.1875C18.1406 5.68565 18.102 6.51234 18.0118 7.66755C17.9259 8.76263 17.898 9.62153 17.9281 10.2442C17.9495 10.6737 17.9903 11.0881 18.0504 11.4875C18.132 11.539 18.2115 11.5884 18.2888 11.6356C18.598 11.8246 18.8471 12.0415 19.036 12.2862C19.0575 12.2046 19.0833 12.1252 19.1133 12.0479C19.1563 11.9534 19.1971 11.8611 19.2357 11.7709C19.3173 11.5003 19.4182 11.2298 19.5385 10.9592C20.144 9.55925 20.4146 8.13135 20.3501 6.67553C20.2986 5.45161 19.9035 4.35008 19.1649 3.37094C18.4348 2.38751 17.6639 1.44273 16.8523 0.536598Z" fill="#619442"/>
</g>
</g>
<g id="Group_12">
<g id="Layer0_3_MEMBER_6_FILL">
<path id="Vector_15" d="M15.7702 10.8432L15.7186 10.972C15.7143 10.9763 15.71 10.9849 15.7058 10.9978C15.7015 11.0064 15.6993 11.0193 15.6993 11.0365L15.6929 11.0429H15.6993C15.695 11.1245 15.7337 11.2598 15.8153 11.4487C15.9183 11.6935 16.0858 11.9404 16.3177 12.1895C16.3564 12.2325 16.3993 12.2754 16.4465 12.3184C16.5196 12.3828 16.6527 12.4966 16.8459 12.6598C17.0306 12.8015 17.1637 12.9131 17.2453 12.9947C17.2582 13.0076 17.357 13.1085 17.5416 13.2975C18.2588 14.0447 18.656 14.4613 18.7333 14.5472C18.8364 14.6545 18.9159 14.7168 18.9717 14.734C19.079 14.7984 19.2014 14.8091 19.3389 14.7662C19.4333 14.7361 19.5471 14.6803 19.6803 14.5987C19.8563 14.4656 20.0088 14.3389 20.1376 14.2187C20.1892 14.1671 20.2386 14.1177 20.2858 14.0705C20.3073 14.049 20.3266 14.0254 20.3438 13.9996C20.507 13.7892 20.6186 13.5766 20.6787 13.3619C20.5628 13.3319 20.4554 13.3447 20.3566 13.4006L19.0812 12.1187C18.8536 11.8997 18.6818 11.7236 18.5659 11.5905C18.3683 11.3285 18.218 11.1438 18.1149 11.0365C18.0119 10.9506 17.8573 10.8217 17.6511 10.65C17.5051 10.534 17.3849 10.4524 17.2904 10.4052C17.1487 10.3236 16.9898 10.2699 16.8137 10.2441C16.6376 10.2098 16.4745 10.2098 16.3242 10.2441C16.1438 10.2828 15.9999 10.3601 15.8926 10.476C15.8926 10.4803 15.8904 10.4846 15.8861 10.4889C15.8646 10.5619 15.826 10.68 15.7702 10.8432Z" fill="#2E2055"/>
</g>
</g>
<g id="Group_13">
<g id="Layer0_3_MEMBER_6_MEMBER_0_FILL">
<path id="Vector_16" d="M15.8927 10.476C15.8927 10.4803 15.8905 10.4846 15.8862 10.4889C17.1617 11.5454 17.9282 12.2475 18.1859 12.5954C18.4393 12.9389 18.7485 12.9733 19.1135 12.6984L20.3439 13.9996C20.5071 13.7892 20.6187 13.5766 20.6788 13.3619C20.5629 13.3319 20.4555 13.3447 20.3568 13.4006L19.0813 12.1187C18.8537 11.8996 18.6819 11.7236 18.566 11.5904C18.3684 11.3285 18.2181 11.1438 18.115 11.0365C18.012 10.9506 17.8574 10.8217 17.6512 10.65C17.5052 10.534 17.385 10.4524 17.2905 10.4052C17.1488 10.3236 16.9899 10.2699 16.8138 10.2441C16.6378 10.2098 16.4746 10.2098 16.3243 10.2441C16.1439 10.2828 16 10.3601 15.8927 10.476Z" fill="#443078"/>
</g>
</g>
<g id="Group_14">
<g id="Layer0_3_MEMBER_7_FILL">
<path id="Vector_17" d="M24.4535 9.76739C23.6418 9.89193 22.8259 10.0766 22.0056 10.3214C20.9621 10.6478 20.0044 11.0858 19.1326 11.6355C18.6001 11.949 18.1084 12.2882 17.6575 12.6533C17.1422 12.9882 16.7192 13.3898 16.3885 13.8579C16.0063 14.2916 15.5704 14.8778 15.0808 15.6164C14.5784 16.3551 14.1511 17.2634 13.7989 18.3413C13.4124 19.3977 13.2213 20.4627 13.2256 21.5364C13.1225 22.5498 13.1977 23.5354 13.4511 24.4931C13.7087 25.571 14.121 26.621 14.6879 27.6431C15.0787 28.3946 15.5038 29.129 15.9633 29.8461C16.5474 30.7437 17.2259 31.5618 17.9989 32.3004C18.7676 33.0133 19.6458 33.5522 20.6336 33.9173C21.5225 34.2694 22.4265 34.5099 23.3455 34.6387C23.7406 34.6817 24.1614 34.7418 24.6081 34.8191C25.7117 34.9608 26.8219 34.9995 27.9384 34.9351C28.8445 34.8878 29.7829 34.7869 30.7534 34.6323C31.7584 34.4648 32.7718 34.1578 33.7939 33.7111C34.3522 33.4277 34.9255 33.1271 35.5138 32.8093C36.0206 32.5259 36.508 32.1802 36.9761 31.7722C37.8651 30.9863 38.5651 29.9492 39.0761 28.6609C39.2221 28.2486 39.3595 27.8342 39.4884 27.4176C39.892 26.125 40.1411 24.6262 40.2356 22.9213C40.2743 21.7962 40.2335 20.7741 40.1132 19.8551C40.0058 19.0735 39.8641 18.3434 39.6881 17.6649C39.3574 16.4625 38.8528 15.4232 38.1743 14.5471C37.573 13.7569 36.9095 13.0677 36.1838 12.4793C35.4537 11.8953 34.7237 11.3864 33.9936 10.9527C33.0274 10.3987 32.0096 10.0251 30.9403 9.83181C29.8623 9.66433 28.8016 9.55482 27.7581 9.50328C26.6587 9.50758 25.5572 9.59561 24.4535 9.76739Z" fill="#5B57AB"/>
</g>
</g>
<g id="Group_15">
<g id="Layer0_3_MEMBER_7_MEMBER_0_FILL">
<path id="Vector_18" d="M13.2256 21.5362C13.1225 22.5497 13.1977 23.5353 13.4511 24.493C13.7087 25.5709 14.121 26.6209 14.6879 27.643C15.0787 28.3945 15.5038 29.1288 15.9633 29.846C16.5474 30.7436 17.2259 31.5617 17.9989 32.3003C18.7676 33.0132 19.6458 33.5521 20.6336 33.9172C21.5225 34.2693 22.4265 34.5098 23.3455 34.6386C23.7406 34.6816 24.1614 34.7417 24.6081 34.819C25.7117 34.9607 26.8219 34.9994 27.9384 34.935C28.8445 34.8877 29.7829 34.7868 30.7534 34.6322C31.7584 34.4647 32.7718 34.1577 33.7939 33.711C34.3522 33.4276 34.9255 33.127 35.5138 32.8092C36.0206 32.5258 36.508 32.1801 36.9761 31.7721C37.8651 30.9862 38.5651 29.9491 39.0761 28.6608C39.2221 28.2485 39.3595 27.8341 39.4884 27.4175C39.892 26.1249 40.1411 24.6261 40.2356 22.9212C40.1454 23.7329 39.4003 25.1006 38.0003 27.0246C36.5961 28.6736 35.181 29.7988 33.7553 30.4C32.2866 30.9454 30.9102 31.3104 29.6262 31.4951C28.312 31.6497 27.0903 31.742 25.9608 31.7721C24.724 31.7764 23.4529 31.6325 22.1473 31.3405C20.7345 30.9755 19.356 30.3506 18.0118 29.466C16.556 28.5126 15.5274 27.454 14.9262 26.2902C14.209 25.0534 13.7732 24.0893 13.6186 23.3979C13.4382 22.7194 13.3072 22.0988 13.2256 21.5362Z" fill="#3E3A7A"/>
</g>
</g>
<g id="Group_16">
<g id="Layer0_3_MEMBER_8_FILL">
<path id="Vector_19" d="M33.8585 20.7505C33.8585 20.6432 33.8155 20.553 33.7297 20.48C33.6566 20.4242 33.575 20.3941 33.4849 20.3898C33.107 20.6432 32.918 21.034 32.918 21.5622C32.9223 22.0088 33.0919 22.3567 33.4269 22.6057C33.7919 22.872 33.9938 22.8119 34.0324 22.4254C34.0839 21.953 33.9658 21.5128 33.6781 21.1048C33.7125 21.0748 33.7447 21.0426 33.7747 21.0082C33.8306 20.9352 33.8585 20.8493 33.8585 20.7505ZM32.4606 20.087C32.3447 20.2588 32.276 20.4478 32.2545 20.6539C32.2502 20.7011 32.2481 20.7484 32.2481 20.7956C32.1879 20.8042 32.1257 20.8235 32.0612 20.8536C31.8465 20.9438 31.634 21.0447 31.4235 21.1564C31.1873 21.2852 30.9468 21.4054 30.7021 21.5171C30.483 21.6159 30.3177 21.7511 30.2061 21.9229C30.2791 22.0303 30.3821 22.0582 30.5152 22.0067C30.687 21.9337 30.8652 21.8564 31.0499 21.7748C31.3119 21.6545 31.5588 21.5192 31.7907 21.3689C31.9453 21.2659 32.0978 21.1671 32.2481 21.0726C32.2481 21.0812 32.2481 21.0919 32.2481 21.1048C32.2567 21.2165 32.2932 21.3002 32.3576 21.3561C32.4435 21.1499 32.5293 20.9266 32.6152 20.6861C32.933 19.8229 33.4162 19.7585 34.0646 20.4929C34.6658 21.1714 34.8591 21.9422 34.6444 22.8054C34.5155 23.3294 34.1849 23.5226 33.6524 23.3852C33.1928 23.2649 32.8106 23.207 32.5057 23.2113C32.6475 23.4131 32.8192 23.5763 33.0211 23.7008C32.8751 23.907 32.7376 24.1217 32.6088 24.345C32.4628 24.6027 32.3232 24.8668 32.1901 25.1373C32.0655 25.395 32.0634 25.6462 32.1836 25.891C32.2824 25.9082 32.3511 25.8652 32.3898 25.7622C32.4886 25.4873 32.6002 25.2125 32.7247 24.9376C32.8493 24.6671 32.9975 24.4073 33.1692 24.1582C33.2465 24.0465 33.3002 23.9413 33.3303 23.8425C33.3603 23.8511 33.3925 23.8619 33.4269 23.8748C34.1011 24.068 34.6014 23.8597 34.9278 23.2499C35.3358 22.4941 35.3787 21.7125 35.0566 20.9051C34.8076 20.2696 34.4082 19.8466 33.8585 19.6361C33.6566 19.5588 33.4333 19.5094 33.1885 19.488V19.4944C33.0898 19.5331 33.0017 19.5803 32.9244 19.6361C32.7398 19.7521 32.5852 19.9024 32.4606 20.087Z" fill="#2B233D"/>
<path id="Vector_20" d="M36.4415 19.6103C36.8409 19.4557 37.1329 19.2581 37.3176 19.0176C37.5366 18.7514 37.6032 18.4937 37.5173 18.2446C37.4701 18.1158 37.3584 18.0256 37.1823 17.9741C37.0964 17.9483 37.0041 17.9161 36.9053 17.8775C36.5575 17.8259 36.1946 17.8753 35.8167 18.0256C35.6964 18.0943 35.5848 18.1566 35.4817 18.2124C35.2584 18.337 35.0802 18.483 34.9471 18.6505C34.7495 18.9253 34.6894 19.1808 34.7667 19.417C34.8569 19.5802 35.0566 19.709 35.3658 19.8035C35.7007 19.825 36.0593 19.7606 36.4415 19.6103ZM24.8014 23.9262C24.9388 23.7158 24.9689 23.5161 24.8916 23.3271C24.8014 23.1124 24.5931 22.9857 24.2667 22.9471C23.9532 22.8869 23.6054 22.932 23.2232 23.0823C22.8324 23.2498 22.5318 23.4495 22.3214 23.6814C22.1582 23.9176 22.0937 24.1259 22.1281 24.3063C22.1367 24.3406 22.141 24.3814 22.141 24.4287C22.2269 24.6434 22.4309 24.7636 22.7529 24.7894C23.0707 24.8667 23.4186 24.8216 23.7965 24.6541C24.183 24.5167 24.4922 24.3127 24.7241 24.0422C24.7542 24.0035 24.7799 23.9648 24.8014 23.9262Z" fill="#3E3A7A"/>
</g>
</g>
<g id="Group_17">
<g id="Layer0_3_MEMBER_9_FILL">
<path id="Vector_21" d="M36.0292 14.3025C35.8746 13.3792 35.486 12.5353 34.8633 11.7709C33.489 10.0918 31.855 9.643 29.9611 10.4246C28.2133 11.1504 27.7774 12.7178 28.6535 15.127C29.0142 16.1362 29.5295 16.9672 30.1995 17.62C30.9725 18.3672 31.7949 18.7344 32.6667 18.7215C33.5427 18.7043 34.2985 18.4488 34.9341 17.9549C35.574 17.4568 35.9498 16.9178 36.0614 16.3381C36.1688 15.7583 36.158 15.0798 36.0292 14.3025ZM25.278 13.8451C24.1057 12.4795 22.6047 12.1338 20.7753 12.808C18.9459 13.4822 17.9109 14.6997 17.6704 16.4605C17.4213 18.2255 17.825 19.7672 18.8814 21.0856C19.925 22.4083 21.1575 22.9708 22.579 22.7733C23.9961 22.5715 25.0934 22.1098 25.8707 21.3883C26.6437 20.6755 27.028 19.5825 27.0237 18.1095C27.0194 16.6236 26.4375 15.2022 25.278 13.8451Z" fill="white"/>
</g>
</g>
<g id="Group_18">
<g id="Group_19">
<g id="pupil1_0_Layer0_0_FILL">
<path id="Vector_22" d="M32.7968 15.6081C32.9522 15.167 32.9456 14.6568 32.7772 14.0776C32.6055 13.4878 32.3085 13.0522 31.8863 12.7706C31.4485 12.4819 31.0313 12.3867 30.6348 12.4849C30.235 12.5725 29.9012 12.807 29.6336 13.1881C29.3626 13.5587 29.3274 14.0634 29.5278 14.7021C29.7282 15.3408 30.017 15.8356 30.3942 16.1865C30.7682 16.5269 31.221 16.6294 31.7527 16.4939C32.2934 16.3445 32.6415 16.0493 32.7968 15.6081Z" fill="#100E15"/>
</g>
</g>
<g id="Group_20">
<g id="pupil1_0_Layer0_1_FILL">
<path id="Vector_23" d="M31.1718 15.9203C31.1291 15.7841 31.0537 15.714 30.9455 15.7097C30.8127 15.7122 30.7194 15.7551 30.6653 15.8383C30.6113 15.9215 30.6097 16.0016 30.6606 16.0785C30.7025 16.1694 30.8049 16.198 30.968 16.1643C31.131 16.1306 31.199 16.0493 31.1718 15.9203ZM31.5882 13.9279C31.8406 13.881 31.9252 13.704 31.8422 13.397C31.7592 13.09 31.6186 12.9183 31.4202 12.8821C31.2096 12.8492 31.0737 12.9266 31.0123 13.1142C30.9354 13.2947 30.9483 13.4846 31.0509 13.6838C31.1445 13.8969 31.3236 13.9783 31.5882 13.9279Z" fill="white"/>
</g>
</g>
</g>
<g id="Group_21">
<g id="Group_22">
<g id="pupil1_0_Layer0_0_FILL_2">
<path id="Vector_24" d="M25.5372 18.2252C25.6791 17.7184 25.6429 17.1438 25.4284 16.5012C25.2098 15.847 24.8652 15.3741 24.3946 15.0825C23.9069 14.784 23.4524 14.7022 23.0311 14.8371C22.6058 14.9604 22.26 15.2451 21.9937 15.691C21.7232 16.1254 21.7142 16.6965 21.9665 17.4041C22.2188 18.1117 22.558 18.6517 22.9842 19.0242C23.4061 19.385 23.8994 19.4728 24.464 19.2875C25.0375 19.086 25.3952 18.7319 25.5372 18.2252Z" fill="#100E15"/>
</g>
</g>
<g id="Group_23">
<g id="pupil1_0_Layer0_1_FILL_2">
<path id="Vector_25" d="M23.8061 18.6766C23.7523 18.5258 23.6671 18.4513 23.5504 18.4531C23.4077 18.4641 23.3096 18.5181 23.2562 18.6152C23.2029 18.7123 23.2057 18.8026 23.2649 18.8863C23.3152 18.9861 23.4271 19.0121 23.6007 18.9641C23.7742 18.9162 23.8427 18.8204 23.8061 18.6766ZM24.1403 16.4054C24.4092 16.337 24.4902 16.1323 24.3833 15.7913C24.2764 15.4504 24.1151 15.2655 23.8996 15.2368C23.671 15.2127 23.5291 15.3082 23.4738 15.5234C23.4014 15.7316 23.4261 15.9449 23.5479 16.1631C23.6608 16.3976 23.8583 16.4783 24.1403 16.4054Z" fill="white"/>
</g>
</g>
</g>
<g id="Group_24">
<g id="Layer0_3_MEMBER_10_FILL">
<path id="Vector_26" d="M5.05754 15.1849C5.04465 15.172 5.03392 15.1569 5.02533 15.1398C4.82349 14.9079 4.59374 14.7125 4.33607 14.5536C4.0784 14.3861 3.80142 14.268 3.5051 14.1993C3.19161 14.122 2.86952 14.1499 2.53885 14.283C2.0321 14.4333 1.61124 14.7125 1.27627 15.1204C1.0229 15.4296 0.967064 15.7625 1.10878 16.1189C1.11308 16.1275 1.11738 16.1382 1.12168 16.1511C1.14744 16.2112 1.1775 16.2714 1.21185 16.3315C1.20756 16.3358 1.20327 16.3379 1.19897 16.3379C0.662167 16.8103 0.434554 17.4008 0.516149 18.1094C0.571977 18.6376 0.81677 19.0692 1.25051 19.4042C2.07934 20.0397 2.96613 20.19 3.91091 19.8551C4.24588 19.7305 4.48208 19.5953 4.6195 19.4492C4.79128 19.5652 4.96736 19.6747 5.14773 19.7778C5.46552 19.9667 5.78116 20.1664 6.09466 20.3769C7.47747 21.2959 8.31703 21.8821 8.61335 22.1354C8.90537 22.3888 9.38636 22.7946 10.0563 23.3529C10.7262 23.9069 11.5271 24.6735 12.459 25.6526C13.3909 26.6274 14.0072 27.2695 14.3078 27.5787C14.5955 27.8707 14.8553 28.1155 15.0872 28.313L14.5977 26.4192C14.1811 24.8087 12.9808 23.2133 10.9968 21.633C9.00844 20.0483 7.8017 19.1508 7.37654 18.9404C6.95139 18.7299 6.39741 18.395 5.71459 17.9355C5.706 17.9183 5.69957 17.9032 5.69527 17.8904C5.91 17.6756 6.10539 17.4394 6.28146 17.1818C6.60784 16.7223 6.65078 16.2263 6.41029 15.6937C6.20416 15.2385 5.83913 15.0861 5.31521 15.2364C5.27226 15.2493 5.23147 15.2643 5.19282 15.2815C5.16705 15.2901 5.14129 15.2987 5.11552 15.3072C5.10693 15.2643 5.0876 15.2235 5.05754 15.1849Z" fill="#443078"/>
</g>
</g>
<g id="Group_25">
<g id="Layer0_3_MEMBER_10_MEMBER_0_FILL">
<path id="Vector_27" d="M1.79163 16.7952C1.77875 16.7866 1.76801 16.7802 1.75943 16.7759C1.60483 16.6771 1.47384 16.5633 1.36648 16.4345C1.35789 16.4216 1.34931 16.4108 1.34072 16.4022C1.30636 16.3593 1.2806 16.3185 1.26342 16.2799C1.18182 16.4173 1.11741 16.5418 1.07017 16.6535L1.06372 16.647C1.06827 16.6518 1.07256 16.6583 1.0766 16.6664V16.6599C1.24838 16.8532 1.42231 16.9777 1.59838 17.0335C1.74869 17.0722 1.87108 17.0593 1.96556 16.9949C1.9355 16.9133 1.87752 16.8467 1.79163 16.7952ZM5.11555 16.6986C5.09837 16.69 5.08119 16.6921 5.06401 16.705C4.69469 16.9154 4.37045 17.2032 4.09131 17.5682C3.78211 17.9762 3.42137 18.1093 3.00911 17.9676C2.99622 17.9633 2.9812 17.9525 2.96402 17.9354C2.97261 17.6004 3.09715 17.2955 3.33764 17.0206C3.69837 16.617 4.16003 16.1016 4.7226 15.4746C3.81218 15.8912 3.16372 16.428 2.77722 17.0851C2.62691 17.3384 2.57967 17.5961 2.6355 17.8581C2.78581 18.6139 3.23673 18.7213 3.98826 18.1802C4.56371 17.7722 4.93948 17.2783 5.11555 16.6986Z" fill="#2B233D"/>
</g>
</g>
</g>
</svg>
