<svg fill="none" height="300" viewBox="0 0 420 300" width="420" xmlns="http://www.w3.org/2000/svg"><path d="m134.985 258.765c-18.55 3.71-27.945 8.105-28.185 13.185-.24 5.1 8.745 9.39 26.955 12.87 18.22 3.5 40.33 5.175 66.33 5.025 25.99-.15 48.255-2.08 66.795-5.79 18.55-3.7 27.945-8.095 28.185-13.185s-8.745-9.38-26.955-12.87-40.31-5.16-66.3-5.01c-26 .15-48.275 2.075-66.825 5.775z" fill="#cbd0d9"/><path d="m384.555 172.635c1.65-2.13 2.51-3.575 2.58-4.335.08-.99-.165-1.98-.735-2.97-1.01-1.77-6.34-4.105-15.99-7.005 2.39-2.7 2.3-5.285-.27-7.755-2-1.93-5-2.895-9-2.895-1.17 0-2.42.085-3.75.255-5.91.72-9.995 2.27-12.255 4.65-2.26 2.37-3.11 5.16-2.55 8.37-.98 6.04-1.625 9.76-1.935 11.16-.33 1.4-.82 4.44-1.47 9.12-.64 4.67-2.8 7.66-6.48 8.97-.81.28-2.1.235-3.87-.135v-.015c-2.29-.6-5.02-1.435-8.19-2.505-2.94-.99-6.255-2.18-9.945-3.57-4.53-1.72-8.66-3.245-12.39-4.575-3.88 2.94-5.785 4.91-5.715 5.91.06 1.03.77 3.835 2.13 8.415 7.72 2.84 17.735 6.21 30.045 10.11 1.31.41 2.665.83 4.065 1.26v.015c.29.08.575.165.855.255 2.56.74 4.88 1.115 6.96 1.125 5.88-.01 9.92-3 12.12-8.97 2.96-8.12 5.28-16.39 6.96-24.81.02.01 2.16 1.005 6.42 2.985s8.645 2.5 13.155 1.56c4.52-.94 7.605-2.48 9.255-4.62zm-25.665-18.06-.24.54c-.12.01-.235.03-.345.06.1.03.2.055.3.075l-1.02 2.175c.08.03.155.06.225.09-2.73 5.86-2.625 7.79.315 5.79 2.07-1.43 2.895-3 2.475-4.71 7.76 2.99 12.24 4.59 13.44 4.8 1.92.35 3.945.925 6.075 1.725 2.14.8 3.4 1.86 3.78 3.18-1.15 2.37-4.325 4.1-9.525 5.19-5.22 1.07-11.53-.265-18.93-4.005-1.08-.54-2.02-1.02-2.82-1.44-.6 1.33-.575 2.225.075 2.685-.07.21-.13.435-.18.675-.87 3.72-1.715 7.44-2.535 11.16-1.33 5.91-2.95 10.905-4.86 14.985-1.91 4.07-6.39 5.845-13.44 5.325-.89-.07-1.84-.195-2.85-.375-1.5-.39-3.07-.82-4.71-1.29-6.94-2.09-15.24-5.14-24.9-9.15-.25-1.02-.525-2.045-.825-3.075-.27-.97-.3-1.875-.09-2.715.16-.8.18-1.635.06-2.505.36-.06.71-.13 1.05-.21.49.17.85.29 1.08.36 8.18 3.06 15.22 5.47 21.12 7.23 2.63.78 5.035 1.435 7.215 1.965v.015c2.71.45 4.76.425 6.15-.075 2.7-1.34 4.4-2.82 5.1-4.44.7-1.63 1.39-4.56 2.07-8.79.68-4.22 1.49-8.34 2.43-12.36.94-4.01 1.255-7.19.945-9.54-.34-2.35 1.25-4.425 4.77-6.225 3.51-1.79 8.065-2.135 13.665-1.035 5.34 1.05 3.88 2.47-4.38 4.26-.23-.12-.46-.235-.69-.345zm-7.485 5.745c.05.1.11.2.18.3.14.11-.02-.285-.48-1.185v.075c.02.08.04.165.06.255.02.11.055.21.105.3.03.08.075.165.135.255z" fill="#2b233d"/><path d="m300.495 183.915c-.23-.07-.59-.19-1.08-.36-.34.08-.69.15-1.05.21.12.87.1 1.705-.06 2.505-.21.84-.18 1.745.09 2.715.3 1.03.575 2.055.825 3.075 9.66 4.01 17.96 7.06 24.9 9.15-.29-1.25-.555-2.37-.795-3.36-.57-2.34-1.14-4.575-1.71-6.705-5.9-1.76-12.94-4.17-21.12-7.23z" fill="#2e2055"/><path d="m358.65 155.115.24-.54c.23.11.46.225.69.345 8.26-1.79 9.72-3.21 4.38-4.26-5.6-1.1-10.155-.755-13.665 1.035-3.52 1.8-5.11 3.875-4.77 6.225.31 2.35-.005 5.53-.945 9.54-.94 4.02-1.75 8.14-2.43 12.36-.68 4.23-1.37 7.16-2.07 8.79-.7 1.62-2.4 3.1-5.1 4.44-1.39.5-3.44.525-6.15.075v-.015c-2.18-.53-4.585-1.185-7.215-1.965.57 2.13 1.14 4.365 1.71 6.705.24.99.505 2.11.795 3.36 1.64.47 3.21.9 4.71 1.29 1.01.18 1.96.305 2.85.375 7.05.52 11.53-1.255 13.44-5.325 1.91-4.08 3.53-9.075 4.86-14.985.82-3.72 1.665-7.44 2.535-11.16.05-.24.11-.465.18-.675-.65-.46-.675-1.355-.075-2.685.8.42 1.74.9 2.82 1.44 7.4 3.74 13.71 5.075 18.93 4.005 5.2-1.09 8.375-2.82 9.525-5.19-.38-1.32-1.64-2.38-3.78-3.18-2.13-.8-4.155-1.375-6.075-1.725-1.2-.21-5.68-1.81-13.44-4.8.42 1.71-.405 3.28-2.475 4.71-2.94 2-3.045.07-.315-5.79-.07-.03-.145-.06-.225-.09l1.02-2.175c-.1-.02-.2-.045-.3-.075.11-.03.225-.05.345-.06zm-7.065 5.505c-.07-.1-.13-.2-.18-.3-.06-.09-.105-.175-.135-.255-.05-.09-.085-.19-.105-.3-.02-.09-.04-.175-.06-.255 0-.03 0-.055 0-.075.46.9.62 1.295.48 1.185z" fill="#443078"/><path d="m263.955 23.0549c-.27-.41-.61-.52-1.02-.33l-.03-.18c-.06.01-.125.025-.195.045-8.72 2.79-17.415 6.095-26.085 9.915-2.17.97-3.98 1.825-5.43 2.565-1.97.98-3.715 1.98-5.235 3-1.65 1.09-3.415 2.425-5.295 4.005-1.18.99-2.84 2.47-4.98 4.44-2.29 2.11-4.02 3.74-5.19 4.89-1.85 1.85-3.425 3.605-4.725 5.265-3.29 4.21-5.22 8.26-5.79 12.15-.18 1.29-.2 2.56-.06 3.81.08.71.22 1.395.42 2.055.14.51.33 1 .57 1.47.41.88.915 1.5 1.515 1.86.4.22.88.37 1.44.45.39.03.925.04 1.605.03 6.86-.08 13.435-1.105 19.725-3.075 6.89-2.15 12.92-5.28 18.09-9.39 3.22-2.56 6.135-5.53 8.745-8.91 2.48-3.2 4.61-6.655 6.39-10.365 3.22-6.82 5.15-14.28 5.79-22.38.05-.49-.035-.93-.255-1.32zm-2.805 2.7c-.03.37-.05.74-.06 1.11-.32 4.86-1.415 9.73-3.285 14.61-2.01 5.25-4.785 10.17-8.325 14.76-.99 1.3-2.055 2.565-3.195 3.795-2.57 2.74-5.575 5.175-9.015 7.305-3.25 2.03-6.74 3.695-10.47 4.995-6.75 2.35-14.12 3.49-22.11 3.42-.56-.57-1.015-1.225-1.365-1.965-.43-.94-.68-2.01-.75-3.21-.12-1.96.255-3.985 1.125-6.075.77-1.78 1.91-3.64 3.42-5.58 1.06-1.37 2.55-3.05 4.47-5.04 3.17-3.32 6.07-6.1 8.7-8.34 3.3-2.83 6.555-5.185 9.765-7.065 1.93-1.11 4.185-2.245 6.765-3.405 1.38-.6 3.715-1.58 7.005-2.94 3.79-1.52 6.615-2.63 8.475-3.33 3.15-1.19 5.995-2.19 8.535-3z" fill="#2b233d"/><path d="m249.48 56.235c3.54-4.59 6.315-9.51 8.325-14.76 1.87-4.88 2.965-9.75 3.285-14.61-1.27 2.88-2.985 5.915-5.145 9.105-4.6 6.83-10.45 13.15-17.55 18.96-8.11 6.62-17.105 11.93-26.985 15.93-2.65 1.08-5.345 2.055-8.085 2.925.35.74.805 1.395 1.365 1.965 7.99.07 15.36-1.07 22.11-3.42 3.73-1.3 7.22-2.965 10.47-4.995 3.44-2.13 6.445-4.565 9.015-7.305 1.14-1.23 2.205-2.495 3.195-3.795z" fill="#619442"/><path d="m261.09 26.8649c.01-.37.03-.74.06-1.11l-.315.045c-2.54.81-5.385 1.81-8.535 3-1.86.7-4.685 1.81-8.475 3.33-3.29 1.36-5.625 2.34-7.005 2.94-2.58 1.16-4.835 2.295-6.765 3.405-3.21 1.88-6.465 4.235-9.765 7.065-2.63 2.24-5.53 5.02-8.7 8.34-1.92 1.99-3.41 3.67-4.47 5.04-1.51 1.94-2.65 3.8-3.42 5.58-.87 2.09-1.245 4.115-1.125 6.075.07 1.2.32 2.27.75 3.21 2.74-.87 5.435-1.845 8.085-2.925 9.88-4 18.875-9.31 26.985-15.93 7.1-5.81 12.95-12.13 17.55-18.96 2.16-3.19 3.875-6.225 5.145-9.105z" fill="#8fde5d"/><path d="m242.88 279.885c-.29-.37-.73-.75-1.32-1.14-4.45-3.01-9.55-5.19-15.3-6.54-5.4-1.27-10.82-1.68-16.26-1.23-.33.03-.66.06-.99.09l-4.185.585c-.41.19-.785.38-1.125.57-1.8 1-3.095 2.145-3.885 3.435-.63 1.05-1.015 2.395-1.155 4.035-.07 1.01.15 1.715.66 2.115.22.18.52.325.9.435.26.06.615.12 1.065.18 4.7.64 9.74 1.06 15.12 1.26 4.58.17 9.64.19 15.18.06 1.84-.04 3.31-.095 4.41-.165 1.63-.12 3.085-.295 4.365-.525 1.73-.32 2.715-.885 2.955-1.695.13-.47-.015-.96-.435-1.47zm-1.905 1.11c-.89.25-1.915.435-3.075.555-.76.08-1.81.155-3.15.225-11.3.48-22.505.05-33.615-1.29-.14-1-.01-1.99.39-2.97.39-.99 1.005-1.855 1.845-2.595.85-.75 1.865-1.325 3.045-1.725 1.11-.39 2.255-.59 3.435-.6h.21v.045c4.59-.3 9.18.005 13.77.915 4.56.93 8.79 2.395 12.69 4.395 1.38.7 2.525 1.405 3.435 2.115.38.31.72.62 1.02.93z" fill="#2b233d"/><path d="m236.52 277.95c-3.9-2-8.13-3.465-12.69-4.395-4.59-.91-9.18-1.215-13.77-.915v-.045c-.08 0-.15 0-.21 0-.12.65-.32 1.17-.6 1.56-.24.31-.41.54-.51.69-.15.26-.225.57-.225.93 0 1.63 1.43 2.785 4.29 3.465 3.41.8 9.615 1.2 18.615 1.2 1.73 0 4.575-.125 8.535-.375-.91-.71-2.055-1.415-3.435-2.115z" fill="#443078"/><path d="m237.9 281.55c1.16-.12 2.185-.305 3.075-.555-.3-.31-.64-.62-1.02-.93-3.96.25-6.805.375-8.535.375-9 0-15.205-.4-18.615-1.2-2.86-.68-4.29-1.835-4.29-3.465 0-.36.075-.67.225-.93.1-.15.27-.38.51-.69.28-.39.48-.91.6-1.56-1.18.01-2.325.21-3.435.6-1.18.4-2.195.975-3.045 1.725-.84.74-1.455 1.605-1.845 2.595-.4.98-.53 1.97-.39 2.97 11.11 1.34 22.315 1.77 33.615 1.29 1.34-.07 2.39-.145 3.15-.225z" fill="#2e2055"/><path d="m164.415 283.575c1.1.06 2.57.115 4.41.165 5.54.12 10.6.095 15.18-.075 5.38-.2 10.42-.615 15.12-1.245.45-.06.805-.12 1.065-.18.38-.11.68-.26.9-.45.51-.4.735-1.105.675-2.115-.15-1.64-.54-2.985-1.17-4.035-.79-1.29-2.085-2.435-3.885-3.435-.34-.19-.715-.38-1.125-.57l-4.185-.585c-.33-.03-.66-.06-.99-.09-5.43-.45-10.85-.04-16.26 1.23-5.75 1.36-10.85 3.54-15.3 6.54-.59.39-1.03.77-1.32 1.14-.42.51-.565 1-.435 1.47.24.81 1.225 1.375 2.955 1.695 1.28.24 2.735.42 4.365.54zm-3.96-3.525c.91-.71 2.055-1.415 3.435-2.115 3.9-2 8.13-3.465 12.69-4.395 4.59-.91 9.18-1.21 13.77-.9v-.045h.21c1.18 0 2.325.195 3.435.585 1.18.41 2.195.985 3.045 1.725.84.75 1.46 1.615 1.86 2.595.39.99.515 1.98.375 2.97-11.1 1.35-22.305 1.785-33.615 1.305-1.34-.08-2.39-.155-3.15-.225-1.15-.13-2.175-.315-3.075-.555.31-.31.65-.625 1.02-.945z" fill="#2b233d"/><path d="m168.99 280.425c9 0 15.205-.4 18.615-1.2 2.87-.68 4.305-1.83 4.305-3.45 0-.37-.08-.685-.24-.945-.1-.15-.27-.38-.51-.69-.28-.39-.48-.905-.6-1.545-.06 0-.13 0-.21 0v.045c-4.59-.31-9.18-.01-13.77.9-4.56.93-8.79 2.395-12.69 4.395-1.38.7-2.525 1.405-3.435 2.115 3.96.25 6.805.375 8.535.375z" fill="#443078"/><path d="m187.605 279.225c-3.41.8-9.615 1.2-18.615 1.2-1.73 0-4.575-.125-8.535-.375-.37.32-.71.635-1.02.945.9.24 1.925.425 3.075.555.76.07 1.81.145 3.15.225 11.31.48 22.515.045 33.615-1.305.14-.99.015-1.98-.375-2.97-.4-.98-1.02-1.845-1.86-2.595-.85-.74-1.865-1.315-3.045-1.725-1.11-.39-2.255-.585-3.435-.585.12.64.32 1.155.6 1.545.24.31.41.54.51.69.16.26.24.575.24.945 0 1.62-1.435 2.77-4.305 3.45z" fill="#2e2055"/><path d="m209.355 237.585c0-.03-.01-.06-.03-.09-.15-.26-.355-.42-.615-.48h-.015c-2.22-.51-4.475-.605-6.765-.285-.76.1-1.49.285-2.19.555-.2.08-.41.105-.63.075-.05-.01-.09-.03-.12-.06l-.015-.015c-.79-.45-1.64-.735-2.55-.855-.82-.12-1.63-.225-2.43-.315-.75-.08-1.495-.15-2.235-.21-.2-.01-1.02.02-2.46.09-.08 0-.14.025-.18.075-.06.04-.09.085-.09.135 0 .16-.005.315-.015.465-.01.06-.015.12-.015.18 0 .04.005.08.015.12-.15 6.47-.14 12.315.03 17.535.01.27.025.545.045.825.13 3.25.345 9.965.645 20.145 0 .05.025.09.075.12 3.16 3.04 8.46 3.825 15.9 2.355.02-.01.035-.015.045-.015 2.06-.74 3.08-1.255 3.06-1.545v-.015c.47-6.92.665-13.915.585-20.985-.01-1.36-.035-2.725-.075-4.095-.11-4.63-.1-9.2.03-13.71zm-4.77 1.305c.44-.04.87-.095 1.29-.165.28.01.55.035.81.075h.015c.14.02.285.04.435.06h.015.24c-.09 1.86-.16 3.735-.21 5.625-.08 3.71-.09 7.41-.03 11.1v.03.105c.05 3.79.07 7.585.06 11.385-.01 2.32-1.865 5.13-5.565 8.43-.24-.62-.395-1.67-.465-3.15-.1-2.23-.155-4.8-.165-7.71-.01-2.92.03-5.965.12-9.135v-.015c.02-1.36.06-2.795.12-4.305.13-4.98.18-8.905.15-11.775.23-.14.5-.23.81-.27.36-.04.725-.085 1.095-.135.43-.05.855-.1 1.275-.15zm-5.745.54c.02.01.045.02.075.03.11.85.13 1.725.06 2.625-.16 1.83-.28 3.67-.36 5.52-.14 2.96-.215 5.535-.225 7.725v.015c-.02.84-.02 1.62 0 2.34.02 2.62.115 6.135.285 10.545.17 4.34.065 6.77-.315 7.29v-.015c-.04.07-.105.11-.195.12-.14 0-.31-.045-.51-.135-.49-.23-1.125-.69-1.905-1.38-1.61-1.43-2.755-2.565-3.435-3.405-.61-.74-.87-1.195-.78-1.365.03-.04.045-.085.045-.135-.14-8.08-.21-12.915-.21-14.505 0-.01 0-.02 0-.03-.01-2.19.03-4.38.12-6.57.13-3.46.045-6.845-.255-10.155 1.26.28 2.58.46 3.96.54.9.06 1.76.26 2.58.6.33.14.68.255 1.05.345z" fill="#2b233d"/><path d="m198.39 255.33c-2-.17-4.34-.38-7.02-.63 0 1.59.07 6.425.21 14.505 0 .05-.015.095-.045.135-.09.17.17.625.78 1.365.68.84 1.825 1.975 3.435 3.405.78.69 1.415 1.15 1.905 1.38.2.09.37.135.51.135.09-.01.155-.05.195-.12v.015c.38-.52.485-2.95.315-7.29-.17-4.41-.265-7.925-.285-10.545-.02-.72-.02-1.5 0-2.34zm8.82 11.775c.01-3.8-.01-7.595-.06-11.385 0-.03 0-.065 0-.105-.87.07-1.445.105-1.725.105-.99 0-2.42-.06-4.29-.18-.09 3.17-.13 6.215-.12 9.135.01 2.91.065 5.48.165 7.71.07 1.48.225 2.53.465 3.15 3.7-3.3 5.555-6.11 5.565-8.43z" fill="#443078"/><path d="m198.915 239.46c-.03-.01-.055-.02-.075-.03h-.015c-.37-.09-.72-.205-1.05-.345-.82-.34-1.68-.54-2.58-.6-1.38-.08-2.7-.26-3.96-.54.3 3.31.385 6.695.255 10.155-.09 2.19-.13 4.38-.12 6.57v.03c2.68.25 5.02.46 7.02.63.01-2.19.085-4.765.225-7.725.08-1.85.2-3.69.36-5.52.07-.9.05-1.775-.06-2.625zm6.96-.735c-.42.07-.85.125-1.29.165-.42.05-.845.1-1.275.15-.37.05-.735.095-1.095.135-.31.04-.58.13-.81.27.03 2.87-.02 6.795-.15 11.775-.06 1.51-.1 2.945-.12 4.305v.015c1.87.12 3.3.18 4.29.18.28 0 .855-.035 1.725-.105v-.03c-.06-3.69-.05-7.39.03-11.1.05-1.89.12-3.765.21-5.625-.08 0-.16 0-.24 0h-.015c-.15-.02-.295-.04-.435-.06h-.015c-.26-.04-.53-.065-.81-.075z" fill="#2e2055"/><path d="m196.29 79.47c1.04.41 1.115.33.225-.24-.07.08-.145.16-.225.24zm-1.38-.975c-.11-.15-.2-.29-.27-.42-5.28-7.51-14-14.13-26.16-19.86-9.94-4.68-19.515-7.685-28.725-9.015-5.02-.72-9.84-.9-14.46-.54-4.53.32-8.695 1.145-12.495 2.475.58.42 6.005 1.895 16.275 4.425 10.31 2.49 20.775 5.555 31.395 9.195 10.63 3.62 20.145 7.435 28.545 11.445 2.3 1.05 4.1 1.875 5.4 2.475.13-.04.245-.075.345-.105z" fill="#8fde5d"/><path d="m196.395 76.995-3.615-5.13.195-.135c-7.76-7.48-15.765-13.2-24.015-17.16s-17.12-6.585-26.61-7.875c-9.48-1.31-17.325-1.29-23.535.06s-9.355 2.06-9.435 2.13c-.48.24-.82.475-1.02.705-.34.34-.49.7-.45 1.08.01.55.39 1.245 1.14 2.085 6.89 7.7 15.035 14.285 24.435 19.755 9.45 5.49 19.235 9.325 29.355 11.505 6.91 1.45 12.99 1.91 18.24 1.38 2.98-.29 5.745-.92 8.295-1.89 2.68-1 4.97-2.34 6.87-4.02.03 0 .045-.005.045-.015.08-.08.155-.16.225-.24.35-.35.51-.69.48-1.02-.01-.13-.055-.29-.135-.48-.11-.23-.265-.475-.465-.735zm-1.755 1.08c.07.13.16.27.27.42l-.15.075c-.1.03-.215.065-.345.105-3.3 1.14-5.81 1.94-7.53 2.4-2.95.82-5.705 1.345-8.265 1.575-7.16.62-15.68-.765-25.56-4.155-8.21-2.84-15.74-6.47-22.59-10.89-7.43-4.76-13.585-10.145-18.465-16.155.26-.11.525-.215.795-.315 3.8-1.33 7.965-2.155 12.495-2.475 4.62-.36 9.44-.18 14.46.54 9.21 1.33 18.785 4.335 28.725 9.015 12.16 5.73 20.88 12.35 26.16 19.86z" fill="#2b2143"/><path d="m194.415 78.675c-1.3-.6-3.1-1.425-5.4-2.475-8.4-4.01-17.915-7.825-28.545-11.445-10.62-3.64-21.085-6.705-31.395-9.195-10.27-2.53-15.695-4.005-16.275-4.425-.27.1-.535.205-.795.315 4.88 6.01 11.035 11.395 18.465 16.155 6.85 4.42 14.38 8.05 22.59 10.89 9.88 3.39 18.4 4.775 25.56 4.155 2.56-.23 5.315-.755 8.265-1.575 1.72-.46 4.23-1.26 7.53-2.4z" fill="#619442"/><path d="m198.03 52.74c-.73-.77-1.535-1.355-2.415-1.755-.98-.42-1.925-.555-2.835-.405v-.015c-.94.27-1.77.815-2.49 1.635-.16.16-.31.345-.45.555-.43.6-.775 1.27-1.035 2.01-.47 1.62-.49 3.61-.06 5.97.1.59.325 1.57.675 2.94.31 1.23.525 2.205.645 2.925 0 .07.11.83.33 2.28.71 5.84 1.11 9.105 1.2 9.795.1.77.23 1.31.39 1.62.31.6.865 1.04 1.665 1.32.58.2 1.325.335 2.235.405 1.87.08 3.495-.005 4.875-.255 1.76-.33 3.235-.935 4.425-1.815-.45-.48-1.005-.795-1.665-.945l-1.5-10.14c-.26-1.76-.425-3.125-.495-4.095-.05-1.84-.14-3.2-.27-4.08-.13-.72-.395-1.82-.795-3.3-.25-.98-.515-1.77-.795-2.37-.4-.82-.945-1.58-1.635-2.28zm-3.105 1.14c.58.27 1.07.655 1.47 1.155.38.47.745 1.155 1.095 2.055.18.58.455 1.545.825 2.895l.405 1.695c.09.52.18 1.14.27 1.86.04.33.105 1.005.195 2.025.05.87.11 1.565.18 2.085.08.7.315 1.93.705 3.69l1.71 7.8c-2.04.18-3.93.28-5.67.3-.69-.01-1.14-.155-1.35-.435-.11-.14-.205-.43-.285-.87l-.165-1.26c-.12-1.18-.34-2.935-.66-5.265-.02-.11-.205-1.33-.555-3.66-.23-1.54-.455-2.8-.675-3.78-.28-1.02-.49-1.79-.63-2.31-.25-.94-.425-1.72-.525-2.34-.26-1.63-.145-3.03.345-4.2.07-.16.14-.32.21-.48.33-.6.74-1.045 1.23-1.335l.03.015c.6-.02 1.215.1 1.845.36z" fill="#2b233d"/><path d="m191.61 55.3201c-.49 1.17-.605 2.57-.345 4.2.1.62.275 1.4.525 2.34.14.52.35 1.29.63 2.31.22.98.445 2.24.675 3.78.35 2.33.535 3.55.555 3.66.32 2.33.54 4.085.66 5.265l.165 1.26c.08.44.175.73.285.87.21.28.66.425 1.35.435 1.74-.02 3.63-.12 5.67-.3l-1.71-7.8c-.39-1.76-.625-2.99-.705-3.69-.33.84-1.265 1.265-2.805 1.275-1.53-.01-3.18-4.545-4.95-13.605z" fill="#2e2055"/><path d="m196.395 55.0349c-.4-.5-.89-.885-1.47-1.155-.63-.26-1.245-.38-1.845-.36l-.03-.015c-.49.29-.9.735-1.23 1.335-.07.16-.14.32-.21.48 1.77 9.06 3.42 13.595 4.95 13.605 1.54-.01 2.475-.435 2.805-1.275-.07-.52-.13-1.215-.18-2.085-.09-1.02-.155-1.695-.195-2.025-.09-.72-.18-1.34-.27-1.86l-.405-1.695c-.37-1.35-.645-2.315-.825-2.895-.35-.9-.715-1.585-1.095-2.055z" fill="#443078"/><path d="m288.87 117.555c-.39-.85-.785-1.66-1.185-2.43-4.84-8.87-10.585-16.1249-17.235-21.7649-4.08-3.67-8.44-6.865-13.08-9.585-3.39-1.98-7.16-3.64-11.31-4.98-9.22-3.03-22.22-4.145-39-3.345-6.65.32-13.485 1.26-20.505 2.82-6.12 1.31-12.2 3.095-18.24 5.355-3.12 1.1-6.105 2.32-8.955 3.66-2.06.95-4.065 1.96-6.015 3.03-6.84 3.62-13.045 7.96-18.615 13.0199-3.75 3.88-6.925 8.12-9.525 12.72-3.54 6.1-6.16 12.755-7.86 19.965-.46 1.95-.86 3.92-1.2 5.91-.42 2.59-.7 5.195-.84 7.815-.03.5-.045 1-.045 1.5-.21 6.11.235 12.2 1.335 18.27.2 1.27.46 2.555.78 3.855 2.56 12.39 7.26 23.84 14.1 34.35 6.81 10.38 13.835 17.88 21.075 22.5 7.2 4.61 16.195 8.055 26.985 10.335 10.69 2.26 21.06 3.22 31.11 2.88 10.04-.33 20.26-1.745 30.66-4.245 10.45-2.52 20.84-7.46 31.17-14.82 10.09-7.29 16.355-13.96 18.795-20.01 2.44-6.17 4.2-12.025 5.28-17.565 1.04-5.58 1.74-11.16 2.1-16.74.41-5.22.24-12.66-.51-22.32-.19-1.78-.465-3.645-.825-5.595-.26-1.31-.56-2.625-.9-3.945-1.67-6.64-4.185-13.52-7.545-20.64zm-.3 4.725c1.21 2.81 2.34 5.98 3.39 9.51 1.26 4.45 2.28 9.34 3.06 14.67.51 4.17.835 8.62.975 13.35.15 1.01.135 2.58-.045 4.71-.14 4.06-.465 7.8-.975 11.22-1.87 11.48-4.8 21.135-8.79 28.965-3.97 7.92-11.125 14.815-21.465 20.685-10.52 5.96-19.765 9.755-27.735 11.385-7.95 1.61-16.765 2.755-26.445 3.435-9.61.66-20.805-.38-33.585-3.12-12.82-2.77-22.92-7.825-30.3-15.165-7.46-7.42-13.645-16.1-18.555-26.04-4.26-8.53-7.145-17.305-8.655-26.325-.28-1.57-.5-3.1-.66-4.59-.26-2.21-.44-4.4-.54-6.57-.13-2.4-.14-4.78-.03-7.14.08-2.21.28-4.425.6-6.645.47-3.73 1.255-7.425 2.355-11.085.78-2.77 1.74-5.445 2.88-8.025 2.91-7.09 6.975-13.585 12.195-19.485 0-.05-.005-.085-.015-.105 4.61-3.94 8.895-7.1049 12.855-9.4949 3.87-2.43 7.855-4.66 11.955-6.69 4.03-2.03 8.715-3.725 14.055-5.085 5.29-1.4 8.82-2.32 10.59-2.76 7.04-1.9 13.82-3.12 20.34-3.66 11.15-.77 20.58-.56 28.29.63 6.96 1.22 14.3 3.955 22.02 8.205.12.05.24.115.36.195 7.49 4.12 14.175 9.56 20.055 16.3199 3.36 3.72 6.42 8.12 9.18 13.2 1.18 1.9 2.06 3.735 2.64 5.505z" fill="#2b233d"/><path d="m210.54 240.21c9.68-.68 18.495-1.825 26.445-3.435 7.97-1.63 17.215-5.425 27.735-11.385 10.34-5.87 17.495-12.765 21.465-20.685 3.99-7.83 6.92-17.485 8.79-28.965.51-3.42.835-7.16.975-11.22-.47 3.68-3.445 10.4-8.925 20.16-5.54 9.21-12.56 16.975-21.06 23.295-8.63 6.37-16.64 10.755-24.03 13.155-7.29 2.4-17.24 4.215-29.85 5.445-12.2 1.24-25.14-.08-38.82-3.96-13.76-3.88-24.385-9.285-31.875-16.215-7.5-7-12.64-14.845-15.42-23.535-1.5-4.63-2.925-9.06-4.275-13.29-1.23-3.9-2.38-7.625-3.45-11.175.1 2.17.28 4.36.54 6.57.16 1.49.38 3.02.66 4.59 1.51 9.02 4.395 17.795 8.655 26.325 4.91 9.94 11.095 18.62 18.555 26.04 7.38 7.34 17.48 12.395 30.3 15.165 12.78 2.74 23.975 3.78 33.585 3.12z" fill="#3e3a7a"/><path d="m291.96 131.79c-1.05-3.53-2.18-6.7-3.39-9.51-.58-1.77-1.46-3.605-2.64-5.505-2.76-5.08-5.82-9.48-9.18-13.2-5.88-6.7598-12.565-12.1998-20.055-16.3198-.12-.08-.24-.145-.36-.195-7.72-4.25-15.06-6.985-22.02-8.205-7.71-1.19-17.14-1.4-28.29-.63-6.52.54-13.3 1.76-20.34 3.66-1.77.44-5.3 1.36-10.59 2.76-5.34 1.36-10.025 3.055-14.055 5.085-4.1 2.03-8.085 4.26-11.955 6.69-3.96 2.39-8.245 5.5548-12.855 9.4948.01.02.015.055.015.105-5.22 5.9-9.285 12.395-12.195 19.485-1.14 2.58-2.1 5.255-2.88 8.025-1.1 3.66-1.885 7.355-2.355 11.085-.32 2.22-.52 4.435-.6 6.645-.11 2.36-.1 4.74.03 7.14 1.07 3.55 2.22 7.275 3.45 11.175 1.35 4.23 2.775 8.66 4.275 13.29 2.78 8.69 7.92 16.535 15.42 23.535 7.49 6.93 18.115 12.335 31.875 16.215 13.68 3.88 26.62 5.2 38.82 3.96 12.61-1.23 22.56-3.045 29.85-5.445 7.39-2.4 15.4-6.785 24.03-13.155 8.5-6.32 15.52-14.085 21.06-23.295 5.48-9.76 8.455-16.48 8.925-20.16.18-2.13.195-3.7.045-4.71-.14-4.73-.465-9.18-.975-13.35-.78-5.33-1.8-10.22-3.06-14.67z" fill="#5b57ab"/><path d="m176.43 178.185c2.6-.58 4.71-1.58 6.33-3 .25-.22.48-.44.69-.66 1.11-1.2 1.535-2.405 1.275-3.615-.34-1.39-1.54-2.38-3.6-2.97-2.07-.59-4.415-.585-7.035.015s-4.745 1.61-6.375 3.03c-1.33 1.18-1.995 2.36-1.995 3.54 0 .23.025.465.075.705.31 1.42 1.51 2.42 3.6 3 2.08.55 4.425.535 7.035-.045zm86.145-13.485c1.6-1.42 2.245-2.84 1.935-4.26-.2-.91-.77-1.65-1.71-2.22-.52-.31-1.145-.565-1.875-.765-2.09-.58-4.44-.575-7.05.015-.88.2-1.705.45-2.475.75-1.5.58-2.785 1.335-3.855 2.265-1.62 1.42-2.27 2.84-1.95 4.26.34 1.39 1.54 2.395 3.6 3.015 2.06.58 4.405.57 7.035-.03 2.6-.6 4.715-1.61 6.345-3.03z" fill="#3e3a7a"/><path d="m242.235 169.32c-.16-.68-.67-1.145-1.53-1.395-7.2-1.76-14.52-2.35-21.96-1.77-.3.04-.6.085-.9.135-22.06 2.97-30.12 5.725-24.18 8.265l22.785-4.245c8.95-.75 16.6-.59 22.95.48 1.74.19 2.685-.3 2.835-1.47z" fill="#2b233d"/><path d="m75.615 155.835c-.69-.91-1.31-1.865-1.86-2.865-1.7-3.09-4.06-5.535-7.08-7.335-3.63-2.17-7.56-3.34-11.79-3.51-.43.09-.84.215-1.23.375-.41.18-.75.41-1.02.69-.6.59-.865 1.38-.795 2.37.18 2.34 1.115 4.335 2.805 5.985-1.2.08-2.37.255-3.51.525-4.56 1.13-8.565 3.24-12.015 6.33-1.62 1.47-2.81 3.205-3.57 5.205-.19.49-.35.995-.48 1.515-.24.96-.37 1.95-.39 2.97-.01 1.54.365 2.96 1.125 4.26 1.88 3.21 4.66 4.815 8.34 4.815.55 0 1.08-.08 1.59-.24 6.91-2.21 13.76-4.585 20.55-7.125 1.06 2.44 1.695 4.585 1.905 6.435.22 1.85.505 4.9.855 9.15.34 4.25.905 8.565 1.695 12.945.78 4.37 1.97 7.44 3.57 9.21 1.59 1.77 4.665 2.22 9.225 1.35.67-.13 1.325-.26 1.965-.39 1.01-.51 2.085-1.05 3.225-1.62 6.5-3.24 11.68-5.835 15.54-7.785 5.12-2.6 7.89-4.055 8.31-4.365 1.9-1.42 3.845-2.765 5.835-4.035 1.92-1.22 3.675-2.63 5.265-4.23 1.11-1.13 1.96-2.415 2.55-3.855.92-2.23.77-4.385-.45-6.465-1.02-1.73-2.395-3.055-4.125-3.975-.09.01-1.4.545-3.93 1.605-2.2.91-5.92 3.2-11.16 6.87-.82.57-1.68 1.18-2.58 1.83-6.62 4.74-13.13 8.32-19.53 10.74-.25-.7-.445-1.645-.585-2.835-.15-1.19-.62-4.435-1.41-9.735s-1.515-9.96-2.175-13.98-2.215-7.63-4.665-10.83zm-4.71-1.035c.7 1.19 1.79 3.075 3.27 5.655 1.47 2.58 2.67 5.91 3.6 9.99.92 4.08 1.59 7.935 2.01 11.565s1 8.205 1.74 13.725c.39.29.835.5 1.335.63.29.07.575.07.855 0 4.47-1.27 8.185-2.815 11.145-4.635 2.88-1.78 6.865-4.41 11.955-7.89.14-.09.28-.185.42-.285 5.3-3.62 9.75-6.41 13.35-8.37.35.16.68.365.99.615.73.58 1.175 1.325 1.335 2.235.41 2.31-.135 4.375-1.635 6.195-.66.78-1.395 1.455-2.205 2.025-2.66 1.87-5.415 3.54-8.265 5.01-1.74.89-3.395 1.935-4.965 3.135-.01 0-.02.005-.03.015-2.29 1.72-7.735 4.645-16.335 8.775-8.61 4.11-13.4 3.68-14.37-1.29-1.15-5.01-1.975-9.35-2.475-13.02-.65-4.82-.955-9.625-.915-14.415.05-4.8-1.565-7.285-4.845-7.455-10.03 3.97-18.225 6.175-24.585 6.615-.17-.01-.32-.045-.45-.105-1.14-.57-2.035-1.45-2.685-2.64-1.12-2.04-1.16-4.085-.12-6.135.22-.42.455-.83.705-1.23 1.4-2.26 3.285-4.095 5.655-5.505 4.14-2.48 8.61-3.335 13.41-2.565.69.83 1.505 1.48 2.445 1.95.92.46 1.805.57 2.655.33.89-.81.88-1.66-.03-2.55-2.15-2.08-4.425-4.045-6.825-5.895-1.22-.94-1.94-2.105-2.16-3.495.43-.08.855-.14 1.275-.18 1.81-.15 3.59.12 5.34.81 4.13 1.64 7.265 4.435 9.405 8.385z" fill="#2b233d"/><path d="m106.815 183.84c.01.27.015.545.015.825 0 3.77-.305 6.92-.915 9.45-.03.1-.055.195-.075.285 1.57-1.2 3.225-2.245 4.965-3.135 2.85-1.47 5.605-3.14 8.265-5.01.81-.57 1.545-1.245 2.205-2.025 1.5-1.82 2.045-3.885 1.635-6.195-.16-.91-.605-1.655-1.335-2.235-.31-.25-.64-.455-.99-.615-3.6 1.96-8.05 4.75-13.35 8.37-.14.1-.28.195-.42.285zm-50.655-38.235c-.42.04-.845.1-1.275.18.22 1.39.94 2.555 2.16 3.495 2.4 1.85 4.675 3.815 6.825 5.895.91.89.92 1.74.03 2.55-.85.24-1.735.13-2.655-.33-.94-.47-1.755-1.12-2.445-1.95-4.8-.77-9.27.085-13.41 2.565-2.37 1.41-4.255 3.245-5.655 5.505 2.66-.63 5.685-.945 9.075-.945.27 0 2.17.11 5.7.33 3.53.21 5.425.315 5.685.315 2.45 0 4.245-.215 5.385-.645 1.29-.48 1.935-1.295 1.935-2.445 0-2.09-1.415-4.76-4.245-8.01-2.02-2.32-4.39-4.49-7.11-6.51z" fill="#2e2055"/><path d="m74.175 160.455c-1.48-2.58-2.57-4.465-3.27-5.655-2.14-3.95-5.275-6.745-9.405-8.385-1.75-.69-3.53-.96-5.34-.81 2.72 2.02 5.09 4.19 7.11 6.51 2.83 3.25 4.245 5.92 4.245 8.01 0 1.15-.645 1.965-1.935 2.445-1.14.43-2.935.645-5.385.645-.26 0-2.155-.105-5.685-.315-3.53-.22-5.43-.33-5.7-.33-3.39 0-6.415.315-9.075.945-.25.4-.485.81-.705 1.23-1.04 2.05-1 4.095.12 6.135.65 1.19 1.545 2.07 2.685 2.64.13.06.28.095.45.105 6.36-.44 14.555-2.645 24.585-6.615 3.28.17 4.895 2.655 4.845 7.455-.04 4.79.265 9.595.915 14.415.5 3.67 1.325 8.01 2.475 13.02.97 4.97 5.76 5.4 14.37 1.29 8.6-4.13 14.045-7.055 16.335-8.775.01-.01.02-.015.03-.015.02-.09.045-.185.075-.285.61-2.53.915-5.68.915-9.45 0-.28-.005-.555-.015-.825-5.09 3.48-9.075 6.11-11.955 7.89-2.96 1.82-6.675 3.365-11.145 4.635-.28.07-.565.07-.855 0-.5-.13-.945-.34-1.335-.63-.74-5.52-1.32-10.095-1.74-13.725s-1.09-7.485-2.01-11.565c-.93-4.08-2.13-7.41-3.6-9.99z" fill="#443078"/><path d="m222.015 110.085-1.59 4.5c-.36 1-.655 2.035-.885 3.105-.46 2.14-.675 4.43-.645 6.87.06 3.65.375 6.495.945 8.535l2.91 7.785c2.82 4.95 6.45 9.02 10.89 12.21 4.43 3.19 9.775 3.965 16.035 2.325 6.61-1.96 11.31-6.995 14.1-15.105 1.81-5.26 2.575-10.515 2.295-15.765-.14-2.56-.53-5.12-1.17-7.68h-.015c-2.03-8.02-5.86-13.68-11.49-16.9799-5.66-3.37-11.395-4.31-17.205-2.82-5.87 1.41-10.595 5.7499-14.175 13.0199zm3.51.63c.475-1.139 1.015-2.189 1.62-3.15 2.336-3.708 5.631-6.043 9.885-7.005 4.93-1.5399 9.8-.7899 14.61 2.25 4.09 2.57 7.075 6.545 8.955 11.925.33.96.63 1.97.9 3.03 1.77 7.11 1.43 14.225-1.02 21.345-2.36 6.85-6.29 11.135-11.79 12.855-5.52 1.66-10.64.65-15.36-3.03-4.88-3.84-8.25-9.425-10.11-16.755-.63-2.49-.975-4.905-1.035-7.245-.13-4.63.85-9.03 2.94-13.2v-.015c.13-.34.265-.675.405-1.005zm-24.555 4.485c-.52-.73-1.04-1.42-1.56-2.07-2.65-3.26-5.43-5.545-8.34-6.855-5.06-2.28-9.415-3.27-13.065-2.97l.015-.015c-2.6.17-5.215.745-7.845 1.725h.015c-6.8 2.5-11.52 7.48-14.16 14.94-2.24 6.3-2.84 13.035-1.8 20.205.14.98.31 1.965.51 2.955 1.72 8.45 6.19 14.695 13.41 18.735 3.01 1.68 6.07 2.795 9.18 3.345.23.1 2.03.165 5.4.195s7.745-1.36 13.125-4.17c5.38-2.83 8.855-7.56 10.425-14.19v-.015c1.28-4.82 1.72-9.56 1.32-14.22v-.015c-.55-5.01-2.76-10.87-6.63-17.58zm-2.715 1.44c1.09.888.94.958-.45.21 1.457 1.138 2.797 3.298 4.02 6.48h-.015c1.23 3.21 1.995 6.47 2.295 9.78.36 4.25-.04 8.57-1.2 12.96v-.015c-2.04 7.49-6.465 12.375-13.275 14.655l.03-.015c-2.18.68-4.31 1.1-6.39 1.26l.015-.015c-4.6.27-9.085-.815-13.455-3.255-6.28-3.51-10.165-8.945-11.655-16.305-.72-3.54-1.02-6.97-.9-10.29.14-3.78.825-7.415 2.055-10.905 2.24-6.36 6.25-10.62 12.03-12.78 2.31-.86 4.6-1.365 6.87-1.515 3.57-.25 7.135.385 10.695 1.905 1.02.44 1.995.95 2.925 1.53.965.605 1.875 1.285 2.73 2.04 1.37 1.964 2.595 3.389 3.675 4.275z" fill="#2b233d"/><path d="m228.975 108.705c-1.359.451-2.509 1.121-3.45 2.01-.14.33-.275.665-.405 1.005v.015c-2.09 4.17-3.07 8.57-2.94 13.2.06 2.34.405 4.755 1.035 7.245 1.86 7.33 5.23 12.915 10.11 16.755 4.72 3.68 9.84 4.69 15.36 3.03 5.5-1.72 9.43-6.005 11.79-12.855 2.45-7.12 2.79-14.235 1.02-21.345-.27-1.06-.57-2.07-.9-3.03-.248.984-3.798 1.339-10.65 1.065-6.842-.263-13.832-2.628-20.97-7.095zm-27.165 14.625h.015c-1.223-3.182-2.563-5.342-4.02-6.48-.918.049-2.923.474-6.015 1.275-2.825.732-10.095-.603-21.81-4.005-.304.207-1.444 1.042-3.42 2.505-3.617 2.706-6.712 7.861-9.285 15.465-.12 3.32.18 6.75.9 10.29 1.49 7.36 5.375 12.795 11.655 16.305 4.37 2.44 8.855 3.525 13.455 3.255l-.015.015c2.08-.16 4.21-.58 6.39-1.26l-.03.015c6.81-2.28 11.235-7.165 13.275-14.655v.015c1.16-4.39 1.56-8.71 1.2-12.96-.3-3.31-1.065-6.57-2.295-9.78zm-9.96-13.005c-.463-.05.447.63 2.73 2.04-.855-.755-1.765-1.435-2.73-2.04z" fill="#ffffeb"/><path d="m225.525 110.715c.941-.889 2.091-1.559 3.45-2.01 7.138 4.468 14.128 6.833 20.97 7.095 6.852.274 10.402-.081 10.65-1.065-1.88-5.38-4.865-9.355-8.955-11.925-4.81-3.0398-9.68-3.7898-14.61-2.25-4.254.962-7.549 3.297-9.885 7.005-.605.961-1.145 2.011-1.62 3.15zm-27.72 6.135c1.39.748 1.54.678.45-.21-1.08-.886-2.305-2.311-3.675-4.275-2.283-1.41-3.193-2.09-2.73-2.04-.93-.58-1.905-1.09-2.925-1.53-3.56-1.52-7.125-2.155-10.695-1.905-2.27.15-4.56.655-6.87 1.515-5.78 2.16-9.79 6.42-12.03 12.78-1.23 3.49-1.915 7.125-2.055 10.905 2.573-7.604 5.668-12.759 9.285-15.465 1.976-1.463 3.116-2.298 3.42-2.505 11.715 3.402 18.985 4.737 21.81 4.005 3.092-.801 5.097-1.226 6.015-1.275z" fill="#ada9a7"/><path d="m231.81 115.905c-2.82.41-4.88 1.67-6.18 3.78-1.31 2.11-1.965 5.15-1.965 9.12 0 3.98.935 7.375 2.805 10.185 1.86 2.82 4.23 4.25 7.11 4.29 2.87.03 5.36-1.315 7.47-4.035 2.09-2.73 2.825-6.145 2.205-10.245s-1.975-7.41-4.065-9.93c-2.1-2.52-4.56-3.575-7.38-3.165z" fill="#2b233d"/><path d="m199.17 124.335c-2.32-2.78-4.825-4.09-7.515-3.93-2.69.15-5.14 1.46-7.35 3.93-2.22 2.46-3.355 5.865-3.405 10.215s.685 7.935 2.205 10.755c1.51 2.81 4.09 4.235 7.74 4.275 3.65.03 6.53-1.315 8.64-4.035 2.09-2.73 3.14-6.255 3.15-10.575s-1.145-7.865-3.465-10.635z" fill="#2b233d"/><path d="m230.55 120.3c-.95-.04-1.65.365-2.1 1.215-.44.85-.705 1.895-.795 3.135-.08 1.24.065 2.31.435 3.21.38.9 1.045 1.37 1.995 1.41.95.05 1.605-.255 1.965-.915s.66-1.66.9-3c.25-1.35.155-2.515-.285-3.495-.46-.99-1.165-1.51-2.115-1.56zm-39.72 11.715c.36-.68.665-1.685.915-3.015.25-1.34.15-2.505-.3-3.495-.46-.99-1.16-1.51-2.1-1.56-.95-.05-1.65.355-2.1 1.215-.44.85-.705 1.9-.795 3.15-.08 1.24.065 2.31.435 3.21.38.89 1.045 1.36 1.995 1.41.94.05 1.59-.255 1.95-.915z" fill="#fff"/><path d="m198.105 111.765c.49-.38.945-.77 1.365-1.17.38-.37.695-.765.945-1.185.05-.1.095-.2.135-.3.18-.4.45-.75.81-1.05 6.19-9.1401 2.965-13.3901-9.675-12.7501-12.64.63-19.45 1.055-20.43 1.275-1 .22-2.895.865-5.685 1.935s-4.77 2.0001-5.94 2.7901c3.16 1.34 6.295 2.635 9.405 3.885 3.62 1.45 6.905 2.765 9.855 3.945 2.94 1.18 5.365 1.975 7.275 2.385 1.89.4 4.98.8 9.27 1.2 1.05-.06 1.94-.38 2.67-.96z" fill="#5b57ab"/><path d="m201.99 107.625c-.24.13-.45.275-.63.435-.36.3-.63.65-.81 1.05-.04.1-.085.2-.135.3-.25.42-.565.815-.945 1.185-.42.4-.875.79-1.365 1.17-.73.58-1.62.9-2.67.96-4.29-.4-7.38-.8-9.27-1.2-1.91-.41-4.335-1.205-7.275-2.385-2.95-1.18-6.235-2.495-9.855-3.945-3.11-1.25-6.245-2.545-9.405-3.885-.41-.18-.815-.355-1.215-.525 0 .02-.01.03-.03.03-.15.02-.31.04-.48.06-.07.01-.135.03-.195.06-.1.04-.2.09-.3.15-.11.06-.21.13-.3.21-4.26 1.72-2.4 3.905 5.58 6.555 7.97 2.65 15.18 5.04 21.63 7.17 7.09 2.34 13.04 1.525 17.85-2.445.58-.48 1.085-.95 1.515-1.41 1.17-1.26 1.81-2.48 1.92-3.66-2.35.04-3.555.08-3.615.12z" fill="#2b233d"/><path d="m229.29 101.82c-2.078-2.1204-3.138-3.2054-3.18-3.2549-2.433-2.2456-3.788-2.2206-4.065.075-.059.5115-.064 1.1415-.015 1.8899 3.12 4.292 7.66 7.417 13.62 9.375 5.958 1.96 10.788 3.075 14.49 3.345 3.713.278 6.443.398 8.19.36 1.756-.026 3.561-.426 5.415-1.2 1.865-.778 2.835-1.593 2.91-2.445.012-.208.023-.398.03-.57-.017-1.481-.707-1.726-2.07-.735-.247.178-.497.343-.75.495-1.385.801-2.865 1.326-4.44 1.575-1.563.259-4.388.134-8.475-.375-4.077-.499-8.187-1.519-12.33-3.06-4.144-1.53-7.254-3.355-9.33-5.475z" fill="#2b233d"/><path d="m237.345 92.19c-.872.1756-2.757.7706-5.655 1.785-.115.0367-.22.0767-.315.12-1.656.5835-3.176 1.7435-4.56 3.48-.083.0858-.318.4158-.705.99.042.0495 1.102 1.1345 3.18 3.255 2.076 2.12 5.186 3.945 9.33 5.475 4.143 1.541 8.253 2.561 12.33 3.06 4.087.509 6.912.634 8.475.375 1.575-.249 3.055-.774 4.44-1.575-.092-.19-.182-.38-.27-.57-.9-1.862-1.91-3.597-3.03-5.205-.713-1.004-1.478-1.964-2.295-2.88-4.707-5.2922-10.197-8.1272-16.47-8.505-1.878-.1055-3.363-.0405-4.455.195z" fill="#5b57ab"/></svg>