<svg width="20" height="15" viewBox="0 0 20 15" fill="none" xmlns="http://www.w3.org/2000/svg">
<path d="M12.5071 3.20603C12.8631 2.21979 14.2239 2.21979 14.5799 3.20604L15.4564 5.63436C15.5684 5.94443 15.8069 6.1889 16.1093 6.30364L18.4782 7.2022C19.4403 7.56714 19.4403 8.96208 18.4782 9.32702L16.1093 10.2256C15.8069 10.3403 15.5684 10.5848 15.4564 10.8949L14.5799 13.3232C14.2239 14.3094 12.8631 14.3094 12.5071 13.3232L11.6306 10.8949C11.5187 10.5848 11.2802 10.3403 10.9777 10.2256L8.60885 9.32702C7.64677 8.96208 7.64677 7.56714 8.60886 7.2022L10.9777 6.30364C11.2802 6.1889 11.5187 5.94443 11.6306 5.63436L12.5071 3.20603Z" fill="white"/>
<path d="M3.87765 0.922379C4.16113 0.137039 5.24469 0.137039 5.52817 0.922379L6.05483 2.38139C6.14396 2.6283 6.33386 2.82297 6.57472 2.91433L7.99799 3.45422C8.76409 3.74482 8.76409 4.85559 7.99799 5.14619L6.57472 5.68607C6.33386 5.77744 6.14396 5.97211 6.05483 6.21902L5.52817 7.67803C5.24469 8.46337 4.16113 8.46337 3.87765 7.67803L3.35099 6.21902C3.26186 5.97211 3.07196 5.77744 2.8311 5.68607L1.40783 5.14619C0.641726 4.85559 0.641727 3.74482 1.40783 3.45422L2.8311 2.91433C3.07196 2.82297 3.26186 2.6283 3.35099 2.38139L3.87765 0.922379Z" fill="white"/>
</svg>
