<svg width="23" height="17" viewBox="0 0 23 17" fill="none" xmlns="http://www.w3.org/2000/svg">
<path d="M14.0087 3.44719C14.4359 2.26369 16.0688 2.2637 16.496 3.44719L17.5478 6.36118C17.6821 6.73326 17.9683 7.02663 18.3313 7.16432L21.1739 8.24259C22.3284 8.68052 22.3284 10.3544 21.1739 10.7924L18.3313 11.8706C17.9683 12.0083 17.6821 12.3017 17.5478 12.6738L16.496 15.5878C16.0688 16.7713 14.4359 16.7713 14.0086 15.5878L12.9568 12.6738C12.8225 12.3017 12.5363 12.0083 12.1733 11.8706L9.33072 10.7924C8.17622 10.3544 8.17622 8.68052 9.33072 8.24259L12.1733 7.16432C12.5363 7.02663 12.8225 6.73326 12.9568 6.36118L14.0087 3.44719Z" fill="#5A34E1"/>
<path d="M3.65327 0.706806C3.99345 -0.235602 5.29373 -0.235602 5.63391 0.706806L6.26589 2.45762C6.37285 2.75391 6.60073 2.98751 6.88976 3.09715L8.59769 3.74501C9.51701 4.09373 9.51701 5.42666 8.59769 5.77538L6.88976 6.42324C6.60073 6.53288 6.37285 6.76648 6.26589 7.06277L5.63391 8.81358C5.29373 9.75599 3.99345 9.75599 3.65327 8.81358L3.02128 7.06277C2.91433 6.76648 2.68645 6.53288 2.39742 6.42324L0.689492 5.77538C-0.229831 5.42666 -0.22983 4.09373 0.689492 3.74501L2.39742 3.09715C2.68645 2.98751 2.91433 2.75391 3.02128 2.45762L3.65327 0.706806Z" fill="#5A34E1"/>
</svg>
